SplineFontDB: 3.0
FontName: Rakhi
FullName: Rakhi
FamilyName: Rakhi
Weight: Book
Copyright: Copyright(C) 2013 Rahul.V, All rights reserved. Mob:+91-99464 29992, 88910 29992. Email: rahulv@kimo.com, www.neflone.com. Rakhi font Licensed under the GNU GENERAL PUBLIC LICENSE Version 3. As a special exception, if you create a document which uses this font, and embed this font or unaltered portions of this font into the document, this font does not by itself cause the resulting document to be covered by the GNU General Public License. This exception does not however invalidate any other reasons why the document might be covered by the GNU General Public License. \nSpecial Thanks To: Jijo George & Team SMC\nModified By Malayalam Aksharavedi
Version: Rakhi:1.03
ItalicAngle: 0
UnderlinePosition: -520
UnderlineWidth: 34
Ascent: 1638
Descent: 410
sfntRevision: 0x00060000
LayerCount: 2
Layer: 0 1 "Back"  1
Layer: 1 1 "Fore"  0
XUID: [1021 290 499100961 15246917]
FSType: 0
OS2Version: 1
OS2_WeightWidthSlopeOnly: 0
OS2_UseTypoMetrics: 1
CreationTime: 1201144321
ModificationTime: 1262306379
PfmFamily: 81
TTFWeight: 400
TTFWidth: 5
LineGap: 0
VLineGap: 0
Panose: 0 0 6 3 0 0 0 0 0 0
OS2TypoAscent: 1638
OS2TypoAOffset: 0
OS2TypoDescent: -1100
OS2TypoDOffset: 0
OS2TypoLinegap: 0
OS2WinAscent: 1366
OS2WinAOffset: 0
OS2WinDescent: 1100
OS2WinDOffset: 0
HheadAscent: 1366
HheadAOffset: 0
HheadDescent: -1100
HheadDOffset: 0
OS2SubXSize: 1330
OS2SubYSize: 1228
OS2SubXOff: 0
OS2SubYOff: 152
OS2SupXSize: 1330
OS2SupYSize: 1430
OS2SupXOff: 0
OS2SupYOff: 980
OS2StrikeYSize: 102
OS2StrikeYPos: 512
OS2Vendor: 'PfEd'
OS2CodePages: 00000001.00000000
OS2UnicodeRanges: 80800001.00002000.00000000.00000000
Lookup: 4 0 0 "'akhn' Akhand in Malay+AQEA-lam2 lookup 0"  {"'akhn' Akhand in Malay+AQEA-lam2 lookup 0 subtable"  } ['akhn' ('mlm2' <'dflt' > ) ]
Lookup: 4 0 0 "'akhn' Akhand in Malay+AQEA-lam2 lookup 1"  {"'akhn' Akhand in Malay+AQEA-lam2 lookup 1 subtable"  } ['akhn' ('mlm2' <'dflt' > ) ]

StartChar: .notdef
Encoding: 65536 -1 0
Width: 980
GlyphClass: 2
Flags: W
LayerCount: 2
Fore
SplineSet
976 1292 m 1,0,-1
 976 0 l 1,1,-1
 135 0 l 1,2,-1
 135 1292 l 1,3,-1
 976 1292 l 1,0,-1
232 1189 m 1,4,-1
 232 96 l 1,5,-1
 884 96 l 1,6,-1
 884 1189 l 1,7,-1
 232 1189 l 1,4,-1
EndSplineSet
Validated: 1
EndChar

StartChar: aexc
Encoding: 33 33 5
Width: 303
GlyphClass: 2
Flags: W
LayerCount: 2
Fore
SplineSet
176 268 m 1,0,1
 166 411 166 411 156 554 c 128,-1,2
 146 697 146 697 135 840 c 1,3,-1
 135 1079 l 1,4,-1
 298 1079 l 1,5,-1
 298 840 l 1,6,7
 289 696 289 696 279 554 c 128,-1,8
 269 412 269 412 260 268 c 1,9,-1
 176 268 l 1,0,1
141 0 m 1,10,-1
 141 148 l 1,11,-1
 292 148 l 1,12,-1
 292 0 l 1,13,-1
 141 0 l 1,10,-1
EndSplineSet
Validated: 1
EndChar

StartChar: aDQ
Encoding: 34 34 6
Width: 475
GlyphClass: 2
Flags: W
LayerCount: 2
Fore
SplineSet
422 788 m 1,0,-1
 411 801 l 2,1,2
 410 802 410 802 409.5 802.5 c 128,-1,3
 409 803 409 803 408 804 c 0,4,5
 307 909 307 909 308 1075 c 1,6,-1
 308 1104 l 1,7,8
 313 1103 313 1103 317.5 1101.5 c 128,-1,9
 322 1100 322 1100 326 1099 c 0,10,11
 335 1097 335 1097 343.5 1096 c 128,-1,12
 352 1095 352 1095 361 1095 c 128,-1,13
 370 1095 370 1095 378 1096 c 128,-1,14
 386 1097 386 1097 395 1099 c 0,15,16
 399 1100 399 1100 404.5 1101.5 c 128,-1,17
 410 1103 410 1103 416 1104 c 1,18,-1
 413 1080 l 2,19,20
 412 1073 412 1073 412 1063 c 2,21,-1
 412 1042 l 2,22,23
 412 926 412 926 460 852 c 1,24,25
 461 848 461 848 464.5 844.5 c 128,-1,26
 468 841 468 841 470 838 c 1,27,-1
 455 830 l 1,28,29
 440 818 440 818 433 807 c 2,30,-1
 422 788 l 1,0,-1
237 801 m 1,31,32
 134 903 134 903 135 1075 c 1,33,-1
 135 1104 l 1,34,35
 140 1103 140 1103 144.5 1101.5 c 128,-1,36
 149 1100 149 1100 154 1099 c 0,37,38
 161 1097 161 1097 170 1096 c 128,-1,39
 179 1095 179 1095 188 1095 c 128,-1,40
 197 1095 197 1095 204.5 1096 c 128,-1,41
 212 1097 212 1097 220 1099 c 0,42,43
 225 1100 225 1100 231 1101.5 c 128,-1,44
 237 1103 237 1103 243 1104 c 1,45,-1
 239 1080 l 1,46,-1
 239 1042 l 2,47,48
 239 927 239 927 288 852 c 1,49,-1
 298 838 l 1,50,-1
 281 829 l 1,51,52
 275 824 275 824 269.5 818.5 c 128,-1,53
 264 813 264 813 260 807 c 0,54,55
 257 803 257 803 254 797.5 c 128,-1,56
 251 792 251 792 248 788 c 1,57,-1
 237 801 l 1,31,32
EndSplineSet
Validated: 33
EndChar

StartChar: ahs
Encoding: 35 35 7
Width: 957
GlyphClass: 2
Flags: W
LayerCount: 2
Fore
SplineSet
196 4 m 1,0,-1
 262 319 l 1,1,-1
 135 319 l 1,2,-1
 135 426 l 1,3,-1
 285 426 l 1,4,-1
 340 696 l 1,5,-1
 135 696 l 1,6,-1
 135 804 l 1,7,-1
 363 804 l 1,8,-1
 428 1120 l 1,9,-1
 537 1120 l 1,10,-1
 472 804 l 1,11,-1
 713 804 l 1,12,-1
 778 1120 l 1,13,-1
 888 1120 l 1,14,-1
 822 804 l 1,15,-1
 952 804 l 1,16,-1
 952 696 l 1,17,-1
 800 696 l 1,18,-1
 743 426 l 1,19,-1
 952 426 l 1,20,-1
 952 319 l 1,21,-1
 721 319 l 1,22,-1
 656 4 l 1,23,-1
 547 4 l 1,24,-1
 611 319 l 1,25,-1
 370 319 l 1,26,-1
 305 4 l 1,27,-1
 196 4 l 1,0,-1
393 426 m 1,28,-1
 634 426 l 1,29,-1
 691 696 l 1,30,-1
 449 696 l 1,31,-1
 393 426 l 1,28,-1
EndSplineSet
Validated: 1
EndChar

StartChar: adlr
Encoding: 36 36 8
Width: 832
GlyphClass: 2
Flags: W
LayerCount: 2
Fore
SplineSet
453 -129 m 1,0,-1
 453 0 l 1,1,2
 399 5 399 5 359 16 c 128,-1,3
 319 27 319 27 289 42 c 0,4,5
 230 72 230 72 186 140 c 0,6,7
 164 175 164 175 151 216 c 128,-1,8
 138 257 138 257 135 301 c 1,9,10
 163 306 163 306 194.5 312 c 128,-1,11
 226 318 226 318 254 324 c 1,12,13
 268 225 268 225 308 175 c 0,14,15
 337 140 337 140 371.5 120 c 128,-1,16
 406 100 406 100 453 96 c 1,17,-1
 453 516 l 1,18,19
 366 531 366 531 284 577 c 0,20,21
 223 611 223 611 190.5 669.5 c 128,-1,22
 158 728 158 728 158 804 c 0,23,24
 158 938 158 938 254 1021 c 0,25,26
 320 1077 320 1077 453 1091 c 1,27,-1
 453 1151 l 1,28,-1
 516 1151 l 1,29,-1
 516 1091 l 1,30,31
 634 1080 634 1080 700 1026 c 0,32,33
 784 958 784 958 800 843 c 1,34,35
 772 840 772 840 739.5 834.5 c 128,-1,36
 707 829 707 829 678 824 c 1,37,38
 667 897 667 897 628.5 938.5 c 128,-1,39
 590 980 590 980 516 996 c 1,40,-1
 516 613 l 1,41,42
 569 600 569 600 602 591 c 128,-1,43
 635 582 635 582 652 574 c 0,44,45
 740 536 740 536 783.5 470.5 c 128,-1,46
 827 405 827 405 827 314 c 0,47,48
 827 182 827 182 742 94 c 0,49,50
 658 7 658 7 516 2 c 1,51,-1
 516 -129 l 1,52,-1
 453 -129 l 1,0,-1
453 996 m 1,53,54
 366 982 366 982 320 932 c 0,55,56
 297 907 297 907 286 877.5 c 128,-1,57
 275 848 275 848 275 815 c 0,58,59
 275 780 275 780 284 752 c 128,-1,60
 293 724 293 724 314 700.5 c 128,-1,61
 335 677 335 677 367.5 659 c 128,-1,62
 400 641 400 641 453 626 c 1,63,-1
 453 996 l 1,53,54
516 96 m 1,64,65
 603 107 603 107 654 164 c 0,66,67
 679 192 679 192 692.5 228 c 128,-1,68
 706 264 706 264 706 305 c 0,69,70
 706 375 706 375 668 420 c 0,71,72
 632 464 632 464 516 501 c 1,73,-1
 516 96 l 1,64,65
EndSplineSet
Validated: 1
EndChar

StartChar: aprc
Encoding: 37 37 9
Width: 1322
GlyphClass: 2
Flags: W
LayerCount: 2
Fore
SplineSet
135 861 m 0,0,1
 135 978 135 978 194 1056 c 1,2,3
 253 1138 253 1138 364 1138 c 0,4,5
 467 1138 467 1138 535 1065 c 0,6,7
 602 994 602 994 602 852 c 0,8,9
 602 715 602 715 534 642 c 256,10,11
 466 569 466 569 366 569 c 0,12,13
 267 569 267 569 200 641 c 0,14,15
 135 712 135 712 135 861 c 0,0,1
248 847 m 0,16,17
 248 744 248 744 283 700 c 1,18,19
 319 657 319 657 368 657 c 0,20,21
 420 657 420 657 454 700 c 1,22,23
 470 724 470 724 479.5 763 c 128,-1,24
 489 802 489 802 489 858 c 0,25,26
 489 910 489 910 479.5 947 c 128,-1,27
 470 984 470 984 454 1006 c 1,28,29
 420 1049 420 1049 368 1049 c 128,-1,30
 316 1049 316 1049 282 1006 c 1,31,32
 248 961 248 961 248 847 c 0,16,17
373 0 m 1,33,34
 522 282 522 282 673.5 569 c 128,-1,35
 825 856 825 856 974 1138 c 1,36,-1
 1078 1138 l 1,37,38
 930 856 930 856 779 568.5 c 128,-1,39
 628 281 628 281 479 0 c 1,40,-1
 373 0 l 1,33,34
848 292 m 0,41,42
 848 410 848 410 908 489 c 1,43,44
 966 570 966 570 1078 570 c 0,45,46
 1182 570 1182 570 1249 497 c 1,47,48
 1317 427 1317 427 1317 284 c 0,49,50
 1317 147 1317 147 1248 73 c 0,51,52
 1180 0 1180 0 1079 0 c 0,53,54
 1030 0 1030 0 989 18.5 c 128,-1,55
 948 37 948 37 914 72 c 1,56,57
 883 109 883 109 865.5 165 c 128,-1,58
 848 221 848 221 848 292 c 0,41,42
1083 480 m 0,59,60
 1029 480 1029 480 996 437 c 0,61,62
 962 393 962 393 962 280 c 0,63,64
 962 177 962 177 997 132 c 0,65,66
 1030 89 1030 89 1082.5 89 c 128,-1,67
 1135 89 1135 89 1168 132 c 1,68,69
 1185 156 1185 156 1194 195 c 128,-1,70
 1203 234 1203 234 1203 289 c 0,71,72
 1203 342 1203 342 1194 379 c 128,-1,73
 1185 416 1185 416 1168 437 c 0,74,75
 1135 480 1135 480 1083 480 c 0,59,60
EndSplineSet
Validated: 1
EndChar

StartChar: aamp
Encoding: 38 38 10
Width: 1050
GlyphClass: 2
Flags: W
LayerCount: 2
Fore
SplineSet
790 150 m 1,0,1
 656 5 656 5 478 5 c 0,2,3
 396 5 396 5 329 33.5 c 128,-1,4
 262 62 262 62 214 114 c 1,5,6
 176 158 176 158 155.5 209.5 c 128,-1,7
 135 261 135 261 135 316 c 0,8,9
 135 512 135 512 401 636 c 1,10,11
 323 724 323 724 298 778 c 0,12,13
 274 828 274 828 274 876 c 0,14,15
 274 972 274 972 349 1041 c 0,16,17
 425 1112 425 1112 541 1112 c 0,18,19
 652 1112 652 1112 721 1046 c 0,20,21
 790 979 790 979 790 887 c 0,22,23
 790 736 790 736 580 626 c 1,24,-1
 788 365 l 1,25,26
 809 405 809 405 823 442.5 c 128,-1,27
 837 480 837 480 846 519 c 1,28,29
 877 513 877 513 909.5 505.5 c 128,-1,30
 942 498 942 498 973 492 c 1,31,32
 938 358 938 358 875 264 c 1,33,34
 957 161 957 161 1046 96 c 1,35,36
 1026 74 1026 74 1004 49 c 128,-1,37
 982 24 982 24 963 0 c 1,38,39
 925 25 925 25 883.5 62 c 128,-1,40
 842 99 842 99 798 150 c 1,41,-1
 790 150 l 1,0,1
518 702 m 1,42,43
 611 756 611 756 639 795 c 1,44,45
 666 835 666 835 666 883 c 0,46,47
 666 942 666 942 627 977 c 1,48,49
 591 1014 591 1014 534 1014 c 0,50,51
 478 1014 478 1014 438 978 c 0,52,53
 399 942 399 942 399 888 c 0,54,55
 399 864 399 864 413 835 c 128,-1,56
 427 806 427 806 454 774 c 1,57,-1
 518 702 l 1,42,43
462 560 m 1,58,59
 405 526 405 526 366.5 495 c 128,-1,60
 328 464 328 464 308 435 c 0,61,62
 268 379 268 379 268 324 c 0,63,64
 268 257 268 257 322 184 c 0,65,66
 377 110 377 110 479 110 c 0,67,68
 512 110 512 110 543.5 119.5 c 128,-1,69
 575 129 575 129 608 148 c 0,70,71
 643 168 643 168 669.5 192.5 c 128,-1,72
 696 217 696 217 717 249 c 1,73,-1
 462 560 l 1,58,59
EndSplineSet
Validated: 1
EndChar

StartChar: aSQ
Encoding: 39 39 11
Width: 305
GlyphClass: 2
Flags: W
LayerCount: 2
Fore
SplineSet
300 1075 m 2,0,1
 300 989 300 989 274 921 c 128,-1,2
 248 853 248 853 195 801 c 0,3,4
 192 798 192 798 189.5 794.5 c 128,-1,5
 187 791 187 791 184 787 c 1,6,-1
 172 807 l 1,7,8
 165 821 165 821 152 830 c 1,9,10
 148 831 148 831 143.5 833.5 c 128,-1,11
 139 836 139 836 135 838 c 1,12,-1
 143 852 l 1,13,14
 194 926 194 926 194 1042 c 0,15,16
 194 1052 194 1052 194 1062.5 c 128,-1,17
 194 1073 194 1073 193 1080 c 0,18,19
 192 1086 192 1086 191 1092.5 c 128,-1,20
 190 1099 190 1099 189 1105 c 1,21,22
 195 1104 195 1104 200 1102 c 128,-1,23
 205 1100 205 1100 211 1099 c 0,24,25
 218 1097 218 1097 226.5 1096 c 128,-1,26
 235 1095 235 1095 244 1095 c 0,27,28
 254 1095 254 1095 262.5 1096 c 128,-1,29
 271 1097 271 1097 279 1099 c 1,30,-1
 284 1099 l 1,31,32
 287 1100 287 1100 291.5 1101.5 c 128,-1,33
 296 1103 296 1103 300 1104 c 1,34,-1
 300 1075 l 2,0,1
EndSplineSet
Validated: 1
EndChar

StartChar: apl
Encoding: 40 40 12
Width: 499
GlyphClass: 2
Flags: W
LayerCount: 2
Fore
SplineSet
400 -328 m 1,0,1
 346 -261 346 -261 298 -179 c 128,-1,2
 250 -97 250 -97 212 -4 c 0,3,4
 135 181 135 181 135 380 c 0,5,6
 135 467 135 467 149.5 551.5 c 128,-1,7
 164 636 164 636 193 716 c 0,8,9
 209 760 209 760 231.5 807.5 c 128,-1,10
 254 855 254 855 281 903 c 128,-1,11
 308 951 308 951 338 997.5 c 128,-1,12
 368 1044 368 1044 400 1087 c 1,13,-1
 494 1087 l 1,14,15
 448 1011 448 1011 418.5 957 c 128,-1,16
 389 903 389 903 374 870 c 0,17,18
 352 821 352 821 333.5 766 c 128,-1,19
 315 711 315 711 302 657 c 0,20,21
 286 588 286 588 277.5 518.5 c 128,-1,22
 269 449 269 449 269 379 c 0,23,24
 269 201 269 201 325 25.5 c 128,-1,25
 381 -150 381 -150 494 -328 c 1,26,-1
 400 -328 l 1,0,1
EndSplineSet
Validated: 1
EndChar

StartChar: apr
Encoding: 41 41 13
Width: 499
GlyphClass: 2
Flags: W
LayerCount: 2
Fore
SplineSet
135 -328 m 1,0,1
 358 27 358 27 358 379 c 0,2,3
 358 447 358 447 350 517.5 c 128,-1,4
 342 588 342 588 326 654 c 1,5,6
 314 708 314 708 295 763.5 c 128,-1,7
 276 819 276 819 254 867 c 0,8,9
 239 901 239 901 209.5 956 c 128,-1,10
 180 1011 180 1011 135 1087 c 1,11,-1
 227 1087 l 1,12,13
 297 996 297 996 349 903 c 128,-1,14
 401 810 401 810 435 716 c 0,15,16
 464 636 464 636 479 552 c 128,-1,17
 494 468 494 468 494 380 c 0,18,19
 494 280 494 280 474 185 c 128,-1,20
 454 90 454 90 415 -4 c 0,21,22
 376 -96 376 -96 328.5 -178 c 128,-1,23
 281 -260 281 -260 227 -328 c 1,24,-1
 135 -328 l 1,0,1
EndSplineSet
Validated: 1
EndChar

StartChar: astr
Encoding: 42 42 14
Width: 631
GlyphClass: 2
Flags: W
LayerCount: 2
Fore
SplineSet
168 1134 m 1,0,1
 226 1115 226 1115 270 1096 c 128,-1,2
 314 1077 314 1077 343 1061 c 1,3,4
 328 1193 328 1193 327 1247 c 1,5,-1
 432 1247 l 1,6,7
 430 1176 430 1176 414 1062 c 1,8,9
 490 1101 490 1101 592 1134 c 1,10,-1
 626 1032 l 1,11,12
 579 1017 579 1017 531 1006.5 c 128,-1,13
 483 996 483 996 437 990 c 1,14,15
 464 969 464 969 496.5 934.5 c 128,-1,16
 529 900 529 900 569 852 c 1,17,18
 547 835 547 835 524.5 820 c 128,-1,19
 502 805 502 805 481 790 c 1,20,21
 460 817 460 817 435 857.5 c 128,-1,22
 410 898 410 898 378 951 c 1,23,24
 350 897 350 897 325 856.5 c 128,-1,25
 300 816 300 816 280 790 c 1,26,27
 258 805 258 805 237 820 c 128,-1,28
 216 835 216 835 194 852 c 1,29,30
 237 904 237 904 268 938.5 c 128,-1,31
 299 973 299 973 319 990 c 1,32,33
 271 1000 271 1000 224.5 1010 c 128,-1,34
 178 1020 178 1020 135 1032 c 1,35,-1
 168 1134 l 1,0,1
EndSplineSet
Validated: 1
EndChar

StartChar: apls
Encoding: 43 43 15
Width: 865
GlyphClass: 2
Flags: W
LayerCount: 2
Fore
SplineSet
436 212 m 1,0,-1
 436 508 l 1,1,-1
 135 508 l 1,2,-1
 135 630 l 1,3,-1
 436 630 l 1,4,-1
 436 924 l 1,5,-1
 559 924 l 1,6,-1
 559 630 l 1,7,-1
 860 630 l 1,8,-1
 860 508 l 1,9,-1
 559 508 l 1,10,-1
 559 212 l 1,11,-1
 436 212 l 1,0,-1
EndSplineSet
Validated: 1
EndChar

StartChar: acm
Encoding: 44 44 16
Width: 375
GlyphClass: 2
Flags: W
LayerCount: 2
Fore
SplineSet
329 -193 m 0,0,1
 288 -280 288 -280 200 -353 c 1,2,3
 174 -321 174 -321 135 -301 c 1,4,5
 224 -194 224 -194 224 -49 c 0,6,7
 224 -37 224 -37 222 -21 c 0,8,9
 221 -11 221 -11 220 0 c 1,10,-1
 370 -1 l 1,11,12
 370 -108 370 -108 329 -193 c 0,0,1
EndSplineSet
Validated: 1
EndChar

StartChar: aHP
Encoding: 45 45 17
Width: 552
GlyphClass: 2
Flags: W
LayerCount: 2
Fore
SplineSet
135 315 m 1,0,-1
 135 445 l 1,1,-1
 547 445 l 1,2,-1
 547 315 l 1,3,-1
 135 315 l 1,0,-1
EndSplineSet
Validated: 1
EndChar

StartChar: aprd
Encoding: 46 46 18
Width: 290
GlyphClass: 2
Flags: W
LayerCount: 2
Fore
SplineSet
135 1 m 1,0,-1
 135 149 l 1,1,-1
 285 149 l 1,2,-1
 285 1 l 1,3,-1
 135 1 l 1,0,-1
EndSplineSet
Validated: 1
EndChar

StartChar: aslh
Encoding: 47 47 19
Width: 585
GlyphClass: 2
Flags: W
LayerCount: 2
Fore
SplineSet
135 4 m 1,0,-1
 454 1120 l 1,1,-1
 580 1120 l 1,2,-1
 262 4 l 1,3,-1
 135 4 l 1,0,-1
EndSplineSet
Validated: 1
EndChar

StartChar: a0
Encoding: 48 48 20
Width: 855
GlyphClass: 2
Flags: W
LayerCount: 2
Fore
SplineSet
135 554 m 0,0,1
 135 648 135 648 145 725.5 c 128,-1,2
 155 803 155 803 175 861 c 1,3,4
 196 916 196 916 226 963 c 128,-1,5
 256 1010 256 1010 294 1041 c 0,6,7
 375 1105 375 1105 493 1105 c 0,8,9
 581 1105 581 1105 647.5 1070.5 c 128,-1,10
 714 1036 714 1036 757 969 c 0,11,12
 779 936 779 936 796 896 c 128,-1,13
 813 856 813 856 826 808 c 0,14,15
 850 714 850 714 850 554 c 0,16,17
 850 460 850 460 840 382.5 c 128,-1,18
 830 305 830 305 811 246 c 1,19,20
 791 190 791 190 760.5 143.5 c 128,-1,21
 730 97 730 97 692 66 c 0,22,23
 612 3 612 3 493 3 c 0,24,25
 416 3 416 3 352.5 32 c 128,-1,26
 289 61 289 61 244 114 c 1,27,28
 190 182 190 182 162.5 292 c 128,-1,29
 135 402 135 402 135 554 c 0,0,1
716 554 m 0,30,31
 716 683 716 683 699 773 c 128,-1,32
 682 863 682 863 651 910 c 1,33,34
 619 953 619 953 578.5 975.5 c 128,-1,35
 538 998 538 998 491 998 c 0,36,37
 395 998 395 998 340 920 c 0,38,39
 270 820 270 820 270 554 c 0,40,41
 270 287 270 287 334 198 c 1,42,43
 400 109 400 109 493 109 c 256,44,45
 586 109 586 109 651 198 c 0,46,47
 684 244 684 244 700 332 c 128,-1,48
 716 420 716 420 716 554 c 0,30,31
EndSplineSet
Validated: 1
EndChar

StartChar: a1
Encoding: 49 49 21
Width: 542
GlyphClass: 2
Flags: W
LayerCount: 2
Fore
SplineSet
537 3 m 1,0,-1
 406 3 l 1,1,-1
 406 849 l 1,2,3
 355 801 355 801 274 756 c 0,4,5
 233 733 233 733 199.5 716 c 128,-1,6
 166 699 166 699 135 688 c 1,7,-1
 135 812 l 1,8,9
 191 838 191 838 240.5 870 c 128,-1,10
 290 902 290 902 333 940 c 1,11,12
 376 976 376 976 406.5 1012 c 128,-1,13
 437 1048 437 1048 454 1083 c 1,14,-1
 537 1083 l 1,15,-1
 537 3 l 1,0,-1
EndSplineSet
Validated: 1
EndChar

StartChar: a2
Encoding: 50 50 22
Width: 865
GlyphClass: 2
Flags: W
LayerCount: 2
Fore
SplineSet
860 125 m 1,0,-1
 860 0 l 1,1,-1
 135 0 l 1,2,3
 134 18 134 18 139.5 44 c 128,-1,4
 145 70 145 70 151 90 c 1,5,6
 166 125 166 125 189 163 c 128,-1,7
 212 201 212 201 239 234 c 1,8,9
 269 267 269 267 313.5 308.5 c 128,-1,10
 358 350 358 350 417 396 c 1,11,12
 506 469 506 469 567 525.5 c 128,-1,13
 628 582 628 582 660 626 c 0,14,15
 724 713 724 713 724 787 c 0,16,17
 724 866 724 866 665 921 c 0,18,19
 607 976 607 976 514 976 c 0,20,21
 416 976 416 976 356 918 c 0,22,23
 297 861 297 861 296 759 c 1,24,25
 262 762 262 762 228.5 765.5 c 128,-1,26
 195 769 195 769 161 773 c 1,27,28
 167 849 167 849 194.5 907 c 128,-1,29
 222 965 222 965 267.5 1004 c 128,-1,30
 313 1043 313 1043 376 1063 c 128,-1,31
 439 1083 439 1083 517 1083 c 0,32,33
 674 1083 674 1083 767 997 c 0,34,35
 859 912 859 912 859 784 c 0,36,37
 859 720 859 720 832 657 c 128,-1,38
 805 594 805 594 742 525 c 0,39,40
 713 492 713 492 659.5 444 c 128,-1,41
 606 396 606 396 533 336 c 1,42,43
 479 290 479 290 437.5 254.5 c 128,-1,44
 396 219 396 219 377 198 c 1,45,46
 359 180 359 180 343.5 160.5 c 128,-1,47
 328 141 328 141 317 125 c 1,48,-1
 860 125 l 1,0,-1
EndSplineSet
Validated: 1
EndChar

StartChar: a3
Encoding: 51 51 23
Width: 859
GlyphClass: 2
Flags: W
LayerCount: 2
Fore
SplineSet
267 322 m 1,0,1
 278 266 278 266 298.5 226 c 128,-1,2
 319 186 319 186 346.5 160 c 128,-1,3
 374 134 374 134 408.5 122 c 128,-1,4
 443 110 443 110 484 110 c 0,5,6
 582 110 582 110 647 176 c 1,7,8
 714 242 714 242 714 338 c 0,9,10
 714 430 714 430 652 488 c 1,11,12
 591 550 591 550 496 550 c 0,13,14
 476 550 476 550 453 546 c 128,-1,15
 430 542 430 542 403 536 c 1,16,17
 406 564 406 564 410 592 c 128,-1,18
 414 620 414 620 418 648 c 1,19,20
 418 648 418 648 419 647.5 c 128,-1,21
 420 647 420 647 421 647 c 0,22,23
 424 646 424 646 429 646 c 2,24,-1
 437 646 l 2,25,26
 525 646 525 646 595 691 c 1,27,28
 664 737 664 737 664 829 c 0,29,30
 664 903 664 903 614 951 c 1,31,32
 587 975 587 975 554.5 987.5 c 128,-1,33
 522 1000 522 1000 482 1000 c 0,34,35
 401 1000 401 1000 348 951 c 128,-1,36
 295 902 295 902 280 805 c 1,37,38
 246 811 246 811 214 816 c 128,-1,39
 182 821 182 821 148 827 c 1,40,41
 161 891 161 891 190 944 c 128,-1,42
 219 997 219 997 261 1032 c 0,43,44
 350 1106 350 1106 478 1106 c 0,45,46
 568 1106 568 1106 644 1067 c 0,47,48
 718 1030 718 1030 758 964 c 1,49,50
 800 900 800 900 800 826 c 0,51,52
 800 755 800 755 761 697.5 c 128,-1,53
 722 640 722 640 644 606 c 1,54,55
 694 595 694 595 733 571.5 c 128,-1,56
 772 548 772 548 798.5 514.5 c 128,-1,57
 825 481 825 481 839.5 436.5 c 128,-1,58
 854 392 854 392 854 340 c 0,59,60
 854 199 854 199 748 100 c 0,61,62
 645 4 645 4 484 4 c 0,63,64
 338 4 338 4 244 87 c 0,65,66
 198 128 198 128 170.5 184.5 c 128,-1,67
 143 241 143 241 135 305 c 1,68,-1
 267 322 l 1,0,1
EndSplineSet
Validated: 1
EndChar

StartChar: a4
Encoding: 52 52 24
Width: 900
GlyphClass: 2
Flags: W
LayerCount: 2
Fore
SplineSet
615 3 m 1,0,-1
 615 262 l 1,1,-1
 136 262 l 1,2,-1
 136 382 l 1,3,-1
 135 382 l 1,4,5
 260 555 260 555 386.5 731.5 c 128,-1,6
 513 908 513 908 638 1082 c 1,7,-1
 746 1082 l 1,8,-1
 746 381 l 1,9,-1
 895 381 l 1,10,-1
 895 262 l 1,11,-1
 746 262 l 1,12,-1
 746 3 l 1,13,-1
 615 3 l 1,0,-1
615 381 m 1,14,-1
 615 875 l 1,15,-1
 264 381 l 1,16,-1
 615 381 l 1,14,-1
EndSplineSet
Validated: 1
EndChar

StartChar: a5
Encoding: 53 53 25
Width: 867
GlyphClass: 2
Flags: W
LayerCount: 2
Fore
SplineSet
273 313 m 1,0,1
 280 262 280 262 299.5 224 c 128,-1,2
 319 186 319 186 347 160 c 128,-1,3
 375 134 375 134 410.5 121 c 128,-1,4
 446 108 446 108 488 108 c 0,5,6
 586 108 586 108 655 182 c 0,7,8
 723 254 723 254 723 374 c 0,9,10
 723 430 723 430 705.5 476 c 128,-1,11
 688 522 688 522 657 555 c 1,12,13
 626 586 626 586 581 604 c 128,-1,14
 536 622 536 622 485 622 c 0,15,16
 453 622 453 622 423.5 614 c 128,-1,17
 394 606 394 606 367.5 592 c 128,-1,18
 341 578 341 578 319.5 559 c 128,-1,19
 298 540 298 540 283 517 c 1,20,21
 251 520 251 520 220.5 524.5 c 128,-1,22
 190 529 190 529 159 533 c 1,23,24
 186 673 186 673 213 810.5 c 128,-1,25
 240 948 240 948 266 1087 c 1,26,-1
 811 1087 l 1,27,-1
 811 962 l 1,28,-1
 370 962 l 1,29,-1
 310 666 l 1,30,31
 412 737 412 737 521 737 c 0,32,33
 664 737 664 737 764 638 c 0,34,35
 862 541 862 541 862 386 c 0,36,37
 862 240 862 240 776 133 c 0,38,39
 670 1 670 1 488 1 c 0,40,41
 415 1 415 1 352.5 22.5 c 128,-1,42
 290 44 290 44 243 83 c 1,43,44
 198 125 198 125 170 180 c 128,-1,45
 142 235 142 235 135 300 c 1,46,-1
 273 313 l 1,0,1
EndSplineSet
Validated: 1
EndChar

StartChar: a6
Encoding: 54 54 26
Width: 864
GlyphClass: 2
Flags: W
LayerCount: 2
Fore
SplineSet
710 828 m 1,0,1
 692 904 692 904 658 941 c 1,2,3
 602 999 602 999 520 999 c 0,4,5
 488 999 488 999 459 989.5 c 128,-1,6
 430 980 430 980 406 964 c 1,7,8
 374 940 374 940 348 905 c 128,-1,9
 322 870 322 870 304 828 c 0,10,11
 286 784 286 784 276 719 c 128,-1,12
 266 654 266 654 266 570 c 1,13,14
 317 646 317 646 387.5 683 c 128,-1,15
 458 720 458 720 536 720 c 0,16,17
 670 720 670 720 764 623 c 1,18,19
 860 527 860 527 860 372 c 0,20,21
 860 269 860 269 814 183 c 1,22,23
 793 139 793 139 762 106 c 128,-1,24
 731 73 731 73 692 49 c 0,25,26
 616 3 616 3 516 3 c 0,27,28
 348 3 348 3 242 124 c 0,29,30
 135 245 135 245 135 526 c 0,31,32
 135 840 135 840 253 982 c 0,33,34
 356 1105 356 1105 529 1105 c 0,35,36
 658 1105 658 1105 740 1033 c 1,37,38
 824 963 824 963 840 838 c 1,39,-1
 710 828 l 1,0,1
286 371 m 0,40,41
 286 300 286 300 316 238 c 256,42,43
 346 176 346 176 400 142 c 0,44,45
 427 126 427 126 455.5 117.5 c 128,-1,46
 484 109 484 109 514 109 c 0,47,48
 599 109 599 109 663 178 c 0,49,50
 725 246 725 246 725 364 c 0,51,52
 725 474 725 474 664 540 c 0,53,54
 634 572 634 572 594 589 c 128,-1,55
 554 606 554 606 508 606 c 0,56,57
 417 606 417 606 351 540 c 0,58,59
 286 475 286 475 286 371 c 0,40,41
EndSplineSet
Validated: 1
EndChar

StartChar: a7
Encoding: 55 55 27
Width: 854
GlyphClass: 2
Flags: W
LayerCount: 2
Fore
SplineSet
136 965 m 1,0,-1
 135 1082 l 1,1,-1
 849 1082 l 1,2,-1
 846 987 l 1,3,-1
 847 988 l 1,4,5
 794 932 794 932 743 855.5 c 128,-1,6
 692 779 692 779 640 686 c 0,7,8
 616 644 616 644 594 596 c 128,-1,9
 572 548 572 548 551 498 c 128,-1,10
 530 448 530 448 512 399 c 128,-1,11
 494 350 494 350 481 306 c 0,12,13
 461 237 461 237 448 161.5 c 128,-1,14
 435 86 435 86 429 4 c 1,15,-1
 294 4 l 1,16,17
 296 132 296 132 345 316 c 0,18,19
 394 499 394 499 485 669 c 0,20,21
 532 756 532 756 579 830 c 128,-1,22
 626 904 626 904 678 965 c 1,23,-1
 136 965 l 1,0,-1
EndSplineSet
Validated: 1
EndChar

StartChar: a8
Encoding: 56 56 28
Width: 863
GlyphClass: 2
Flags: W
LayerCount: 2
Fore
SplineSet
344 605 m 1,0,1
 260 635 260 635 219.5 690.5 c 128,-1,2
 179 746 179 746 179 824 c 0,3,4
 179 942 179 942 265.5 1022 c 128,-1,5
 352 1102 352 1102 494 1102 c 0,6,7
 638 1102 638 1102 725 1020 c 1,8,9
 813 939 813 939 813 820 c 0,10,11
 813 745 813 745 772 689.5 c 128,-1,12
 731 634 731 634 647 604 c 1,13,14
 752 570 752 570 805 498 c 128,-1,15
 858 426 858 426 858 327 c 0,16,17
 858 186 858 186 758 94 c 1,18,19
 658 0 658 0 496 0 c 0,20,21
 417 0 417 0 350.5 24.5 c 128,-1,22
 284 49 284 49 235 94 c 0,23,24
 185 141 185 141 160 200 c 128,-1,25
 135 259 135 259 135 330 c 0,26,27
 135 436 135 436 189 506 c 128,-1,28
 243 576 243 576 344 602 c 1,29,-1
 344 605 l 1,0,1
314 828 m 0,30,31
 314 750 314 750 364 702 c 0,32,33
 416 653 416 653 497 653 c 0,34,35
 575 653 575 653 627 702 c 0,36,37
 678 750 678 750 678 821 c 0,38,39
 678 894 678 894 626 945 c 256,40,41
 574 996 574 996 496 996 c 0,42,43
 456 996 456 996 424 983 c 128,-1,44
 392 970 392 970 365 946 c 1,45,46
 314 898 314 898 314 828 c 0,30,31
270 330 m 0,47,48
 270 271 270 271 297 219 c 0,49,50
 326 165 326 165 380.5 135.5 c 128,-1,51
 435 106 435 106 498 106 c 0,52,53
 548 106 548 106 588 122 c 128,-1,54
 628 138 628 138 660 168 c 0,55,56
 724 228 724 228 724 325 c 0,57,58
 724 420 724 420 658 484 c 0,59,60
 593 548 593 548 494 548 c 0,61,62
 397 548 397 548 333 484 c 0,63,64
 270 420 270 420 270 330 c 0,47,48
EndSplineSet
Validated: 1
EndChar

StartChar: a9
Encoding: 57 57 29
Width: 861
GlyphClass: 2
Flags: W
LayerCount: 2
Fore
SplineSet
281 280 m 1,0,1
 298 190 298 190 345 149.5 c 128,-1,2
 392 109 392 109 466 109 c 0,3,4
 530 109 530 109 578 137.5 c 128,-1,5
 626 166 626 166 656 213 c 0,6,7
 684 258 684 258 706 340 c 1,8,9
 726 420 726 420 726 502 c 0,10,11
 726 507 726 507 725.5 517.5 c 128,-1,12
 725 528 725 528 724 537 c 1,13,14
 703 502 703 502 674 474 c 128,-1,15
 645 446 645 446 611 427 c 0,16,17
 576 408 576 408 538 398 c 128,-1,18
 500 388 500 388 460 388 c 0,19,20
 323 388 323 388 230 484 c 0,21,22
 135 582 135 582 135 742 c 0,23,24
 135 821 135 821 160.5 888.5 c 128,-1,25
 186 956 186 956 233 1005 c 1,26,27
 282 1053 282 1053 344.5 1079 c 128,-1,28
 407 1105 407 1105 480 1105 c 0,29,30
 533 1105 533 1105 581.5 1090 c 128,-1,31
 630 1075 630 1075 675 1048 c 1,32,33
 762 992 762 992 810 886 c 1,34,35
 856 780 856 780 856 583 c 0,36,37
 856 376 856 376 811 253 c 1,38,39
 787 192 787 192 753.5 146 c 128,-1,40
 720 100 720 100 674 67 c 0,41,42
 584 3 584 3 464 3 c 0,43,44
 399 3 399 3 347 21.5 c 128,-1,45
 295 40 295 40 254 73 c 1,46,47
 214 108 214 108 189 157.5 c 128,-1,48
 164 207 164 207 155 268 c 1,49,-1
 281 280 l 1,0,1
496 998 m 0,50,51
 406 998 406 998 338 925 c 0,52,53
 270 851 270 851 270 737 c 0,54,55
 270 634 270 634 334 568 c 0,56,57
 399 502 399 502 493 502 c 0,58,59
 538 502 538 502 579 520 c 128,-1,60
 620 538 620 538 649 568 c 1,61,62
 678 600 678 600 694 646.5 c 128,-1,63
 710 693 710 693 710 748 c 0,64,65
 710 860 710 860 647 930 c 0,66,67
 585 998 585 998 496 998 c 0,50,51
EndSplineSet
Validated: 1
EndChar

StartChar: acln
Encoding: 58 58 30
Width: 299
GlyphClass: 2
Flags: W
LayerCount: 2
Fore
SplineSet
135 600 m 1,0,-1
 135 763 l 1,1,-1
 294 763 l 1,2,-1
 294 600 l 1,3,-1
 135 600 l 1,0,-1
135 1 m 1,4,-1
 135 170 l 1,5,-1
 294 170 l 1,6,-1
 294 1 l 1,7,-1
 135 1 l 1,4,-1
EndSplineSet
Validated: 1
EndChar

StartChar: ascln
Encoding: 59 59 31
Width: 375
GlyphClass: 2
Flags: W
LayerCount: 2
Fore
SplineSet
329 -194 m 1,0,1
 288 -281 288 -281 200 -355 c 1,2,3
 174 -323 174 -323 135 -303 c 1,4,5
 224 -196 224 -196 224 -50 c 0,6,7
 224 -39 224 -39 222 -23 c 0,8,9
 221 -13 221 -13 220 -2 c 1,10,-1
 370 -2 l 1,11,12
 370 -110 370 -110 329 -194 c 1,0,1
336.5 598 m 128,-1,14
 363 572 363 572 363 535 c 256,15,16
 363 498 363 498 336.5 471.5 c 128,-1,17
 310 445 310 445 272 445 c 256,18,19
 234 445 234 445 207.5 471.5 c 128,-1,20
 181 498 181 498 181 535 c 256,21,22
 181 572 181 572 207.5 598 c 128,-1,23
 234 624 234 624 272 624 c 256,24,13
 310 624 310 624 336.5 598 c 128,-1,14
EndSplineSet
EndChar

StartChar: alt
Encoding: 60 60 32
Width: 867
GlyphClass: 2
Flags: W
LayerCount: 2
Fore
SplineSet
135 306 m 1,0,-1
 135 429 l 1,1,2
 318 505 318 505 499 579.5 c 128,-1,3
 680 654 680 654 862 730 c 1,4,-1
 862 591 l 1,5,-1
 280 368 l 1,6,7
 424 308 424 308 570.5 249 c 128,-1,8
 717 190 717 190 862 131 c 1,9,-1
 862 2 l 1,10,-1
 135 306 l 1,0,-1
EndSplineSet
Validated: 1
EndChar

StartChar: aeq
Encoding: 61 61 33
Width: 865
GlyphClass: 2
Flags: W
LayerCount: 2
Fore
SplineSet
860 572 m 1,0,-1
 135 572 l 1,1,-1
 135 693 l 1,2,-1
 860 693 l 1,3,-1
 860 572 l 1,0,-1
860 244 m 1,4,-1
 135 244 l 1,5,-1
 135 364 l 1,6,-1
 860 364 l 1,7,-1
 860 244 l 1,4,-1
EndSplineSet
Validated: 1
EndChar

StartChar: agt
Encoding: 62 62 34
Width: 867
GlyphClass: 2
Flags: W
LayerCount: 2
Fore
SplineSet
862 307 m 1,0,1
 680 231 680 231 499 155 c 128,-1,2
 318 79 318 79 135 3 c 1,3,-1
 135 132 l 1,4,-1
 716 368 l 1,5,6
 572 426 572 426 426 485 c 128,-1,7
 280 544 280 544 135 602 c 1,8,-1
 135 731 l 1,9,10
 318 655 318 655 498.5 580.5 c 128,-1,11
 679 506 679 506 862 430 c 1,12,-1
 862 307 l 1,0,1
EndSplineSet
Validated: 1
EndChar

StartChar: aqm
Encoding: 63 63 35
Width: 848
GlyphClass: 2
Flags: W
LayerCount: 2
Fore
SplineSet
423 268 m 1,0,1
 422 281 422 281 422 291 c 2,2,-1
 422 307 l 2,3,4
 422 384 422 384 445 441 c 0,5,6
 453 463 453 463 466 485 c 128,-1,7
 479 507 479 507 497 528 c 0,8,9
 511 543 511 543 535 565.5 c 128,-1,10
 559 588 559 588 595 619 c 1,11,-1
 595 618 l 1,12,13
 631 649 631 649 653.5 674 c 128,-1,14
 676 699 676 699 687 717 c 0,15,16
 708 753 708 753 708 796 c 0,17,18
 708 874 708 874 646 933 c 0,19,20
 583 993 583 993 493 993 c 0,21,22
 405 993 405 993 346.5 940 c 128,-1,23
 288 887 288 887 270 774 c 1,24,25
 236 777 236 777 203 781.5 c 128,-1,26
 170 786 170 786 135 790 c 1,27,28
 154 941 154 941 246 1020 c 128,-1,29
 338 1099 338 1099 490 1099 c 0,30,31
 651 1099 651 1099 747 1014 c 1,32,33
 843 927 843 927 843 805 c 0,34,35
 843 735 843 735 809 675 c 0,36,37
 774 614 774 614 677 531 c 1,38,-1
 677 531 l 1,39,40
 644 503 644 503 623 481.5 c 128,-1,41
 602 460 602 460 591 445 c 256,42,43
 580 430 580 430 572.5 414.5 c 128,-1,44
 565 399 565 399 560 383 c 0,45,46
 549 348 549 348 548 268 c 1,47,-1
 423 268 l 1,0,1
415 2 m 1,48,-1
 415 150 l 1,49,-1
 564 150 l 1,50,-1
 564 2 l 1,51,-1
 415 2 l 1,48,-1
EndSplineSet
Validated: 1
EndChar

StartChar: aat
Encoding: 64 64 36
Width: 1561
GlyphClass: 2
Flags: W
LayerCount: 2
Fore
SplineSet
922 123 m 1,0,1
 873 67 873 67 813 34 c 128,-1,2
 753 1 753 1 692 1 c 0,3,4
 659 1 659 1 626.5 11 c 128,-1,5
 594 21 594 21 564 40 c 128,-1,6
 534 59 534 59 508 88.5 c 128,-1,7
 482 118 482 118 461 157 c 1,8,9
 422 237 422 237 422 331 c 0,10,11
 422 446 422 446 483 565 c 0,12,13
 544 683 544 683 635 741 c 0,14,15
 727 800 727 800 811 800 c 0,16,17
 876 800 876 800 935 765.5 c 128,-1,18
 994 731 994 731 1039 659 c 1,19,20
 1045 688 1045 688 1052.5 719.5 c 128,-1,21
 1060 751 1060 751 1066 779 c 1,22,-1
 1196 779 l 1,23,-1
 1088 284 l 2,24,25
 1065 182 1065 182 1065 170 c 0,26,27
 1065 150 1065 150 1080.5 135.5 c 128,-1,28
 1096 121 1096 121 1120 121 c 0,29,30
 1140 121 1140 121 1167.5 132.5 c 128,-1,31
 1195 144 1195 144 1226 166 c 0,32,33
 1269 195 1269 195 1303.5 235.5 c 128,-1,34
 1338 276 1338 276 1363 324 c 1,35,36
 1387 373 1387 373 1400 426 c 128,-1,37
 1413 479 1413 479 1413 530 c 0,38,39
 1413 653 1413 653 1348 761 c 0,40,41
 1283 868 1283 868 1155 933 c 0,42,43
 1027 997 1027 997 872 997 c 0,44,45
 695 997 695 997 550 916 c 0,46,47
 476 874 476 874 419 817 c 128,-1,48
 362 760 362 760 322 683 c 1,49,50
 242 534 242 534 242 359 c 0,51,52
 242 178 242 178 322 47 c 0,53,54
 362 -18 362 -18 420 -66.5 c 128,-1,55
 478 -115 478 -115 556 -146 c 1,56,57
 706 -208 706 -208 892 -208 c 0,58,59
 1091 -208 1091 -208 1224 -144 c 0,60,61
 1290 -112 1290 -112 1340 -72 c 128,-1,62
 1390 -32 1390 -32 1424 14 c 1,63,-1
 1556 14 l 1,64,65
 1537 -23 1537 -23 1503.5 -62 c 128,-1,66
 1470 -101 1470 -101 1426 -141 c 1,67,68
 1378 -181 1378 -181 1323 -213 c 128,-1,69
 1268 -245 1268 -245 1204 -268 c 0,70,71
 1077 -315 1077 -315 895 -315 c 0,72,73
 728 -315 728 -315 588 -273 c 128,-1,74
 448 -231 448 -231 347 -146 c 0,75,76
 298 -104 298 -104 261 -55.5 c 128,-1,77
 224 -7 224 -7 199 47 c 0,78,79
 167 117 167 117 151 192.5 c 128,-1,80
 135 268 135 268 135 348 c 0,81,82
 135 527 135 527 211 690 c 1,83,84
 302 890 302 890 470.5 996 c 128,-1,85
 639 1102 639 1102 879 1102 c 0,86,87
 1066 1102 1066 1102 1214 1026 c 1,88,89
 1285 991 1285 991 1344.5 933 c 128,-1,90
 1404 875 1404 875 1447 804 c 1,91,92
 1482 742 1482 742 1501 671.5 c 128,-1,93
 1520 601 1520 601 1520 528 c 0,94,95
 1520 314 1520 314 1367 149 c 1,96,97
 1232 0 1232 0 1069 0 c 0,98,99
 1018 0 1018 0 987 15.5 c 128,-1,100
 956 31 956 31 940 59 c 0,101,102
 930 77 930 77 926 122 c 1,103,-1
 922 123 l 1,0,1
557 322 m 0,104,105
 557 221 557 221 607 164 c 0,106,107
 656 107 656 107 720 107 c 0,108,109
 763 107 763 107 809.5 133 c 128,-1,110
 856 159 856 159 899 206 c 0,111,112
 921 231 921 231 939 262 c 128,-1,113
 957 293 957 293 970 329 c 0,114,115
 998 404 998 404 998 480 c 0,116,117
 998 580 998 580 946 637 c 0,118,119
 894 693 894 693 820 693 c 0,120,121
 772 693 772 693 729 669 c 128,-1,122
 686 645 686 645 646 591 c 0,123,124
 604 536 604 536 581 462 c 0,125,126
 557 385 557 385 557 322 c 0,104,105
EndSplineSet
Validated: 1
EndChar

StartChar: eA
Encoding: 65 65 37
Width: 1166
GlyphClass: 2
Flags: W
LayerCount: 2
Fore
SplineSet
135 0 m 5,0,1
 240 267 240 267 346.5 538.5 c 132,-1,2
 453 810 453 810 558 1077 c 5,3,-1
 710 1077 l 5,4,5
 824 807 824 807 935.5 538.5 c 132,-1,6
 1047 270 1047 270 1161 0 c 5,7,-1
 1000 0 l 5,8,-1
 872 327 l 5,9,-1
 406 327 l 5,10,11
 392 288 392 288 376.5 246.5 c 132,-1,12
 361 205 361 205 345.5 163 c 132,-1,13
 330 121 330 121 314.5 79.5 c 132,-1,14
 299 38 299 38 285 0 c 5,15,-1
 135 0 l 5,0,1
447 441 m 5,16,-1
 827 441 l 5,17,-1
 711 742 l 6,18,19
 685 809 685 809 665.5 865 c 132,-1,20
 646 921 646 921 633 967 c 5,21,-1
 628 966 l 5,22,23
 618 914 618 914 603 862 c 132,-1,24
 588 810 588 810 569 759 c 6,25,-1
 447 441 l 5,16,-1
EndSplineSet
Validated: 1
EndChar

StartChar: eB
Encoding: 66 66 38
Width: 968
GlyphClass: 2
Flags: W
LayerCount: 2
Fore
SplineSet
135 3 m 5,0,-1
 135 1080 l 5,1,-1
 547 1080 l 6,2,3
 610 1080 610 1080 660 1072 c 132,-1,4
 710 1064 710 1064 748.5 1047.5 c 132,-1,5
 787 1031 787 1031 815.5 1006 c 132,-1,6
 844 981 844 981 866 947 c 4,7,8
 910 879 910 879 910 805 c 4,9,10
 910 736 910 736 871 674.5 c 132,-1,11
 832 613 832 613 754 575 c 5,12,13
 855 546 855 546 909 477.5 c 132,-1,14
 963 409 963 409 963 315 c 4,15,16
 963 240 963 240 930 174 c 4,17,18
 898 109 898 109 850 74 c 132,-1,19
 802 39 802 39 730 21 c 132,-1,20
 658 3 658 3 554 3 c 6,21,-1
 135 3 l 5,0,-1
277 626 m 5,22,-1
 518 626 l 6,23,24
 566 626 566 626 601 629.5 c 132,-1,25
 636 633 636 633 657 639 c 4,26,27
 713 655 713 655 742 693 c 132,-1,28
 771 731 771 731 771 789 c 4,29,30
 771 842 771 842 744 883 c 132,-1,31
 717 924 717 924 668 940 c 4,32,33
 644 948 644 948 601.5 952 c 132,-1,34
 559 956 559 956 500 956 c 6,35,-1
 277 956 l 5,36,-1
 277 626 l 5,22,-1
277 127 m 5,37,-1
 554 127 l 6,38,39
 589 127 589 127 614 128 c 132,-1,40
 639 129 639 129 653 132 c 4,41,42
 704 141 704 141 738 162 c 132,-1,43
 772 183 772 183 795 222 c 5,44,45
 817 263 817 263 817 315 c 4,46,47
 817 344 817 344 808.5 370 c 132,-1,48
 800 396 800 396 783.5 418.5 c 132,-1,49
 767 441 767 441 744.5 457.5 c 132,-1,50
 722 474 722 474 695 483 c 260,51,52
 668 492 668 492 626.5 496.5 c 132,-1,53
 585 501 585 501 534 501 c 6,54,-1
 277 501 l 5,55,-1
 277 127 l 5,37,-1
EndSplineSet
Validated: 1
EndChar

StartChar: eC
Encoding: 67 67 39
Width: 1110
GlyphClass: 2
Flags: W
LayerCount: 2
Fore
SplineSet
1106 355 m 5,0,1
 1061 183 1061 183 940 89 c 4,2,3
 822 -3 822 -3 651 -3 c 4,4,5
 562 -3 562 -3 490.5 15 c 132,-1,6
 419 33 419 33 363 68 c 132,-1,7
 307 103 307 103 264.5 154.5 c 132,-1,8
 222 206 222 206 193 273 c 4,9,10
 135 409 135 409 135 562 c 4,11,12
 135 731 135 731 200 855 c 4,13,14
 234 919 234 919 281 966.5 c 132,-1,15
 328 1014 328 1014 386 1046 c 5,16,17
 446 1077 446 1077 514.5 1094 c 132,-1,18
 583 1111 583 1111 653 1111 c 4,19,20
 818 1111 818 1111 930 1029.5 c 132,-1,21
 1042 948 1042 948 1086 799 c 5,22,23
 1051 791 1051 791 1016 783 c 132,-1,24
 981 775 981 775 946 768 c 5,25,26
 908 884 908 884 834.5 938.5 c 132,-1,27
 761 993 761 993 650 993 c 4,28,29
 522 993 522 993 436 932 c 5,30,31
 351 873 351 873 316 771 c 4,32,33
 281 672 281 672 281 563 c 4,34,35
 281 494 281 494 291.5 433 c 132,-1,36
 302 372 302 372 322.5 321.5 c 132,-1,37
 343 271 343 271 374.5 232 c 132,-1,38
 406 193 406 193 450 168 c 5,39,40
 537 116 537 116 639 116 c 4,41,42
 700 116 700 116 753 133.5 c 132,-1,43
 806 151 806 151 847.5 185 c 132,-1,44
 889 219 889 219 918.5 271 c 132,-1,45
 948 323 948 323 963 391 c 5,46,-1
 1106 355 l 5,0,1
EndSplineSet
Validated: 1
EndChar

StartChar: eD
Encoding: 68 68 40
Width: 1047
GlyphClass: 2
Flags: W
LayerCount: 2
Fore
SplineSet
135 4 m 1,0,-1
 135 1081 l 1,1,-1
 513 1081 l 2,2,3
 640 1081 640 1081 708 1066 c 0,4,5
 755 1056 755 1056 795.5 1037 c 128,-1,6
 836 1018 836 1018 869 988 c 1,7,8
 956 916 956 916 999 804.5 c 128,-1,9
 1042 693 1042 693 1042 548 c 0,10,11
 1042 455 1042 455 1025 379.5 c 128,-1,12
 1008 304 1008 304 979.5 245 c 128,-1,13
 951 186 951 186 914.5 144 c 128,-1,14
 878 102 878 102 838 76 c 0,15,16
 784 40 784 40 707.5 22 c 128,-1,17
 631 4 631 4 531 4 c 2,18,-1
 135 4 l 1,0,-1
277 128 m 1,19,-1
 514 128 l 2,20,21
 625 128 625 128 686 148 c 0,22,23
 748 169 748 169 786 205 c 0,24,25
 838 256 838 256 867 341.5 c 128,-1,26
 896 427 896 427 896 550 c 0,27,28
 896 720 896 720 839 811 c 0,29,30
 812 855 812 855 776 887 c 128,-1,31
 740 919 740 919 700 934 c 0,32,33
 642 957 642 957 511 957 c 2,34,-1
 277 957 l 1,35,-1
 277 128 l 1,19,-1
EndSplineSet
Validated: 1
EndChar

StartChar: eE
Encoding: 69 69 41
Width: 958
GlyphClass: 2
Flags: W
LayerCount: 2
Fore
SplineSet
135 2 m 1,0,-1
 135 1079 l 1,1,-1
 928 1079 l 1,2,-1
 928 955 l 1,3,-1
 277 955 l 1,4,-1
 277 620 l 1,5,-1
 886 620 l 1,6,-1
 886 497 l 1,7,-1
 277 497 l 1,8,-1
 277 126 l 1,9,-1
 953 126 l 1,10,-1
 953 2 l 1,11,-1
 135 2 l 1,0,-1
EndSplineSet
Validated: 1
EndChar

StartChar: eF
Encoding: 70 70 42
Width: 878
GlyphClass: 2
Flags: W
LayerCount: 2
Fore
SplineSet
135 1 m 5,0,-1
 135 1078 l 5,1,-1
 874 1078 l 5,2,-1
 874 954 l 5,3,-1
 276 954 l 5,4,-1
 276 616 l 5,5,-1
 794 616 l 5,6,-1
 794 492 l 5,7,-1
 276 492 l 5,8,-1
 276 1 l 5,9,-1
 135 1 l 5,0,-1
EndSplineSet
Validated: 1
EndChar

StartChar: eG
Encoding: 71 71 43
Width: 1155
GlyphClass: 2
Flags: W
LayerCount: 2
Fore
SplineSet
688 436 m 5,0,-1
 688 559 l 5,1,2
 805 559 805 559 919.5 559.5 c 132,-1,3
 1034 560 1034 560 1150 560 c 5,4,-1
 1150 161 l 5,5,6
 1043 79 1043 79 928.5 36 c 132,-1,7
 814 -7 814 -7 696 -7 c 4,8,9
 616 -7 616 -7 542 10.5 c 132,-1,10
 468 28 468 28 401 61 c 5,11,12
 339 94 339 94 287.5 144.5 c 132,-1,13
 236 195 236 195 202 257 c 5,14,15
 170 322 170 322 152.5 395 c 132,-1,16
 135 468 135 468 135 545 c 4,17,18
 135 621 135 621 152.5 696 c 132,-1,19
 170 771 170 771 202 839 c 5,20,21
 236 904 236 904 285 956.5 c 132,-1,22
 334 1009 334 1009 394 1041 c 5,23,24
 457 1073 457 1073 531 1090 c 132,-1,25
 605 1107 605 1107 685 1107 c 4,26,27
 806 1107 806 1107 900 1069 c 4,28,29
 995 1031 995 1031 1052 965 c 5,30,31
 1078 932 1078 932 1099 887.5 c 132,-1,32
 1120 843 1120 843 1134 789 c 5,33,34
 1102 780 1102 780 1070.5 772.5 c 132,-1,35
 1039 765 1039 765 1006 755 c 5,36,37
 982 833 982 833 944 883 c 4,38,39
 925 907 925 907 898.5 926.5 c 132,-1,40
 872 946 872 946 838 959 c 5,41,42
 770 989 770 989 686 989 c 4,43,44
 608 989 608 989 549 971 c 132,-1,45
 490 953 490 953 445.5 923 c 132,-1,46
 401 893 401 893 371 854 c 132,-1,47
 341 815 341 815 323 772 c 4,48,49
 281 671 281 671 281 554 c 4,50,51
 281 483 281 483 295 423 c 132,-1,52
 309 363 309 363 335 313.5 c 132,-1,53
 361 264 361 264 397.5 227.5 c 132,-1,54
 434 191 434 191 481 167 c 4,55,56
 578 119 578 119 688 119 c 4,57,58
 784 119 784 119 874 155 c 4,59,60
 919 173 919 173 953.5 192.5 c 132,-1,61
 988 212 988 212 1012 233 c 5,62,-1
 1012 436 l 5,63,-1
 688 436 l 5,0,-1
EndSplineSet
Validated: 1
EndChar

StartChar: eH
Encoding: 72 72 44
Width: 1001
GlyphClass: 2
Flags: W
LayerCount: 2
Fore
SplineSet
135 3 m 1,0,-1
 135 1080 l 1,1,-1
 277 1080 l 1,2,-1
 277 636 l 1,3,-1
 854 636 l 1,4,-1
 854 1080 l 1,5,-1
 996 1080 l 1,6,-1
 996 3 l 1,7,-1
 854 3 l 1,8,-1
 854 512 l 1,9,-1
 277 512 l 1,10,-1
 277 3 l 1,11,-1
 135 3 l 1,0,-1
EndSplineSet
Validated: 1
EndChar

StartChar: eI
Encoding: 73 73 45
Width: 282
GlyphClass: 2
Flags: W
LayerCount: 2
Fore
SplineSet
135 3 m 1,0,-1
 135 1080 l 1,1,-1
 277 1080 l 1,2,-1
 277 3 l 1,3,-1
 135 3 l 1,0,-1
EndSplineSet
Validated: 1
EndChar

StartChar: eJ
Encoding: 74 74 46
Width: 741
GlyphClass: 2
Flags: W
LayerCount: 2
Fore
SplineSet
262 338 m 1,0,1
 268 216 268 216 310 170 c 0,2,3
 352 123 352 123 428 123 c 0,4,5
 484 123 484 123 524.5 148.5 c 128,-1,6
 565 174 565 174 580 216 c 0,7,8
 595 260 595 260 595 352 c 2,9,-1
 595 1095 l 1,10,-1
 736 1095 l 1,11,-1
 736 360 l 2,12,13
 736 225 736 225 703 150 c 256,14,15
 670 75 670 75 598 38 c 1,16,17
 525 -1 525 -1 429 -1 c 0,18,19
 358 -1 358 -1 304 20.5 c 128,-1,20
 250 42 250 42 212.5 83.5 c 128,-1,21
 175 125 175 125 155.5 185.5 c 128,-1,22
 136 246 136 246 135 322 c 1,23,-1
 262 338 l 1,0,1
EndSplineSet
Validated: 1
EndChar

StartChar: eK
Encoding: 75 75 47
Width: 1046
GlyphClass: 2
Flags: W
LayerCount: 2
Fore
SplineSet
135 1 m 5,0,-1
 135 1078 l 5,1,-1
 277 1078 l 5,2,-1
 277 539 l 5,3,4
 316 577 316 577 361 622 c 132,-1,5
 406 667 406 667 454 713.5 c 132,-1,6
 502 760 502 760 551.5 808.5 c 132,-1,7
 601 857 601 857 649.5 904 c 132,-1,8
 698 951 698 951 743 995 c 132,-1,9
 788 1039 788 1039 827 1078 c 5,10,-1
 1021 1078 l 5,11,-1
 560 642 l 5,12,13
 680 481 680 481 800 321.5 c 132,-1,14
 920 162 920 162 1042 1 c 5,15,-1
 853 1 l 5,16,-1
 460 548 l 5,17,-1
 277 373 l 5,18,-1
 277 1 l 5,19,-1
 135 1 l 5,0,-1
EndSplineSet
Validated: 1
EndChar

StartChar: eL
Encoding: 76 76 48
Width: 824
GlyphClass: 2
Flags: W
LayerCount: 2
Fore
SplineSet
135 3 m 5,0,-1
 135 1080 l 5,1,-1
 276 1080 l 5,2,-1
 276 127 l 5,3,-1
 819 127 l 5,4,-1
 819 3 l 5,5,-1
 135 3 l 5,0,-1
EndSplineSet
Validated: 1
EndChar

StartChar: eM
Encoding: 77 77 49
Width: 1187
GlyphClass: 2
Flags: W
LayerCount: 2
Fore
SplineSet
135 4 m 1,0,-1
 135 1081 l 1,1,-1
 350 1081 l 1,2,3
 414 894 414 894 481 699 c 128,-1,4
 548 504 548 504 611 317 c 0,5,6
 629 263 629 263 643.5 220 c 128,-1,7
 658 177 658 177 666 151 c 1,8,9
 676 179 676 179 691.5 226.5 c 128,-1,10
 707 274 707 274 727 330 c 0,11,12
 793 517 793 517 859 706 c 128,-1,13
 925 895 925 895 991 1081 c 1,14,-1
 1183 1081 l 1,15,-1
 1183 4 l 1,16,-1
 1047 4 l 1,17,-1
 1047 907 l 1,18,-1
 1042 908 l 1,19,20
 963 683 963 683 882 456 c 128,-1,21
 801 229 801 229 722 4 c 1,22,-1
 595 4 l 1,23,-1
 276 923 l 1,24,-1
 272 922 l 1,25,-1
 272 4 l 1,26,-1
 135 4 l 1,0,-1
EndSplineSet
Validated: 1
EndChar

StartChar: eN
Encoding: 78 78 50
Width: 1004
GlyphClass: 2
Flags: W
LayerCount: 2
Fore
SplineSet
135 4 m 1,0,-1
 135 1081 l 1,1,-1
 282 1081 l 1,2,-1
 864 229 l 1,3,-1
 864 1081 l 1,4,-1
 1000 1081 l 1,5,-1
 1000 4 l 1,6,-1
 853 4 l 1,7,-1
 271 857 l 1,8,-1
 271 4 l 1,9,-1
 135 4 l 1,0,-1
EndSplineSet
Validated: 1
EndChar

StartChar: eO
Encoding: 79 79 51
Width: 1190
GlyphClass: 2
Flags: W
LayerCount: 2
Fore
SplineSet
135 548 m 0,0,1
 135 817 135 817 282 968 c 0,2,3
 430 1119 430 1119 661 1119 c 0,4,5
 812 1119 812 1119 934 1048 c 256,6,7
 1056 977 1056 977 1120 849 c 0,8,9
 1185 721 1185 721 1185 560 c 0,10,11
 1185 395 1185 395 1118 266 c 1,12,13
 1084 203 1084 203 1035 153.5 c 128,-1,14
 986 104 986 104 927 71 c 1,15,16
 866 39 866 39 798 21.5 c 128,-1,17
 730 4 730 4 660 4 c 0,18,19
 506 4 506 4 383 78 c 0,20,21
 322 115 322 115 276 165 c 128,-1,22
 230 215 230 215 198 278 c 0,23,24
 135 405 135 405 135 548 c 0,0,1
281 545 m 0,25,26
 281 349 281 349 388 236 c 1,27,28
 497 123 497 123 659 123 c 0,29,30
 826 123 826 123 932 238 c 1,31,32
 1039 352 1039 352 1039 560 c 0,33,34
 1039 626 1039 626 1026.5 683.5 c 128,-1,35
 1014 741 1014 741 991 790 c 128,-1,36
 968 839 968 839 935 878 c 128,-1,37
 902 917 902 917 860 944 c 0,38,39
 772 1000 772 1000 662 1000 c 0,40,41
 585 1000 585 1000 516.5 972 c 128,-1,42
 448 944 448 944 393 893 c 1,43,44
 340 841 340 841 310.5 753 c 128,-1,45
 281 665 281 665 281 545 c 0,25,26
EndSplineSet
Validated: 1
EndChar

StartChar: eP
Encoding: 80 80 52
Width: 977
GlyphClass: 2
Flags: W
LayerCount: 2
Fore
SplineSet
135 4 m 1,0,-1
 135 1081 l 1,1,-1
 549 1081 l 2,2,3
 603 1081 603 1081 645 1078.5 c 128,-1,4
 687 1076 687 1076 716 1071 c 0,5,6
 797 1057 797 1057 850.5 1020 c 128,-1,7
 904 983 904 983 938 916 c 1,8,9
 956 883 956 883 964.5 846.5 c 128,-1,10
 973 810 973 810 973 770 c 0,11,12
 973 634 973 634 884 538 c 1,13,14
 794 443 794 443 562 443 c 2,15,-1
 277 443 l 1,16,-1
 277 4 l 1,17,-1
 135 4 l 1,0,-1
277 568 m 1,18,-1
 564 568 l 2,19,20
 706 568 706 568 766 619 c 1,21,22
 826 672 826 672 826 766 c 0,23,24
 826 835 826 835 791 883 c 128,-1,25
 756 931 756 931 698 947 c 0,26,27
 662 957 662 957 561 957 c 2,28,-1
 277 957 l 1,29,-1
 277 568 l 1,18,-1
EndSplineSet
Validated: 1
EndChar

StartChar: eQ
Encoding: 81 81 53
Width: 1210
GlyphClass: 2
Flags: W
LayerCount: 2
Fore
SplineSet
1019 134 m 1,0,1
 1070 101 1070 101 1116 76.5 c 128,-1,2
 1162 52 1162 52 1205 35 c 1,3,4
 1195 11 1195 11 1184.5 -13 c 128,-1,5
 1174 -37 1174 -37 1164 -61 c 1,6,7
 1048 -21 1048 -21 929 71 c 1,8,9
 807 3 807 3 658 3 c 256,10,11
 509 3 509 3 388 74 c 0,12,13
 327 110 327 110 280.5 159.5 c 128,-1,14
 234 209 234 209 200 272 c 1,15,16
 170 335 170 335 152.5 409.5 c 128,-1,17
 135 484 135 484 135 560 c 0,18,19
 135 721 135 721 201 851 c 0,20,21
 235 916 235 916 282 966 c 128,-1,22
 329 1016 329 1016 388 1050 c 1,23,24
 448 1083 448 1083 517 1100.5 c 128,-1,25
 586 1118 586 1118 661 1118 c 0,26,27
 812 1118 812 1118 934 1047 c 0,28,29
 1056 977 1056 977 1120 849 c 0,30,31
 1185 721 1185 721 1185 561 c 0,32,33
 1185 294 1185 294 1019 137 c 1,34,-1
 1019 134 l 1,0,1
702 317 m 1,35,36
 826 283 826 283 908 214 c 1,37,38
 1039 331 1039 331 1039 561 c 0,39,40
 1039 626 1039 626 1026.5 683.5 c 128,-1,41
 1014 741 1014 741 991 789.5 c 128,-1,42
 968 838 968 838 935 877 c 128,-1,43
 902 916 902 916 860 944 c 1,44,45
 772 999 772 999 662 999 c 0,46,47
 498 999 498 999 389 888 c 0,48,49
 281 778 281 778 281 560 c 0,50,51
 281 350 281 350 388 236 c 256,52,53
 495 122 495 122 662 122 c 0,54,55
 739 122 739 122 813 152 c 1,56,57
 741 197 741 197 668 216 c 1,58,-1
 702 317 l 1,35,36
EndSplineSet
Validated: 1
EndChar

StartChar: eR
Encoding: 82 82 54
Width: 1106
GlyphClass: 2
Flags: W
LayerCount: 2
Fore
SplineSet
135 4 m 1,0,-1
 135 1081 l 1,1,-1
 622 1081 l 2,2,3
 770 1081 770 1081 845 1052 c 0,4,5
 920 1024 920 1024 966 950 c 1,6,7
 1012 874 1012 874 1012 788 c 0,8,9
 1012 673 1012 673 937 595 c 0,10,11
 899 556 899 556 840 530.5 c 128,-1,12
 781 505 781 505 698 495 c 1,13,14
 730 480 730 480 753 466 c 128,-1,15
 776 452 776 452 790 439 c 0,16,17
 820 412 820 412 852 374.5 c 128,-1,18
 884 337 884 337 910 295 c 1,19,20
 958 222 958 222 1006 149.5 c 128,-1,21
 1054 77 1054 77 1101 4 c 1,22,-1
 922 4 l 1,23,-1
 778 228 l 2,24,25
 746 278 746 278 720 314.5 c 128,-1,26
 694 351 694 351 672 377 c 128,-1,27
 650 403 650 403 632 420.5 c 128,-1,28
 614 438 614 438 597 449.5 c 128,-1,29
 580 461 580 461 564 467.5 c 128,-1,30
 548 474 548 474 530 478 c 0,31,32
 507 484 507 484 448 484 c 2,33,-1
 277 484 l 1,34,-1
 277 4 l 1,35,-1
 135 4 l 1,0,-1
277 604 m 1,36,-1
 592 604 l 2,37,38
 643 604 643 604 682 608.5 c 128,-1,39
 721 613 721 613 750.5 624 c 128,-1,40
 780 635 780 635 801 651 c 128,-1,41
 822 667 822 667 837 690 c 0,42,43
 866 735 866 735 866 788 c 0,44,45
 866 864 866 864 808 914 c 1,46,47
 780 940 780 940 734 952.5 c 128,-1,48
 688 965 688 965 628 965 c 2,49,-1
 277 965 l 1,50,-1
 277 604 l 1,36,-1
EndSplineSet
Validated: 1
EndChar

StartChar: eS
Encoding: 83 83 55
Width: 1013
GlyphClass: 2
Flags: W
LayerCount: 2
Fore
SplineSet
268 377 m 1,0,1
 273 336 273 336 284.5 303.5 c 128,-1,2
 296 271 296 271 314.5 245 c 128,-1,3
 333 219 333 219 360.5 198 c 128,-1,4
 388 177 388 177 426 160 c 0,5,6
 501 128 501 128 596 128 c 1,7,8
 661 127 661 127 712.5 141.5 c 128,-1,9
 764 156 764 156 800 182 c 128,-1,10
 836 208 836 208 855 242 c 128,-1,11
 874 276 874 276 872 313 c 1,12,13
 872 364 872 364 840 403 c 128,-1,14
 808 442 808 442 742 468 c 1,15,16
 718 476 718 476 668.5 489.5 c 128,-1,17
 619 503 619 503 545 520 c 0,18,19
 468 538 468 538 415.5 554.5 c 128,-1,20
 363 571 363 571 332 588 c 0,21,22
 254 628 254 628 215.5 687.5 c 128,-1,23
 177 747 177 747 177 821 c 0,24,25
 177 900 177 900 225 973 c 128,-1,26
 273 1046 273 1046 362 1080 c 1,27,28
 454 1117 454 1117 563 1117 c 0,29,30
 685 1117 685 1117 778 1079 c 128,-1,31
 871 1041 871 1041 921 966 c 0,32,33
 972 889 972 889 975 798 c 1,34,35
 940 796 940 796 907 793 c 128,-1,36
 874 790 874 790 840 787 c 1,37,38
 828 889 828 889 762 942 c 128,-1,39
 696 995 696 995 569 995 c 0,40,41
 435 995 435 995 374.5 946.5 c 128,-1,42
 314 898 314 898 314 831 c 0,43,44
 314 802 314 802 325 778 c 128,-1,45
 336 754 336 754 357 735 c 0,46,47
 379 715 379 715 434.5 695.5 c 128,-1,48
 490 676 490 676 578 656 c 0,49,50
 664 636 664 636 726 619 c 128,-1,51
 788 602 788 602 822 588 c 1,52,53
 916 544 916 544 962.5 477.5 c 128,-1,54
 1009 411 1009 411 1009 325.5 c 128,-1,55
 1009 240 1009 240 958 163 c 0,56,57
 932 124 932 124 897 95 c 128,-1,58
 862 66 862 66 814 45 c 0,59,60
 721 3 721 3 603 3 c 0,61,62
 453 3 453 3 353.5 45.5 c 128,-1,63
 254 88 254 88 195 174 c 1,64,-1
 196 174 l 1,65,66
 166 217 166 217 151 264.5 c 128,-1,67
 136 312 136 312 135 366 c 1,68,-1
 268 377 l 1,0,1
EndSplineSet
Validated: 33
EndChar

StartChar: eT
Encoding: 84 84 56
Width: 1009
GlyphClass: 2
Flags: W
LayerCount: 2
Fore
SplineSet
499 3 m 1,0,-1
 499 956 l 1,1,-1
 135 956 l 1,2,-1
 135 1080 l 1,3,-1
 1004 1080 l 1,4,-1
 1004 956 l 1,5,-1
 640 956 l 1,6,-1
 640 3 l 1,7,-1
 499 3 l 1,0,-1
EndSplineSet
Validated: 1
EndChar

StartChar: eU
Encoding: 85 85 57
Width: 1003
GlyphClass: 2
Flags: W
LayerCount: 2
Fore
SplineSet
856 1090 m 1,0,-1
 998 1090 l 1,1,-1
 998 468 l 2,2,3
 998 305 998 305 960 210 c 0,4,5
 941 161 941 161 907.5 122.5 c 128,-1,6
 874 84 874 84 825 54 c 0,7,8
 727 -6 727 -6 569 -6 c 0,9,10
 494 -6 494 -6 431.5 8 c 128,-1,11
 369 22 369 22 320 48.5 c 128,-1,12
 271 75 271 75 235.5 112.5 c 128,-1,13
 200 150 200 150 178 197 c 1,14,15
 157 247 157 247 146 315 c 128,-1,16
 135 383 135 383 135 468 c 2,17,-1
 135 1090 l 1,18,-1
 277 1090 l 1,19,-1
 277 468 l 2,20,21
 277 328 277 328 303 259 c 1,22,23
 329 193 329 193 395 156 c 0,24,25
 460 120 460 120 556 120 c 0,26,27
 718 120 718 120 788 192 c 1,28,29
 856 264 856 264 856 468 c 2,30,-1
 856 1090 l 1,0,-1
EndSplineSet
Validated: 1
EndChar

StartChar: eV
Encoding: 86 86 58
Width: 1142
GlyphClass: 2
Flags: W
LayerCount: 2
Fore
SplineSet
562 3 m 5,0,1
 454 273 454 273 348 541.5 c 132,-1,2
 242 810 242 810 135 1080 c 5,3,-1
 288 1080 l 5,4,-1
 574 296 l 6,5,6
 592 249 592 249 607 201 c 132,-1,7
 622 153 622 153 634 111 c 5,8,9
 647 156 647 156 663 204 c 132,-1,10
 679 252 679 252 696 296 c 4,11,12
 770 492 770 492 845 688.5 c 132,-1,13
 920 885 920 885 994 1080 c 5,14,-1
 1138 1080 l 5,15,16
 1030 813 1030 813 922 541.5 c 132,-1,17
 814 270 814 270 706 3 c 5,18,-1
 562 3 l 5,0,1
EndSplineSet
Validated: 1
EndChar

StartChar: eW
Encoding: 87 87 59
Width: 1551
GlyphClass: 2
Flags: W
LayerCount: 2
Fore
SplineSet
427 3 m 5,0,1
 353 273 353 273 280.5 541.5 c 132,-1,2
 208 810 208 810 135 1080 c 5,3,-1
 279 1080 l 5,4,-1
 447 373 l 6,5,6
 460 317 460 317 472 262 c 132,-1,7
 484 207 484 207 494 152 c 5,8,-1
 498 152 l 5,9,10
 539 323 539 323 548 351 c 4,11,12
 600 533 600 533 653 716 c 132,-1,13
 706 899 706 899 758 1080 c 5,14,-1
 929 1080 l 5,15,-1
 1087 534 l 6,16,17
 1117 431 1117 431 1138.5 336.5 c 132,-1,18
 1160 242 1160 242 1173 152 c 5,19,-1
 1178 152 l 5,20,21
 1188 204 1188 204 1201.5 262 c 132,-1,22
 1215 320 1215 320 1232 387 c 4,23,24
 1275 562 1275 562 1318.5 734 c 132,-1,25
 1362 906 1362 906 1405 1080 c 5,26,-1
 1546 1080 l 5,27,28
 1472 816 1472 816 1395.5 541.5 c 132,-1,29
 1319 267 1319 267 1245 3 c 5,30,-1
 1108 3 l 5,31,-1
 876 825 l 6,32,33
 861 876 861 876 852.5 908 c 132,-1,34
 844 940 844 940 842 952 c 5,35,-1
 837 952 l 5,36,37
 829 915 829 915 820.5 883 c 132,-1,38
 812 851 812 851 805 825 c 4,39,40
 748 623 748 623 688 414 c 132,-1,41
 628 205 628 205 571 3 c 5,42,-1
 427 3 l 5,0,1
EndSplineSet
Validated: 1
EndChar

StartChar: eX
Encoding: 88 88 60
Width: 1145
GlyphClass: 2
Flags: W
LayerCount: 2
Fore
SplineSet
135 2 m 5,0,-1
 561 563 l 5,1,2
 467 693 467 693 373 821 c 132,-1,3
 279 949 279 949 185 1079 c 5,4,-1
 356 1079 l 5,5,6
 404 1012 404 1012 455 941 c 132,-1,7
 506 870 506 870 555 803 c 4,8,9
 584 763 584 763 607 727.5 c 132,-1,10
 630 692 630 692 645 666 c 5,11,12
 667 700 667 700 688.5 732 c 132,-1,13
 710 764 710 764 734 794 c 4,14,15
 788 863 788 863 844.5 936.5 c 132,-1,16
 901 1010 901 1010 955 1079 c 5,17,-1
 1110 1079 l 5,18,-1
 723 572 l 5,19,20
 828 428 828 428 931.5 286.5 c 132,-1,21
 1035 145 1035 145 1140 2 c 5,22,-1
 963 2 l 5,23,24
 896 94 896 94 824.5 193.5 c 132,-1,25
 753 293 753 293 686 386 c 4,26,27
 674 403 674 403 662 423 c 132,-1,28
 650 443 650 443 637 463 c 5,29,30
 619 434 619 434 605 411.5 c 132,-1,31
 591 389 591 389 583 377 c 4,32,33
 514 285 514 285 444 189.5 c 132,-1,34
 374 94 374 94 307 2 c 5,35,-1
 135 2 l 5,0,-1
EndSplineSet
Validated: 1
EndChar

StartChar: eY
Encoding: 89 89 61
Width: 1145
GlyphClass: 2
Flags: W
LayerCount: 2
Fore
SplineSet
560 3 m 5,0,-1
 560 459 l 5,1,2
 452 614 452 614 347 769 c 132,-1,3
 242 924 242 924 135 1080 c 5,4,-1
 308 1080 l 5,5,6
 362 1001 362 1001 416.5 917.5 c 132,-1,7
 471 834 471 834 525 756 c 5,8,9
 555 709 555 709 584 662 c 132,-1,10
 613 615 613 615 639 569 c 5,11,12
 663 611 663 611 694.5 661 c 132,-1,13
 726 711 726 711 761 763 c 4,14,15
 814 841 814 841 868 921.5 c 132,-1,16
 922 1002 922 1002 974 1080 c 5,17,-1
 1140 1080 l 5,18,-1
 700 459 l 5,19,-1
 700 3 l 5,20,-1
 560 3 l 5,0,-1
EndSplineSet
Validated: 1
EndChar

StartChar: eZ
Encoding: 90 90 62
Width: 1007
GlyphClass: 2
Flags: W
LayerCount: 2
Fore
SplineSet
136 3 m 1,0,-1
 136 133 l 1,1,-1
 135 132 l 1,2,-1
 700 825 l 2,3,4
 730 863 730 863 759 895 c 128,-1,5
 788 927 788 927 817 956 c 1,6,-1
 200 956 l 1,7,-1
 200 1080 l 1,8,-1
 985 1080 l 1,9,-1
 985 954 l 1,10,-1
 986 955 l 1,11,12
 835 771 835 771 676.5 580.5 c 128,-1,13
 518 390 518 390 367 206 c 1,14,-1
 298 127 l 1,15,-1
 1003 127 l 1,16,-1
 1003 3 l 1,17,-1
 136 3 l 1,0,-1
EndSplineSet
Validated: 1
EndChar

StartChar: asbl
Encoding: 91 91 63
Width: 434
GlyphClass: 2
Flags: W
LayerCount: 2
Fore
SplineSet
135 -311 m 1,0,-1
 135 1069 l 1,1,-1
 429 1069 l 1,2,-1
 429 962 l 1,3,-1
 266 962 l 1,4,-1
 266 -204 l 1,5,-1
 429 -204 l 1,6,-1
 429 -311 l 1,7,-1
 135 -311 l 1,0,-1
EndSplineSet
Validated: 1
EndChar

StartChar: abs
Encoding: 92 92 64
Width: 563
GlyphClass: 2
Flags: W
LayerCount: 2
Fore
SplineSet
454 3 m 1,0,1
 375 284 375 284 295 561 c 128,-1,2
 215 838 215 838 135 1119 c 1,3,-1
 239 1119 l 1,4,-1
 558 3 l 1,5,-1
 454 3 l 1,0,1
EndSplineSet
Validated: 1
EndChar

StartChar: asbr
Encoding: 93 93 65
Width: 434
GlyphClass: 2
Flags: W
LayerCount: 2
Fore
SplineSet
429 -313 m 1,0,-1
 135 -313 l 1,1,-1
 135 -206 l 1,2,-1
 298 -206 l 1,3,-1
 298 960 l 1,4,-1
 135 960 l 1,5,-1
 135 1067 l 1,6,-1
 429 1067 l 1,7,-1
 429 -313 l 1,0,-1
EndSplineSet
Validated: 1
EndChar

StartChar: acir
Encoding: 94 94 66
Width: 776
GlyphClass: 2
Flags: W
LayerCount: 2
Fore
SplineSet
269 637 m 1,0,-1
 135 637 l 1,1,2
 200 780 200 780 268 931 c 128,-1,3
 336 1082 336 1082 400 1225 c 1,4,-1
 505 1225 l 1,5,6
 572 1077 572 1077 638.5 931 c 128,-1,7
 705 785 705 785 772 637 c 1,8,-1
 640 637 l 1,9,-1
 452 1082 l 1,10,-1
 269 637 l 1,0,-1
EndSplineSet
Validated: 1
EndChar

StartChar: aus
Encoding: 95 95 67
Width: 1033
GlyphClass: 2
Flags: W
LayerCount: 2
Fore
SplineSet
135 -94 m 1,0,-1
 135 -1 l 1,1,-1
 1028 -1 l 1,2,-1
 1028 -94 l 1,3,-1
 135 -94 l 1,0,-1
EndSplineSet
Validated: 1
EndChar

StartChar: agrv
Encoding: 96 96 68
Width: 415
GlyphClass: 2
Flags: W
LayerCount: 2
Fore
SplineSet
410 1069 m 1,0,-1
 306 1069 l 1,1,2
 262 1120 262 1120 220 1170.5 c 128,-1,3
 178 1221 178 1221 135 1273 c 1,4,-1
 310 1273 l 1,5,-1
 410 1069 l 1,0,-1
EndSplineSet
Validated: 1
EndChar

StartChar: ea
Encoding: 97 97 69
Width: 870
GlyphClass: 2
Flags: W
LayerCount: 2
Fore
SplineSet
699 103 m 1,0,1
 661 72 661 72 625.5 49.5 c 128,-1,2
 590 27 590 27 554 15 c 1,3,4
 484 -11 484 -11 406 -11 c 0,5,6
 275 -11 275 -11 206 51 c 1,7,8
 135 113 135 113 135 212 c 0,9,10
 135 256 135 256 150.5 293 c 128,-1,11
 166 330 166 330 192 358.5 c 128,-1,12
 218 387 218 387 253 406.5 c 128,-1,13
 288 426 288 426 328 435 c 0,14,15
 347 440 347 440 378.5 445 c 128,-1,16
 410 450 410 450 448 456 c 1,17,18
 528 465 528 465 590 476.5 c 128,-1,19
 652 488 652 488 692 503 c 1,20,21
 692 516 692 516 692 525 c 2,22,-1
 692 538 l 2,23,24
 692 618 692 618 653 653 c 1,25,26
 627 674 627 674 587.5 686 c 128,-1,27
 548 698 548 698 497 698 c 0,28,29
 451 698 451 698 414 689 c 128,-1,30
 377 680 377 680 354 665 c 1,31,32
 308 632 308 632 286 550 c 1,33,34
 254 554 254 554 222.5 558 c 128,-1,35
 191 562 191 562 158 566 c 1,36,37
 176 648 176 648 218 699.5 c 128,-1,38
 260 751 260 751 336 777 c 0,39,40
 415 805 415 805 517 805 c 128,-1,41
 619 805 619 805 682.5 781.5 c 128,-1,42
 746 758 746 758 776 723 c 0,43,44
 790 707 790 707 801 682.5 c 128,-1,45
 812 658 812 658 818 633 c 1,46,47
 820 616 820 616 822 584.5 c 128,-1,48
 824 553 824 553 824 511 c 2,49,-1
 824 334 l 2,50,51
 824 241 824 241 826.5 183 c 128,-1,52
 829 125 829 125 832 99 c 1,53,54
 836 75 836 75 845 51.5 c 128,-1,55
 854 28 854 28 866 7 c 1,56,-1
 729 7 l 1,57,58
 719 26 719 26 712.5 51.5 c 128,-1,59
 706 77 706 77 703 102 c 1,60,-1
 699 103 l 1,0,1
692 402 m 1,61,62
 652 386 652 386 596.5 373 c 128,-1,63
 541 360 541 360 468 350 c 0,64,65
 382 338 382 338 349 324 c 0,66,67
 314 309 314 309 294 279 c 1,68,-1
 295 279 l 1,69,70
 275 251 275 251 275 216 c 0,71,72
 275 189 275 189 285.5 166 c 128,-1,73
 296 143 296 143 317 126 c 128,-1,74
 338 109 338 109 368 99.5 c 128,-1,75
 398 90 398 90 439 90 c 0,76,77
 478 90 478 90 514 99 c 128,-1,78
 550 108 550 108 579.5 124 c 128,-1,79
 609 140 609 140 632.5 163.5 c 128,-1,80
 656 187 656 187 670 216 c 0,81,82
 692 263 692 263 692 350 c 2,83,-1
 692 402 l 1,61,62
EndSplineSet
Validated: 1
EndChar

StartChar: eb
Encoding: 98 98 70
Width: 829
GlyphClass: 2
Flags: W
LayerCount: 2
Fore
SplineSet
256 4 m 1,0,-1
 135 4 l 1,1,-1
 135 1083 l 1,2,-1
 266 1083 l 1,3,-1
 266 693 l 1,4,5
 355 802 355 802 488 802 c 0,6,7
 562 802 562 802 627 773.5 c 128,-1,8
 692 745 692 745 734 692 c 256,9,10
 776 639 776 639 800 565 c 128,-1,11
 824 491 824 491 824 406 c 0,12,13
 824 204 824 204 723 95 c 0,14,15
 621 -14 621 -14 481 -14 c 0,16,17
 410 -14 410 -14 354 16 c 128,-1,18
 298 46 298 46 256 107 c 1,19,-1
 256 4 l 1,0,-1
255 400 m 0,20,21
 255 260 255 260 294 196 c 1,22,23
 327 145 327 145 371 118.5 c 128,-1,24
 415 92 415 92 470 92 c 0,25,26
 560 92 560 92 625 169 c 0,27,28
 690 245 690 245 690 395 c 0,29,30
 690 548 690 548 627 622 c 0,31,32
 565 696 565 696 475.5 696 c 128,-1,33
 386 696 386 696 320 619 c 0,34,35
 255 542 255 542 255 400 c 0,20,21
EndSplineSet
Validated: 1
EndChar

StartChar: ec
Encoding: 99 99 71
Width: 832
GlyphClass: 2
Flags: W
LayerCount: 2
Fore
SplineSet
827 274 m 5,0,1
 806 141 806 141 716 65 c 4,2,3
 627 -11 627 -11 496 -11 c 4,4,5
 333 -11 333 -11 234 93 c 132,-1,6
 135 197 135 197 135 395 c 4,7,8
 135 458 135 458 145.5 513.5 c 132,-1,9
 156 569 156 569 177.5 616 c 132,-1,10
 199 663 199 663 231 698.5 c 132,-1,11
 263 734 263 734 307 758 c 4,12,13
 395 805 395 805 497 805 c 4,14,15
 561 805 561 805 614 788.5 c 132,-1,16
 667 772 667 772 707.5 740.5 c 132,-1,17
 748 709 748 709 775 663 c 132,-1,18
 802 617 802 617 814 560 c 5,19,20
 782 555 782 555 750 550.5 c 132,-1,21
 718 546 718 546 686 542 c 5,22,23
 667 619 667 619 619.5 659 c 132,-1,24
 572 699 572 699 502 699 c 4,25,26
 451 699 451 699 409.5 681 c 132,-1,27
 368 663 368 663 334 626 c 4,28,29
 270 554 270 554 270 398 c 4,30,31
 270 240 270 240 332 168 c 4,32,33
 395 95 395 95 495 95 c 4,34,35
 576 95 576 95 630 143 c 132,-1,36
 684 191 684 191 698 291 c 5,37,-1
 827 274 l 5,0,1
EndSplineSet
Validated: 1
EndChar

StartChar: ed
Encoding: 100 100 72
Width: 829
GlyphClass: 2
Flags: W
LayerCount: 2
Fore
SplineSet
703 4 m 5,0,-1
 703 109 l 5,1,2
 624 -14 624 -14 477 -14 c 4,3,4
 382 -14 382 -14 302 38 c 4,5,6
 224 88 224 88 178 181 c 5,7,8
 135 273 135 273 135 393 c 4,9,10
 135 509 135 509 175 605 c 4,11,12
 216 701 216 701 294 752 c 5,13,14
 374 802 374 802 471 802 c 4,15,16
 543 802 543 802 600 771 c 132,-1,17
 657 740 657 740 694 690 c 5,18,-1
 694 1083 l 5,19,-1
 824 1083 l 5,20,-1
 824 4 l 5,21,-1
 703 4 l 5,0,-1
270 393 m 4,22,23
 270 243 270 243 335 168 c 4,24,25
 401 92 401 92 490 92 c 4,26,27
 580 92 580 92 642 164 c 4,28,29
 705 237 705 237 705 383 c 4,30,31
 705 543 705 543 641 619 c 260,32,33
 577 695 577 695 484 695 c 4,34,35
 393 695 393 695 331 622 c 4,36,37
 270 549 270 549 270 393 c 4,22,23
EndSplineSet
Validated: 1
EndChar

StartChar: ee
Encoding: 101 101 73
Width: 872
GlyphClass: 2
Flags: W
LayerCount: 2
Fore
SplineSet
862 242 m 1,0,1
 829 122 829 122 740.5 57 c 128,-1,2
 652 -8 652 -8 514 -8 c 0,3,4
 339 -8 339 -8 237 97 c 128,-1,5
 135 202 135 202 135 394 c 0,6,7
 135 494 135 494 161 569.5 c 128,-1,8
 187 645 187 645 238 700 c 0,9,10
 340 808 340 808 506 808 c 0,11,12
 666 808 666 808 766 702 c 0,13,14
 868 595 868 595 868 402 c 2,15,-1
 868 388 l 1,16,-1
 867 368 l 1,17,-1
 271 368 l 1,18,19
 278 237 278 237 346 168 c 1,20,21
 413 98 413 98 514 98 c 0,22,23
 590 98 590 98 643 137 c 128,-1,24
 696 176 696 176 728 259 c 1,25,-1
 862 242 l 1,0,1
729 474 m 1,26,27
 720 574 720 574 677 624 c 0,28,29
 611 702 611 702 508 702 c 0,30,31
 460 702 460 702 421 686.5 c 128,-1,32
 382 671 382 671 349 640 c 0,33,34
 285 580 285 580 278 474 c 1,35,-1
 729 474 l 1,26,27
EndSplineSet
Validated: 1
EndChar

StartChar: ef
Encoding: 102 102 74
Width: 603
GlyphClass: 2
Flags: W
LayerCount: 2
Fore
SplineSet
255 3 m 1,0,-1
 255 683 l 1,1,-1
 135 683 l 1,2,-1
 135 784 l 1,3,-1
 255 784 l 1,4,-1
 255 868 l 2,5,6
 255 945 255 945 269 985 c 1,7,8
 279 1009 279 1009 296.5 1030 c 128,-1,9
 314 1051 314 1051 339 1067 c 128,-1,10
 364 1083 364 1083 397.5 1091.5 c 128,-1,11
 431 1100 431 1100 474 1100 c 0,12,13
 502 1100 502 1100 533 1097 c 128,-1,14
 564 1094 564 1094 598 1088 c 1,15,16
 593 1059 593 1059 588.5 1031 c 128,-1,17
 584 1003 584 1003 579 975 c 1,18,19
 560 979 560 979 539 980.5 c 128,-1,20
 518 982 518 982 500 982 c 0,21,22
 439 982 439 982 412 955 c 0,23,24
 386 929 386 929 386 857 c 2,25,-1
 386 784 l 1,26,-1
 541 784 l 1,27,-1
 541 683 l 1,28,-1
 386 683 l 1,29,-1
 386 3 l 1,30,-1
 255 3 l 1,0,-1
EndSplineSet
Validated: 1
EndChar

StartChar: eg
Encoding: 103 103 75
Width: 840
GlyphClass: 2
Flags: W
LayerCount: 2
Fore
SplineSet
290 -99 m 1,0,1
 297 -158 297 -158 336 -186 c 0,2,3
 387 -223 387 -223 476 -223 c 0,4,5
 571 -223 571 -223 622.5 -186 c 128,-1,6
 674 -149 674 -149 692 -82 c 0,7,8
 697 -63 697 -63 699.5 -26.5 c 128,-1,9
 702 10 702 10 702 68 c 2,10,-1
 702 94 l 1,11,12
 610 -12 610 -12 478 -12 c 0,13,14
 315 -12 315 -12 225 104 c 0,15,16
 135 219 135 219 135 382 c 0,17,18
 135 438 135 438 145 490 c 128,-1,19
 155 542 155 542 176 589 c 0,20,21
 220 684 220 684 296 735 c 0,22,23
 334 760 334 760 381 773 c 128,-1,24
 428 786 428 786 479 786 c 0,25,26
 620 786 620 786 715 670 c 1,27,-1
 715 769 l 1,28,-1
 836 769 l 1,29,-1
 836 93 l 2,30,31
 836 -90 836 -90 797 -166 c 256,32,33
 758 -242 758 -242 678 -286 c 0,34,35
 596 -330 596 -330 476 -330 c 0,36,37
 334 -330 334 -330 247 -266 c 1,38,39
 203 -235 203 -235 181.5 -188.5 c 128,-1,40
 160 -142 160 -142 162 -80 c 1,41,-1
 290 -99 l 1,0,1
270 392 m 0,42,43
 270 238 270 238 333 166 c 0,44,45
 364 130 364 130 404 112.5 c 128,-1,46
 444 95 444 95 491 95 c 0,47,48
 586 95 586 95 650 166 c 0,49,50
 713 237 713 237 713 388 c 0,51,52
 713 459 713 459 696 513.5 c 128,-1,53
 679 568 679 568 647 605 c 0,54,55
 615 641 615 641 575 660.5 c 128,-1,56
 535 680 535 680 489 680 c 0,57,58
 398 680 398 680 334 606 c 1,59,60
 270 534 270 534 270 392 c 0,42,43
EndSplineSet
Validated: 33
EndChar

StartChar: eh
Encoding: 104 104 76
Width: 787
GlyphClass: 2
Flags: W
LayerCount: 2
Fore
SplineSet
135 3 m 1,0,-1
 135 1082 l 1,1,-1
 266 1082 l 1,2,-1
 266 690 l 1,3,4
 364 801 364 801 508 801 c 0,5,6
 596 801 596 801 660.5 767 c 128,-1,7
 725 733 725 733 754 673 c 1,8,9
 782 611 782 611 782 499 c 2,10,-1
 782 3 l 1,11,-1
 651 3 l 1,12,-1
 651 499 l 2,13,14
 651 598 651 598 606.5 644 c 128,-1,15
 562 690 562 690 480 690 c 0,16,17
 419 690 419 690 365 658 c 1,18,-1
 366 658 l 1,19,20
 311 628 311 628 289 575 c 1,21,22
 266 523 266 523 266 430 c 2,23,-1
 266 3 l 1,24,-1
 135 3 l 1,0,-1
EndSplineSet
Validated: 1
EndChar

StartChar: ei
Encoding: 105 105 77
Width: 271
GlyphClass: 2
Flags: W
LayerCount: 2
Fore
SplineSet
135 930 m 1,0,-1
 135 1080 l 1,1,-1
 266 1080 l 1,2,-1
 266 930 l 1,3,-1
 135 930 l 1,0,-1
135 1 m 1,4,-1
 135 782 l 1,5,-1
 266 782 l 1,6,-1
 266 1 l 1,7,-1
 135 1 l 1,4,-1
EndSplineSet
Validated: 1
EndChar

StartChar: ej
Encoding: 106 106 78
Width: 443
GlyphClass: 2
Flags: W
LayerCount: 2
Fore
SplineSet
307 928 m 1,0,-1
 307 1079 l 1,1,-1
 438 1079 l 1,2,-1
 438 928 l 1,3,-1
 307 928 l 1,0,-1
160 -195 m 1,4,5
 179 -200 179 -200 195 -202 c 128,-1,6
 211 -204 211 -204 223 -204 c 0,7,8
 266 -204 266 -204 286 -176 c 0,9,10
 307 -147 307 -147 307 -41 c 2,11,-1
 307 781 l 1,12,-1
 438 781 l 1,13,-1
 438 -44 l 2,14,15
 438 -189 438 -189 400 -245 c 0,16,17
 352 -318 352 -318 239 -318 c 0,18,19
 213 -318 213 -318 186.5 -315.5 c 128,-1,20
 160 -313 160 -313 135 -305 c 1,21,-1
 160 -195 l 1,4,5
EndSplineSet
Validated: 1
EndChar

StartChar: ek
Encoding: 107 107 79
Width: 797
GlyphClass: 2
Flags: W
LayerCount: 2
Fore
SplineSet
135 3 m 1,0,-1
 135 1082 l 1,1,-1
 266 1082 l 1,2,-1
 266 462 l 1,3,4
 345 539 345 539 428 622 c 128,-1,5
 511 705 511 705 590 784 c 1,6,-1
 761 784 l 1,7,-1
 457 495 l 1,8,9
 542 371 542 371 625 249 c 128,-1,10
 708 127 708 127 793 3 c 1,11,-1
 630 3 l 1,12,-1
 365 405 l 1,13,-1
 266 313 l 1,14,-1
 266 3 l 1,15,-1
 135 3 l 1,0,-1
EndSplineSet
Validated: 1
EndChar

StartChar: el
Encoding: 108 108 80
Width: 271
GlyphClass: 2
Flags: W
LayerCount: 2
Fore
SplineSet
135 0 m 1,0,-1
 135 1079 l 1,1,-1
 266 1079 l 1,2,-1
 266 0 l 1,3,-1
 135 0 l 1,0,-1
EndSplineSet
Validated: 1
EndChar

StartChar: em
Encoding: 109 109 81
Width: 1218
GlyphClass: 2
Flags: W
LayerCount: 2
Fore
SplineSet
135 2 m 5,0,-1
 135 783 l 5,1,-1
 251 783 l 5,2,-1
 251 667 l 5,3,4
 292 727 292 727 354.5 763.5 c 132,-1,5
 417 800 417 800 496 800 c 4,6,7
 584 800 584 800 641 763.5 c 132,-1,8
 698 727 698 727 722 660 c 5,9,10
 818 800 818 800 969 800 c 4,11,12
 1088 800 1088 800 1151 736.5 c 132,-1,13
 1214 673 1214 673 1214 538 c 6,14,-1
 1214 2 l 5,15,-1
 1084 2 l 5,16,-1
 1084 495 l 6,17,18
 1084 574 1084 574 1070 609 c 5,19,20
 1058 644 1058 644 1022 667 c 5,21,22
 1004 677 1004 677 983.5 682.5 c 132,-1,23
 963 688 963 688 939 688 c 4,24,25
 853 688 853 688 797 632 c 4,26,27
 741 577 741 577 741 456 c 6,28,-1
 741 2 l 5,29,-1
 610 2 l 5,30,-1
 610 510 l 6,31,32
 610 599 610 599 576.5 643.5 c 132,-1,33
 543 688 543 688 466 688 c 4,34,35
 407 688 407 688 358 658 c 260,36,37
 309 628 309 628 288 572 c 4,38,39
 266 514 266 514 266 407 c 6,40,-1
 266 2 l 5,41,-1
 135 2 l 5,0,-1
EndSplineSet
Validated: 1
EndChar

StartChar: en
Encoding: 110 110 82
Width: 785
GlyphClass: 2
Flags: W
LayerCount: 2
Fore
SplineSet
135 0 m 1,0,-1
 135 781 l 1,1,-1
 253 781 l 1,2,-1
 253 664 l 1,3,4
 344 798 344 798 509 798 c 0,5,6
 580 798 580 798 641 772 c 1,7,8
 701 748 701 748 731 707 c 0,9,10
 746 688 746 688 756.5 661.5 c 128,-1,11
 767 635 767 635 773 610 c 0,12,13
 777 591 777 591 779 558.5 c 128,-1,14
 781 526 781 526 781 480 c 2,15,-1
 781 0 l 1,16,-1
 650 0 l 1,17,-1
 650 475 l 2,18,19
 650 514 650 514 645.5 545.5 c 128,-1,20
 641 577 641 577 634 597 c 1,21,22
 626 616 626 616 611 633 c 128,-1,23
 596 650 596 650 576.5 662 c 128,-1,24
 557 674 557 674 532.5 680 c 128,-1,25
 508 686 508 686 481 686 c 0,26,27
 394 686 394 686 329 632 c 1,28,29
 266 576 266 576 266 426 c 2,30,-1
 266 0 l 1,31,-1
 135 0 l 1,0,-1
EndSplineSet
Validated: 1
EndChar

StartChar: eo
Encoding: 111 111 83
Width: 884
GlyphClass: 2
Flags: W
LayerCount: 2
Fore
SplineSet
135 395 m 0,0,1
 135 502 135 502 167.5 583 c 128,-1,2
 200 664 200 664 258 717 c 1,3,4
 309 759 309 759 372.5 781 c 128,-1,5
 436 803 436 803 508 803 c 0,6,7
 670 803 670 803 776 698 c 0,8,9
 880 594 880 594 880 406 c 0,10,11
 880 256 880 256 833 169 c 1,12,13
 787 81 787 81 700 35 c 0,14,15
 611 -13 611 -13 508 -13 c 0,16,17
 342 -13 342 -13 238 92 c 0,18,19
 135 197 135 197 135 395 c 0,0,1
508 94 m 256,20,21
 610 94 610 94 677 170 c 1,22,23
 745 245 745 245 745 400 c 0,24,25
 745 471 745 471 727 526.5 c 128,-1,26
 709 582 709 582 676 620 c 256,27,28
 643 658 643 658 600.5 677 c 128,-1,29
 558 696 558 696 508 696 c 0,30,31
 406 696 406 696 338 621 c 256,32,33
 270 546 270 546 270 395 c 0,34,35
 270 245 270 245 338 169 c 0,36,37
 406 94 406 94 508 94 c 256,20,21
EndSplineSet
Validated: 1
EndChar

StartChar: ep
Encoding: 112 112 84
Width: 830
GlyphClass: 2
Flags: W
LayerCount: 2
Fore
SplineSet
135 -297 m 5,0,-1
 135 785 l 5,1,-1
 254 785 l 5,2,-1
 254 678 l 5,3,4
 299 740 299 740 354.5 771 c 132,-1,5
 410 802 410 802 488 802 c 4,6,7
 538 802 538 802 583 788.5 c 132,-1,8
 628 775 628 775 666 749.5 c 132,-1,9
 704 724 704 724 734.5 687.5 c 132,-1,10
 765 651 765 651 785 605 c 260,11,12
 805 559 805 559 815 507 c 132,-1,13
 825 455 825 455 825 400 c 4,14,15
 825 281 825 281 781 184 c 5,16,17
 735 88 735 88 653 37 c 4,18,19
 570 -14 570 -14 478 -14 c 4,20,21
 411 -14 411 -14 356.5 15 c 132,-1,22
 302 44 302 44 266 89 c 5,23,-1
 266 -297 l 5,24,-1
 135 -297 l 5,0,-1
470 92 m 4,25,26
 560 92 560 92 626 168 c 4,27,28
 691 244 691 244 691 401 c 4,29,30
 691 551 691 551 627 626 c 260,31,32
 563 701 563 701 476 701 c 4,33,34
 432 701 432 701 393 680.5 c 132,-1,35
 354 660 354 660 320 620 c 4,36,37
 288 581 288 581 271 522.5 c 132,-1,38
 254 464 254 464 254 390 c 4,39,40
 254 239 254 239 316 166 c 5,41,42
 381 92 381 92 470 92 c 4,25,26
EndSplineSet
Validated: 1
EndChar

StartChar: eq
Encoding: 113 113 85
Width: 828
GlyphClass: 2
Flags: W
LayerCount: 2
Fore
SplineSet
692 -299 m 5,0,-1
 692 90 l 5,1,2
 656 41 656 41 601 13 c 4,3,4
 543 -16 543 -16 481 -16 c 4,5,6
 338 -16 338 -16 237 94 c 4,7,8
 135 205 135 205 135 399 c 4,9,10
 135 518 135 518 176 611 c 5,11,12
 220 705 220 705 297 752 c 4,13,14
 376 800 376 800 470 800 c 4,15,16
 544 800 544 800 603 769 c 132,-1,17
 662 738 662 738 706 673 c 5,18,-1
 706 783 l 5,19,-1
 824 783 l 5,20,-1
 824 -299 l 5,21,-1
 692 -299 l 5,0,-1
270 394 m 4,22,23
 270 243 270 243 335 167 c 4,24,25
 400 90 400 90 492 90 c 4,26,27
 580 90 580 90 643 163 c 132,-1,28
 706 236 706 236 706 383 c 4,29,30
 706 459 706 459 688.5 519 c 132,-1,31
 671 579 671 579 639 618 c 4,32,33
 606 657 606 657 567 678 c 132,-1,34
 528 699 528 699 483 699 c 4,35,36
 394 699 394 699 332 624 c 4,37,38
 270 550 270 550 270 394 c 4,22,23
EndSplineSet
Validated: 1
EndChar

StartChar: er
Encoding: 114 114 86
Width: 569
GlyphClass: 2
Flags: W
LayerCount: 2
Fore
SplineSet
135 0 m 5,0,-1
 135 781 l 5,1,-1
 252 781 l 5,2,-1
 252 662 l 5,3,-1
 256 661 l 5,4,5
 302 745 302 745 342 772 c 4,6,7
 381 798 381 798 428 798 c 4,8,9
 461 798 461 798 494.5 788 c 132,-1,10
 528 778 528 778 564 757 c 5,11,-1
 519 637 l 5,12,13
 495 649 495 649 470 656.5 c 132,-1,14
 445 664 445 664 421 664 c 4,15,16
 375 664 375 664 339.5 637.5 c 132,-1,17
 304 611 304 611 288 565 c 5,18,19
 266 494 266 494 266 409 c 6,20,-1
 266 0 l 5,21,-1
 135 0 l 5,0,-1
EndSplineSet
Validated: 1
EndChar

StartChar: es
Encoding: 115 115 87
Width: 800
GlyphClass: 2
Flags: W
LayerCount: 2
Fore
SplineSet
265 259 m 5,0,1
 276 180 276 180 328 138 c 132,-1,2
 380 96 380 96 474 96 c 132,-1,3
 568 96 568 96 614 134 c 260,4,5
 660 172 660 172 660 222 c 4,6,7
 660 269 660 269 620 294 c 4,8,9
 605 304 605 304 570.5 315 c 132,-1,10
 536 326 536 326 480 340 c 4,11,12
 331 377 331 377 273 403 c 4,13,14
 246 416 246 416 224 435 c 132,-1,15
 202 454 202 454 188 477 c 4,16,17
 158 526 158 526 158 582 c 4,18,19
 158 634 158 634 182 678.5 c 132,-1,20
 206 723 206 723 248 752 c 4,21,22
 264 763 264 763 286 773 c 132,-1,23
 308 783 308 783 334 790.5 c 132,-1,24
 360 798 360 798 389 802 c 132,-1,25
 418 806 418 806 450 806 c 4,26,27
 544 806 544 806 614.5 780 c 132,-1,28
 685 754 685 754 718 708 c 5,29,30
 734 688 734 688 746 655 c 132,-1,31
 758 622 758 622 764 588 c 5,32,33
 732 584 732 584 700.5 580.5 c 132,-1,34
 669 577 669 577 637 573 c 5,35,36
 627 633 627 633 583 666.5 c 132,-1,37
 539 700 539 700 460 700 c 4,38,39
 365 700 365 700 324.5 669.5 c 132,-1,40
 284 639 284 639 284 598 c 4,41,42
 284 572 284 572 302 550 c 4,43,44
 319 529 319 529 354 514 c 4,45,46
 364 510 364 510 394 502 c 132,-1,47
 424 494 424 494 474 480 c 4,48,49
 546 461 546 461 596 446 c 132,-1,50
 646 431 646 431 674 418 c 5,51,52
 703 406 703 406 724.5 389 c 132,-1,53
 746 372 746 372 763 350 c 4,54,55
 795 306 795 306 795 237 c 4,56,57
 795 171 795 171 754 112 c 5,58,59
 715 52 715 52 643 22 c 4,60,61
 605 6 605 6 563 -2 c 132,-1,62
 521 -10 521 -10 475 -10 c 4,63,64
 320 -10 320 -10 239 52.5 c 132,-1,65
 158 115 158 115 135 239 c 5,66,-1
 265 259 l 5,0,1
EndSplineSet
Validated: 1
EndChar

StartChar: et
Encoding: 116 116 88
Width: 525
GlyphClass: 2
Flags: W
LayerCount: 2
Fore
SplineSet
520 7 m 1,0,1
 492 1 492 1 467 -1.5 c 128,-1,2
 442 -4 442 -4 420 -4 c 0,3,4
 347 -4 347 -4 307 18 c 128,-1,5
 267 40 267 40 250 78 c 0,6,7
 234 114 234 114 234 234 c 2,8,-1
 234 687 l 1,9,-1
 135 687 l 1,10,-1
 135 787 l 1,11,-1
 234 787 l 1,12,-1
 234 982 l 1,13,14
 266 1001 266 1001 299.5 1019.5 c 128,-1,15
 333 1038 333 1038 364 1058 c 1,16,-1
 364 787 l 1,17,-1
 500 787 l 1,18,-1
 500 687 l 1,19,-1
 364 687 l 1,20,-1
 364 227 l 2,21,22
 364 170 364 170 371 154 c 0,23,24
 380 136 380 136 395 127 c 0,25,26
 412 118 412 118 443 118 c 0,27,28
 454 118 454 118 468 119 c 128,-1,29
 482 120 482 120 500 123 c 1,30,-1
 520 7 l 1,0,1
EndSplineSet
Validated: 1
EndChar

StartChar: eu
Encoding: 117 117 89
Width: 784
GlyphClass: 2
Flags: W
LayerCount: 2
Fore
SplineSet
662 0 m 5,0,-1
 662 120 l 5,1,2
 566 -18 566 -18 406 -18 c 4,3,4
 373 -18 373 -18 339 -11 c 132,-1,5
 305 -4 305 -4 274 9 c 4,6,7
 246 21 246 21 223 38.5 c 132,-1,8
 200 56 200 56 184 74 c 5,9,10
 172 93 172 93 161 119.5 c 132,-1,11
 150 146 150 146 143 173 c 5,12,13
 135 213 135 213 135 297 c 6,14,-1
 135 781 l 5,15,-1
 266 781 l 5,16,-1
 266 348 l 6,17,18
 266 295 266 295 268.5 260.5 c 132,-1,19
 271 226 271 226 274 207 c 5,20,21
 287 155 287 155 329 124 c 132,-1,22
 371 93 371 93 434 93 c 4,23,24
 465 93 465 93 493.5 101.5 c 132,-1,25
 522 110 522 110 549 125 c 4,26,27
 575 140 575 140 595 161 c 132,-1,28
 615 182 615 182 626 208 c 5,29,30
 636 235 636 235 642 274 c 132,-1,31
 648 313 648 313 648 362 c 6,32,-1
 648 781 l 5,33,-1
 779 781 l 5,34,-1
 779 0 l 5,35,-1
 662 0 l 5,0,-1
EndSplineSet
Validated: 1
EndChar

StartChar: ev
Encoding: 118 118 90
Width: 867
GlyphClass: 2
Flags: W
LayerCount: 2
Fore
SplineSet
439 0 m 5,0,-1
 135 781 l 5,1,-1
 273 781 l 5,2,-1
 445 313 l 6,3,4
 459 274 459 274 472.5 231 c 132,-1,5
 486 188 486 188 498 146 c 5,6,7
 507 177 507 177 520.5 218.5 c 132,-1,8
 534 260 534 260 550 304 c 5,9,10
 572 360 572 360 594 420.5 c 132,-1,11
 616 481 616 481 639 542 c 132,-1,12
 662 603 662 603 684.5 663.5 c 132,-1,13
 707 724 707 724 728 781 c 5,14,-1
 862 781 l 5,15,16
 788 586 788 586 711.5 390.5 c 132,-1,17
 635 195 635 195 560 0 c 5,18,-1
 439 0 l 5,0,-1
EndSplineSet
Validated: 1
EndChar

StartChar: ew
Encoding: 119 119 91
Width: 1230
GlyphClass: 2
Flags: W
LayerCount: 2
Fore
SplineSet
379 0 m 5,0,1
 317 197 317 197 256.5 390.5 c 132,-1,2
 196 584 196 584 135 781 c 5,3,-1
 269 781 l 5,4,5
 301 670 301 670 333 555 c 132,-1,6
 365 440 365 440 397 329 c 6,7,-1
 444 161 l 5,8,-1
 448 161 l 5,9,10
 449 164 449 164 452.5 176.5 c 132,-1,11
 456 189 456 189 460 208 c 6,12,-1
 490 323 l 5,13,-1
 490 323 l 5,14,15
 521 436 521 436 553.5 551.5 c 132,-1,16
 586 667 586 667 617 781 c 5,17,-1
 752 781 l 5,18,-1
 872 327 l 5,19,-1
 872 328 l 5,20,-1
 914 170 l 5,21,-1
 962 329 l 6,22,23
 995 439 995 439 1030 554.5 c 132,-1,24
 1065 670 1065 670 1099 781 c 5,25,-1
 1226 781 l 5,26,27
 1164 586 1164 586 1101 390.5 c 132,-1,28
 1038 195 1038 195 976 0 c 5,29,-1
 840 0 l 5,30,31
 808 119 808 119 776.5 235 c 132,-1,32
 745 351 745 351 713 468 c 5,33,-1
 713 467 l 5,34,-1
 682 602 l 5,35,-1
 677 603 l 5,36,37
 638 453 638 453 597 301.5 c 132,-1,38
 556 150 556 150 516 0 c 5,39,-1
 379 0 l 5,0,1
EndSplineSet
Validated: 5
EndChar

StartChar: ex
Encoding: 120 120 92
Width: 882
GlyphClass: 2
Flags: W
LayerCount: 2
Fore
SplineSet
135 0 m 5,0,-1
 427 406 l 5,1,-1
 157 781 l 5,2,-1
 322 781 l 5,3,-1
 444 598 l 6,4,5
 461 572 461 572 476 548 c 132,-1,6
 491 524 491 524 502 506 c 5,7,8
 518 531 518 531 534 554 c 132,-1,9
 550 577 550 577 564 596 c 4,10,11
 597 642 597 642 631 688.5 c 132,-1,12
 665 735 665 735 698 781 c 5,13,-1
 856 781 l 5,14,-1
 580 413 l 5,15,16
 656 310 656 310 729 207 c 132,-1,17
 802 104 802 104 878 0 c 5,18,-1
 716 0 l 5,19,-1
 552 242 l 5,20,-1
 507 312 l 5,21,22
 455 236 455 236 401 156.5 c 132,-1,23
 347 77 347 77 296 0 c 5,24,-1
 135 0 l 5,0,-1
EndSplineSet
Validated: 1
EndChar

StartChar: ey
Encoding: 121 121 93
Width: 866
GlyphClass: 2
Flags: W
LayerCount: 2
Fore
SplineSet
190 -267 m 5,0,1
 232 -278 232 -278 266 -278 c 4,2,3
 312 -278 312 -278 339 -263.5 c 132,-1,4
 366 -249 366 -249 384 -221 c 4,5,6
 390 -211 390 -211 401 -186.5 c 132,-1,7
 412 -162 412 -162 426 -122 c 4,8,9
 428 -118 428 -118 429.5 -113 c 132,-1,10
 431 -108 431 -108 434 -102 c 4,11,12
 435 -99 435 -99 435.5 -96 c 132,-1,13
 436 -93 436 -93 438 -89 c 5,14,15
 362 108 362 108 287 303 c 132,-1,16
 212 498 212 498 135 695 c 5,17,-1
 276 695 l 5,18,-1
 442 242 l 6,19,20
 458 199 458 199 472.5 153.5 c 132,-1,21
 487 108 487 108 500 60 c 5,22,-1
 505 60 l 5,23,24
 517 107 517 107 530.5 151 c 132,-1,25
 544 195 544 195 560 239 c 4,26,27
 602 351 602 351 646 467 c 132,-1,28
 690 583 690 583 731 695 c 5,29,-1
 862 695 l 5,30,-1
 558 -100 l 6,31,32
 534 -165 534 -165 515 -209 c 132,-1,33
 496 -253 496 -253 482 -278 c 4,34,35
 446 -343 446 -343 400.5 -373.5 c 132,-1,36
 355 -404 355 -404 290 -404 c 4,37,38
 271 -404 271 -404 250.5 -400.5 c 132,-1,39
 230 -397 230 -397 206 -389 c 5,40,-1
 190 -267 l 5,0,1
EndSplineSet
Validated: 1
EndChar

StartChar: az
Encoding: 122 122 94
Width: 844
GlyphClass: 2
Flags: W
LayerCount: 2
Fore
SplineSet
136 0 m 5,0,-1
 136 107 l 5,1,-1
 135 106 l 5,2,-1
 646 680 l 5,3,4
 602 678 602 678 563 677 c 132,-1,5
 524 676 524 676 490 676 c 6,6,-1
 166 676 l 5,7,-1
 166 781 l 5,8,-1
 815 781 l 5,9,-1
 815 695 l 5,10,-1
 816 695 l 5,11,12
 709 572 709 572 599.5 446.5 c 132,-1,13
 490 321 490 321 382 198 c 5,14,-1
 297 105 l 5,15,16
 343 109 343 109 387 110.5 c 132,-1,17
 431 112 431 112 472 112 c 6,18,-1
 839 112 l 5,19,-1
 839 0 l 5,20,-1
 136 0 l 5,0,-1
EndSplineSet
Validated: 1
EndChar

StartChar: acbl
Encoding: 123 123 95
Width: 564
GlyphClass: 2
Flags: W
LayerCount: 2
Fore
SplineSet
135 621 m 1,0,1
 191 623 191 623 226.5 652.5 c 128,-1,2
 262 682 262 682 275 731 c 0,3,4
 281 756 281 756 284.5 799.5 c 128,-1,5
 288 843 288 843 288 903 c 1,6,7
 289 962 289 962 290 1002.5 c 128,-1,8
 291 1043 291 1043 292 1062 c 1,9,10
 298 1106 298 1106 309.5 1137.5 c 128,-1,11
 321 1169 321 1169 338.5 1192 c 128,-1,12
 356 1215 356 1215 378 1229 c 128,-1,13
 400 1243 400 1243 429 1253 c 1,14,15
 443 1256 443 1256 466.5 1258 c 128,-1,16
 490 1260 490 1260 520 1260 c 2,17,-1
 560 1260 l 1,18,-1
 560 1149 l 1,19,-1
 540 1149 l 2,20,21
 462 1149 462 1149 435 1121 c 1,22,23
 409 1092 409 1092 409 998 c 0,24,25
 409 903 409 903 407 843 c 128,-1,26
 405 783 405 783 401 757 c 0,27,28
 394 720 394 720 382.5 688.5 c 128,-1,29
 371 657 371 657 356 638 c 0,30,31
 340 618 340 618 314 598.5 c 128,-1,32
 288 579 288 579 252 563 c 1,33,34
 334 529 334 529 372 459 c 0,35,36
 409 391 409 391 409 236 c 0,37,38
 409 166 409 166 409.5 123.5 c 128,-1,39
 410 81 410 81 412 66 c 0,40,41
 418 15 418 15 442 -4 c 0,42,43
 466 -24 466 -24 540 -24 c 2,44,-1
 560 -24 l 1,45,-1
 560 -135 l 1,46,-1
 520 -135 l 2,47,48
 446 -135 446 -135 415 -124 c 0,49,50
 368 -107 368 -107 338 -69.5 c 128,-1,51
 308 -32 308 -32 298 24 c 0,52,53
 293 53 293 53 291 100 c 128,-1,54
 289 147 289 147 288 212 c 1,55,56
 288 342 288 342 275 393 c 256,57,58
 262 444 262 444 226 474 c 0,59,60
 209 488 209 488 186.5 496 c 128,-1,61
 164 504 164 504 135 504 c 1,62,-1
 135 621 l 1,0,1
EndSplineSet
Validated: 1
EndChar

StartChar: abar
Encoding: 124 124 96
Width: 252
GlyphClass: 2
Flags: W
LayerCount: 2
Fore
SplineSet
135 -326 m 1,0,-1
 135 1071 l 1,1,-1
 248 1071 l 1,2,-1
 248 -326 l 1,3,-1
 135 -326 l 1,0,-1
EndSplineSet
Validated: 1
EndChar

StartChar: acbr
Encoding: 125 125 97
Width: 564
GlyphClass: 2
Flags: W
LayerCount: 2
Fore
SplineSet
560 504 m 1,0,1
 504 502 504 502 467.5 472 c 128,-1,2
 431 442 431 442 418 393 c 0,3,4
 412 369 412 369 409 323 c 128,-1,5
 406 277 406 277 406 212 c 0,6,7
 406 146 406 146 403.5 99.5 c 128,-1,8
 401 53 401 53 396 24 c 0,9,10
 387 -33 387 -33 357 -70.5 c 128,-1,11
 327 -108 327 -108 279 -124 c 0,12,13
 248 -135 248 -135 175 -135 c 2,14,-1
 135 -135 l 1,15,-1
 135 -24 l 1,16,-1
 154 -24 l 2,17,18
 225 -24 225 -24 251 -4 c 0,19,20
 276 16 276 16 283 66 c 1,21,22
 284 81 284 81 285 123.5 c 128,-1,23
 286 166 286 166 286 236 c 0,24,25
 286 391 286 391 322 459 c 0,26,27
 359 528 359 528 442 563 c 1,28,29
 406 579 406 579 380.5 598 c 128,-1,30
 355 617 355 617 338 638 c 0,31,32
 323 657 323 657 311.5 688 c 128,-1,33
 300 719 300 719 293 757 c 1,34,35
 290 783 290 783 288 843 c 128,-1,36
 286 903 286 903 286 998 c 0,37,38
 286 1090 286 1090 259 1121 c 1,39,40
 232 1149 232 1149 154 1149 c 2,41,-1
 135 1149 l 1,42,-1
 135 1260 l 1,43,-1
 175 1260 l 2,44,45
 206 1260 206 1260 228 1258.5 c 128,-1,46
 250 1257 250 1257 265 1253 c 0,47,48
 293 1244 293 1244 316.5 1229.5 c 128,-1,49
 340 1215 340 1215 357 1193 c 128,-1,50
 374 1171 374 1171 385.5 1139 c 128,-1,51
 397 1107 397 1107 402 1062 c 0,52,53
 404 1044 404 1044 405 1004 c 128,-1,54
 406 964 406 964 406 903 c 0,55,56
 406 843 406 843 409 799.5 c 128,-1,57
 412 756 412 756 418 731 c 0,58,59
 431 682 431 682 467 652.5 c 128,-1,60
 503 623 503 623 560 621 c 1,61,-1
 560 504 l 1,0,1
EndSplineSet
Validated: 1
EndChar

StartChar: a_h
Encoding: 126 126 98
Width: 896
GlyphClass: 2
Flags: W
LayerCount: 2
Fore
SplineSet
136 586 m 1,0,-1
 135 586 l 1,1,2
 213 672 213 672 340 673 c 0,3,4
 383 673 383 673 432 660 c 0,5,6
 456 653 456 653 492 640.5 c 128,-1,7
 528 628 528 628 572 610 c 0,8,9
 597 600 597 600 617 593 c 128,-1,10
 637 586 637 586 650 582 c 1,11,12
 662 580 662 580 675 578 c 128,-1,13
 688 576 688 576 701 576 c 0,14,15
 749 576 749 576 799.5 602.5 c 128,-1,16
 850 629 850 629 891 672 c 1,17,-1
 891 524 l 1,18,19
 844 481 844 481 795.5 461 c 128,-1,20
 747 441 747 441 688 441 c 0,21,22
 646 441 646 441 603 451 c 0,23,24
 582 456 582 456 549.5 468 c 128,-1,25
 517 480 517 480 474 499 c 1,26,27
 430 520 430 520 393.5 529 c 128,-1,28
 357 538 357 538 327 538 c 0,29,30
 278 538 278 538 237 517 c 128,-1,31
 196 496 196 496 136 442 c 1,32,-1
 136 586 l 1,0,-1
EndSplineSet
Validated: 1
EndChar

StartChar: M_m
Encoding: 3330 3330 99
Width: 776
GlyphClass: 2
Flags: W
LayerCount: 2
Fore
SplineSet
456 659 m 0,0,1
 521 659 521 659 579 633.5 c 128,-1,2
 637 608 637 608 683 564 c 1,3,4
 726 515 726 515 748.5 452 c 128,-1,5
 771 389 771 389 771 316 c 0,6,7
 771 166 771 166 682 80 c 0,8,9
 594 -5 594 -5 455 -5 c 256,10,11
 316 -5 316 -5 225 80 c 1,12,13
 135 166 135 166 135 318.5 c 128,-1,14
 135 471 135 471 226 566 c 1,15,16
 320 659 320 659 456 659 c 0,0,1
642 320 m 0,17,18
 642 429 642 429 599 502 c 0,19,20
 557 574 557 574 456 574 c 0,21,22
 358 574 358 574 306 496 c 1,23,24
 263 421 263 421 263 320 c 0,25,26
 263 80 263 80 456 80 c 0,27,28
 642 80 642 80 642 320 c 0,17,18
EndSplineSet
Validated: 1
EndChar

StartChar: M_h
Encoding: 3331 3331 100
Width: 560
GlyphClass: 2
Flags: W
LayerCount: 2
Fore
SplineSet
194 832 m 1,0,1
 258 895 258 895 351 895 c 0,2,3
 446 895 446 895 501 830 c 256,4,5
 556 765 556 765 556 673.5 c 128,-1,6
 556 582 556 582 501 522 c 128,-1,7
 446 462 446 462 351.5 462 c 128,-1,8
 257 462 257 462 196 518 c 0,9,10
 135 575 135 575 135 673 c 0,11,12
 135 772 135 772 194 832 c 1,0,1
506 368 m 1,13,14
 556 312 556 312 556 218 c 0,15,16
 556 173 556 173 541.5 135 c 128,-1,17
 527 97 527 97 500 66 c 1,18,19
 472 38 472 38 435 22.5 c 128,-1,20
 398 7 398 7 352 7 c 0,21,22
 261 7 261 7 197 63 c 1,23,24
 135 120 135 120 135 219 c 0,25,26
 135 320 135 320 194 377 c 0,27,28
 256 438 256 438 352 438 c 128,-1,29
 448 438 448 438 506 368 c 1,13,14
353 552 m 0,30,31
 434 552 434 552 434 678 c 0,32,33
 434 805 434 805 345.5 805 c 128,-1,34
 257 805 257 805 257 678 c 0,35,36
 257 552 257 552 353 552 c 0,30,31
353 97 m 0,37,38
 434 97 434 97 434 222 c 0,39,40
 434 349 434 349 345.5 349 c 128,-1,41
 257 349 257 349 257 222 c 0,42,43
 257 97 257 97 353 97 c 0,37,38
EndSplineSet
Validated: 1
EndChar

StartChar: ma
Encoding: 3333 3333 101
Width: 2106
GlyphClass: 2
Flags: W
LayerCount: 2
Fore
SplineSet
863 74 m 0,0,1
 926 74 926 74 960.5 112.5 c 128,-1,2
 995 151 995 151 995 216 c 0,3,4
 995 280 995 280 960.5 319 c 128,-1,5
 926 358 926 358 864 358 c 0,6,7
 859 358 859 358 794 353 c 1,8,-1
 752 346 l 1,9,-1
 754 465 l 1,10,-1
 797 458 l 2,11,12
 835 452 835 452 856 452 c 0,13,14
 914 452 914 452 947.5 488 c 128,-1,15
 981 524 981 524 981 586 c 0,16,17
 981 647 981 647 942 697 c 128,-1,18
 903 747 903 747 846 758 c 1,19,20
 754 722 754 722 707 622.5 c 128,-1,21
 660 523 660 523 660 400.5 c 128,-1,22
 660 278 660 278 704 186 c 0,23,24
 758 74 758 74 863 74 c 0,0,1
1905 144 m 0,25,26
 1940 203 1940 203 1940 290 c 0,27,28
 1940 375 1940 375 1902 426.5 c 128,-1,29
 1864 478 1864 478 1789 478 c 0,30,31
 1712 478 1712 478 1672.5 422.5 c 128,-1,32
 1633 367 1633 367 1633 280 c 0,33,34
 1633 194 1633 194 1667 140 c 0,35,36
 1706 76 1706 76 1786 76 c 0,37,38
 1865 76 1865 76 1905 144 c 0,25,26
660 805 m 1,39,-1
 630 805 l 2,40,41
 488 805 488 805 371 694 c 1,42,43
 275 586 275 586 275 423 c 0,44,45
 275 200 275 200 429 86 c 1,46,-1
 460 65 l 1,47,-1
 396 -22 l 1,48,-1
 365 -4 l 1,49,50
 135 139 135 139 135 434 c 1,51,52
 148 682 148 682 355 818 c 1,53,54
 472 886 472 886 627 886 c 0,55,56
 662 886 662 886 693 884 c 0,57,58
 769 879 769 879 814.5 863.5 c 128,-1,59
 860 848 860 848 864 847 c 1,60,61
 942 879 942 879 1041 879 c 0,62,63
 1230 879 1230 879 1334 763 c 1,64,65
 1461 883 1461 883 1661 883 c 256,66,67
 1861 883 1861 883 1981 751.5 c 128,-1,68
 2101 620 2101 620 2101 436 c 0,69,70
 2101 250 2101 250 2032 134 c 0,71,72
 1946 -11 1946 -11 1778 -11 c 0,73,74
 1652 -11 1652 -11 1573.5 71.5 c 128,-1,75
 1495 154 1495 154 1495 277.5 c 128,-1,76
 1495 401 1495 401 1570 483.5 c 128,-1,77
 1645 566 1645 566 1778 566 c 0,78,79
 1887 566 1887 566 1969 490 c 1,80,81
 1960 610 1960 610 1880 698 c 0,82,83
 1792 796 1792 796 1657 796 c 2,84,-1
 1648 796 l 2,85,86
 1582 796 1582 796 1514.5 761.5 c 128,-1,87
 1447 727 1447 727 1420.5 671 c 128,-1,88
 1394 615 1394 615 1394 533 c 2,89,-1
 1394 4 l 1,90,-1
 1266 4 l 1,91,-1
 1266 538 l 2,92,93
 1266 622 1266 622 1240.5 674.5 c 128,-1,94
 1215 727 1215 727 1150 760 c 1,95,96
 1087 794 1087 794 1016 794 c 0,97,98
 1003 794 1003 794 991 793 c 1,99,100
 1114 722 1114 722 1114 584 c 0,101,102
 1114 514 1114 514 1082.5 471 c 128,-1,103
 1051 428 1051 428 1017 407 c 1,104,105
 1055 387 1055 387 1089 342.5 c 128,-1,106
 1123 298 1123 298 1123 226 c 0,107,108
 1123 119 1123 119 1046.5 55.5 c 128,-1,109
 970 -8 970 -8 863 -8 c 0,110,111
 691 -8 691 -8 597 128 c 0,112,113
 518 241 518 241 518 412 c 0,114,115
 518 682 518 682 718 796 c 1,116,117
 691 802 691 802 660 805 c 1,39,-1
EndSplineSet
Validated: 1
EndChar

StartChar: mA
Encoding: 3334 3334 102
Width: 2415
GlyphClass: 2
Flags: W
LayerCount: 2
Fore
SplineSet
1786 84 m 0,0,1
 1876 84 1876 84 1918 173 c 1,2,3
 1962 261 1962 261 1962 392 c 0,4,5
 1962 524 1962 524 1938 592 c 1,6,7
 1796 583 1796 583 1721 482 c 1,8,9
 1660 386 1660 386 1660 272 c 0,10,11
 1660 232 1660 232 1668 199.5 c 128,-1,12
 1676 167 1676 167 1691 142 c 1,13,14
 1734 84 1734 84 1786 84 c 0,0,1
863 74 m 0,15,16
 926 74 926 74 960.5 112.5 c 128,-1,17
 995 151 995 151 995 216 c 0,18,19
 995 280 995 280 960.5 319 c 128,-1,20
 926 358 926 358 864 358 c 0,21,22
 859 358 859 358 794 353 c 1,23,-1
 752 346 l 1,24,-1
 754 465 l 1,25,-1
 797 458 l 2,26,27
 835 452 835 452 856 452 c 0,28,29
 914 452 914 452 947.5 488 c 128,-1,30
 981 524 981 524 981 586 c 0,31,32
 981 647 981 647 942 697 c 128,-1,33
 903 747 903 747 846 758 c 1,34,35
 754 722 754 722 707 622.5 c 128,-1,36
 660 523 660 523 660 400 c 0,37,38
 660 278 660 278 704 186 c 0,39,40
 758 74 758 74 863 74 c 0,15,16
2031 685 m 1,41,42
 2114 680 2114 680 2182 649 c 0,43,44
 2254 616 2254 616 2306 560 c 1,45,46
 2355 496 2355 496 2382.5 419.5 c 128,-1,47
 2410 343 2410 343 2410 257 c 0,48,49
 2410 30 2410 30 2270 -112 c 1,50,51
 2135 -244 2135 -244 1930 -244 c 0,52,53
 1864 -244 1864 -244 1794 -228 c 128,-1,54
 1724 -212 1724 -212 1646 -170 c 1,55,-1
 1721 -89 l 1,56,57
 1828 -154 1828 -154 1937 -154 c 0,58,59
 2008 -154 2008 -154 2070.5 -128.5 c 128,-1,60
 2133 -103 2133 -103 2179 -46 c 1,61,62
 2227 10 2227 10 2252.5 88 c 128,-1,63
 2278 166 2278 166 2279 255 c 0,64,65
 2280 261 2280 261 2280 268 c 2,66,-1
 2280 280 l 2,67,68
 2280 328 2280 328 2269 373 c 128,-1,69
 2258 418 2258 418 2236 459 c 0,70,71
 2186 554 2186 554 2083 581 c 1,72,73
 2093 550 2093 550 2098.5 506 c 128,-1,74
 2104 462 2104 462 2104 402 c 0,75,76
 2104 233 2104 233 2023 123 c 1,77,78
 1933 -7 1933 -7 1786 -7 c 0,79,80
 1686 -7 1686 -7 1609 62 c 1,81,82
 1532 133 1532 133 1531 280 c 1,83,-1
 1531 284 l 2,84,85
 1531 356 1531 356 1556 422 c 256,86,87
 1581 488 1581 488 1630 545 c 1,88,89
 1680 595 1680 595 1744 625.5 c 128,-1,90
 1808 656 1808 656 1886 666 c 1,91,-1
 1902 669 l 1,92,93
 1889 688 1889 688 1880 698 c 0,94,95
 1792 796 1792 796 1657 796 c 2,96,-1
 1648 796 l 2,97,98
 1582 796 1582 796 1514.5 761.5 c 128,-1,99
 1447 727 1447 727 1420.5 671 c 128,-1,100
 1394 615 1394 615 1394 533 c 2,101,-1
 1394 4 l 1,102,-1
 1266 4 l 1,103,-1
 1266 538 l 2,104,105
 1266 622 1266 622 1240.5 674.5 c 128,-1,106
 1215 727 1215 727 1150 760 c 1,107,108
 1087 794 1087 794 1016 794 c 0,109,110
 1003 794 1003 794 991 793 c 1,111,112
 1114 722 1114 722 1114 584 c 0,113,114
 1114 514 1114 514 1082.5 471 c 128,-1,115
 1051 428 1051 428 1017 407 c 1,116,117
 1055 387 1055 387 1089 342.5 c 128,-1,118
 1123 298 1123 298 1123 226 c 0,119,120
 1123 119 1123 119 1046.5 55.5 c 128,-1,121
 970 -8 970 -8 863 -8 c 0,122,123
 691 -8 691 -8 597 128 c 0,124,125
 518 241 518 241 518 412 c 0,126,127
 518 682 518 682 718 796 c 1,128,129
 691 802 691 802 660 805 c 1,130,-1
 630 805 l 2,131,132
 488 805 488 805 371 694 c 1,133,134
 275 586 275 586 275 423 c 0,135,136
 275 200 275 200 429 86 c 1,137,-1
 460 65 l 1,138,-1
 396 -22 l 1,139,-1
 365 -4 l 1,140,141
 135 139 135 139 135 434 c 1,142,143
 148 682 148 682 355 818 c 1,144,145
 472 886 472 886 627 886 c 0,146,147
 662 886 662 886 693 884 c 0,148,149
 769 879 769 879 814.5 863.5 c 128,-1,150
 860 848 860 848 864 847 c 1,151,152
 942 879 942 879 1041 879 c 0,153,154
 1230 879 1230 879 1334 763 c 1,155,156
 1461 883 1461 883 1661 883 c 256,157,158
 1861 883 1861 883 1981 752 c 0,159,160
 2009 720 2009 720 2031 685 c 1,41,42
EndSplineSet
Validated: 1
EndChar

StartChar: mi
Encoding: 3335 3335 103
Width: 1518
GlyphClass: 2
Flags: W
LayerCount: 2
Fore
SplineSet
553 401 m 4,0,1
 553 563 553 563 422 563 c 4,2,3
 358 563 358 563 316 528.5 c 132,-1,4
 274 494 274 494 274 445 c 4,5,6
 274 362 274 362 315 310 c 5,7,8
 349 260 349 260 414 260 c 4,9,10
 481 260 481 260 517 309 c 4,11,12
 553 357 553 357 553 401 c 4,0,1
255 779 m 5,13,14
 364 883 364 883 546 883 c 4,15,16
 768 883 768 883 868 739 c 5,17,18
 975 883 975 883 1128 883 c 6,19,-1
 1143 883 l 6,20,21
 1312 883 1312 883 1411 772 c 5,22,23
 1513 656 1513 656 1513 475 c 4,24,25
 1513 293 1513 293 1391 174.5 c 132,-1,26
 1269 56 1269 56 1050 56 c 6,27,-1
 399 56 l 6,28,29
 348 56 348 56 304.5 27.5 c 132,-1,30
 261 -1 261 -1 261 -52 c 4,31,32
 261 -102 261 -102 301.5 -126.5 c 132,-1,33
 342 -151 342 -151 397 -151 c 6,34,-1
 1481 -151 l 5,35,-1
 1481 -264 l 5,36,-1
 379 -264 l 6,37,38
 277 -264 277 -264 209 -206 c 132,-1,39
 141 -148 141 -148 141 -51 c 4,40,41
 141 47 141 47 209 101 c 132,-1,42
 277 155 277 155 379 155 c 6,43,-1
 1032 155 l 6,44,45
 1185 155 1185 155 1281 235 c 4,46,47
 1377 316 1377 316 1377 480 c 6,48,-1
 1377 485 l 5,49,50
 1378 497 1378 497 1378 508 c 4,51,52
 1378 605 1378 605 1332 690 c 4,53,54
 1280 785 1280 785 1152 788 c 5,55,56
 1023 778 1023 778 975 711 c 132,-1,57
 927 644 927 644 927 556 c 6,58,-1
 927 226 l 5,59,-1
 795 226 l 5,60,-1
 795 556 l 6,61,62
 795 650 795 650 740.5 718 c 132,-1,63
 686 786 686 786 558 792 c 5,64,65
 414 786 414 786 354 728 c 5,66,67
 312 682 312 682 306 628 c 5,68,69
 354 652 354 652 422 652 c 4,70,71
 550 652 550 652 621 584 c 4,72,73
 693 514 693 514 693 411 c 4,74,75
 693 307 693 307 614 239 c 5,76,-1
 614 239 l 5,77,78
 529 170 529 170 414 170 c 260,79,80
 299 170 299 170 222 236 c 5,81,-1
 222 235 l 5,82,83
 135 311 135 311 135 455 c 5,84,85
 132 542 132 542 159 617 c 5,86,87
 186 699 186 699 255 779 c 5,13,14
EndSplineSet
EndChar

StartChar: mu
Encoding: 3337 3337 105
Width: 1130
GlyphClass: 2
Flags: W
LayerCount: 2
Fore
SplineSet
424 258 m 4,0,1
 544 258 544 258 544 415 c 260,2,3
 544 572 544 572 421 572 c 4,4,5
 359 572 359 572 320 530 c 4,6,7
 281 487 281 487 281 445 c 4,8,9
 281 258 281 258 424 258 c 4,0,1
980 385 m 4,10,11
 986 420 986 420 986 458 c 4,12,13
 986 500 986 500 979.5 535 c 132,-1,14
 973 570 973 570 959.5 599.5 c 132,-1,15
 946 629 946 629 927 654 c 132,-1,16
 908 679 908 679 883 701 c 5,17,18
 773 791 773 791 610 791 c 5,19,20
 374 780 374 780 310 639 c 5,21,22
 364 663 364 663 423 663 c 4,23,24
 542 663 542 663 618 581 c 4,25,26
 686 509 686 509 686 405 c 4,27,28
 686 302 686 302 616 239 c 5,29,30
 544 169 544 169 427 169 c 4,31,32
 368 169 368 169 318 186 c 132,-1,33
 268 203 268 203 228 234 c 5,34,35
 182 272 182 272 158.5 327.5 c 132,-1,36
 135 383 135 383 135 454 c 4,37,38
 135 545 135 545 164.5 623 c 132,-1,39
 194 701 194 701 247 760 c 5,40,41
 308 820 308 820 399 851 c 132,-1,42
 490 882 490 882 610 882 c 4,43,44
 812 882 812 882 957 791 c 5,45,46
 1124 674 1124 674 1126 435 c 5,47,48
 1117 225 1117 225 978 114 c 5,49,50
 870 23 870 23 579 19 c 5,51,-1
 443 19 l 5,52,53
 265 15 265 15 279 -68 c 5,54,55
 281 -159 281 -159 436 -159 c 6,56,-1
 1102 -159 l 5,57,-1
 1102 -270 l 5,58,-1
 464 -270 l 6,59,60
 155 -270 155 -270 154 -73 c 5,61,62
 155 77 155 77 302 108 c 4,63,64
 368 122 368 122 507 125 c 5,65,-1
 588 125 l 6,66,67
 934 125 934 125 980 385 c 4,10,11
EndSplineSet
EndChar

StartChar: m_r
Encoding: 3339 3339 107
Width: 1133
GlyphClass: 2
Flags: W
LayerCount: 2
Fore
SplineSet
871 -109 m 5,0,1
 990 -52 990 -52 988 31 c 5,2,3
 988 113 988 113 879 168 c 5,4,5
 835 188 835 188 784.5 198.5 c 132,-1,6
 734 209 734 209 667 210 c 5,7,-1
 586 210 l 6,8,9
 530 210 530 210 478 198.5 c 132,-1,10
 426 187 426 187 385 168 c 5,11,12
 332 141 332 141 303.5 107.5 c 132,-1,13
 275 74 275 74 274 32 c 5,14,15
 274 -51 274 -51 395 -109 c 5,16,17
 446 -131 446 -131 503 -143.5 c 132,-1,18
 560 -156 560 -156 641 -157 c 5,19,20
 706 -156 706 -156 763 -143.5 c 132,-1,21
 820 -131 820 -131 871 -109 c 5,0,1
463 684 m 4,22,23
 463 796 463 796 383 796 c 4,24,25
 364 796 364 796 349.5 787 c 132,-1,26
 335 778 335 778 324.5 763 c 132,-1,27
 314 748 314 748 309 728.5 c 132,-1,28
 304 709 304 709 304 686 c 4,29,30
 304 640 304 640 325 610 c 5,31,32
 346 578 346 578 384 578 c 260,33,34
 422 578 422 578 442 608 c 4,35,36
 463 638 463 638 463 684 c 4,22,23
800 684 m 4,37,38
 800 638 800 638 821 608 c 132,-1,39
 842 578 842 578 880 578 c 4,40,41
 916 578 916 578 938 610 c 4,42,43
 949 625 949 625 954.5 644.5 c 132,-1,44
 960 664 960 664 960 686 c 4,45,46
 960 730 960 730 940 762 c 5,47,48
 920 796 920 796 882 796 c 4,49,50
 800 796 800 796 800 684 c 4,37,38
955 250 m 5,51,52
 1018 222 1018 222 1071 164 c 4,53,54
 1126 104 1126 104 1126 28 c 4,55,56
 1126 -124 1126 -124 944 -200 c 4,57,58
 820 -251 820 -251 642 -251 c 4,59,60
 540 -251 540 -251 462 -237 c 132,-1,61
 384 -223 384 -223 322 -198 c 5,62,63
 232 -158 232 -158 185.5 -101.5 c 132,-1,64
 139 -45 139 -45 139 28 c 4,65,66
 139 67 139 67 152.5 100.5 c 132,-1,67
 166 134 166 134 193 164 c 4,68,69
 249 225 249 225 311 253 c 5,70,71
 277 271 277 271 245.5 300.5 c 132,-1,72
 214 330 214 330 188 373 c 4,73,74
 135 458 135 458 135 581 c 4,75,76
 135 706 135 706 203.5 793.5 c 132,-1,77
 272 881 272 881 386 881 c 4,78,79
 430 881 430 881 465 868 c 132,-1,80
 500 855 500 855 528 830 c 4,81,82
 584 779 584 779 584 690 c 4,83,84
 584 602 584 602 527 547 c 4,85,86
 472 493 472 493 396 493 c 4,87,88
 321 493 321 493 278 533 c 4,89,90
 275 536 275 536 271 541 c 132,-1,91
 267 546 267 546 261 552 c 5,92,93
 294 292 294 292 640 295 c 5,94,95
 972 295 972 295 1004 560 c 5,96,97
 996 550 996 550 991 544 c 132,-1,98
 986 538 986 538 982 533 c 5,99,100
 940 501 940 501 903.5 497.5 c 132,-1,101
 867 494 867 494 866 494 c 4,102,103
 791 494 791 494 736 548 c 5,104,105
 680 600 680 600 680 689 c 4,106,107
 680 777 680 777 736 830 c 5,108,109
 793 881 793 881 878 881 c 4,110,111
 992 881 992 881 1061 794 c 5,112,113
 1129 706 1129 706 1129 581 c 4,114,115
 1129 458 1129 458 1076 373 c 4,116,117
 1024 288 1024 288 955 254 c 5,118,-1
 955 250 l 5,51,52
EndSplineSet
EndChar

StartChar: m_l
Encoding: 3340 3340 108
Width: 1730
GlyphClass: 2
Flags: W
LayerCount: 2
Fore
SplineSet
284 291 m 4,0,1
 284 186 284 186 328 123 c 4,2,3
 373 58 373 58 452 58 c 4,4,5
 532 58 532 58 577 118 c 4,6,7
 620 175 620 175 620 271 c 4,8,9
 620 375 620 375 577 430 c 4,10,11
 532 487 532 487 453 487 c 132,-1,12
 374 487 374 487 329 430 c 260,13,14
 284 373 284 373 284 291 c 4,0,1
1532 430 m 4,15,16
 1487 487 1487 487 1407.5 487 c 132,-1,17
 1328 487 1328 487 1284 431 c 4,18,19
 1240 376 1240 376 1240 273 c 4,20,21
 1240 180 1240 180 1284 123 c 5,22,23
 1328 64 1328 64 1408 64 c 260,24,25
 1488 64 1488 64 1532 127 c 132,-1,26
 1576 190 1576 190 1576 293 c 4,27,28
 1576 375 1576 375 1532 430 c 4,15,16
1078 736 m 5,29,30
 1002 679 1002 679 1002 607 c 6,31,-1
 1002 3 l 5,32,-1
 861 3 l 5,33,-1
 862 610 l 6,34,35
 862 681 862 681 783 739 c 4,36,37
 707 796 707 796 598 792 c 5,38,39
 442 791 442 791 354 700 c 5,40,41
 267 608 267 608 272 485 c 5,42,43
 302 517 302 517 322 529 c 4,44,45
 355 550 355 550 392 561 c 132,-1,46
 429 572 429 572 471 572 c 4,47,48
 586 572 586 572 668 492 c 5,49,50
 748 412 748 412 748 286 c 4,51,52
 748 140 748 140 673 54 c 5,53,54
 597 -30 597 -30 463 -30 c 4,55,56
 295 -30 295 -30 206 107 c 4,57,58
 135 216 135 216 135 397 c 6,59,-1
 135 420 l 6,60,61
 135 630 135 630 261 753 c 4,62,63
 388 877 388 877 602 880 c 4,64,65
 665 880 665 880 706.5 871 c 132,-1,66
 748 862 748 862 784 848 c 5,67,68
 838 823 838 823 876 793 c 132,-1,69
 914 763 914 763 937 730 c 5,70,71
 1046 883 1046 883 1259 880 c 4,72,73
 1473 877 1473 877 1600 753 c 4,74,75
 1726 630 1726 630 1726 420 c 6,76,-1
 1726 397 l 6,77,78
 1726 216 1726 216 1655 107 c 4,79,80
 1566 -30 1566 -30 1398 -30 c 4,81,82
 1264 -30 1264 -30 1188 54 c 5,83,84
 1113 140 1113 140 1113 286 c 4,85,86
 1113 412 1113 412 1193 492 c 4,87,88
 1274 572 1274 572 1390 572 c 4,89,90
 1432 572 1432 572 1469 561 c 132,-1,91
 1506 550 1506 550 1539 529 c 4,92,93
 1558 517 1558 517 1589 485 c 5,94,95
 1594 608 1594 608 1507 700 c 5,96,97
 1419 791 1419 791 1263 792 c 5,98,99
 1150 788 1150 788 1078 736 c 5,29,30
EndSplineSet
EndChar

StartChar: me
Encoding: 3342 3342 109
Width: 1954
GlyphClass: 2
Flags: W
LayerCount: 2
Fore
SplineSet
1376 4 m 5,0,-1
 1061 4 l 5,1,2
 1070 -100 1070 -100 1103 -170 c 5,3,4
 1153 -272 1153 -272 1267 -272 c 4,5,6
 1379 -272 1379 -272 1379 -105 c 4,7,8
 1379 -74 1379 -74 1378 -46 c 4,9,10
 1376 -4 1376 -4 1376 4 c 5,0,-1
1938 9 m 4,11,12
 1928 -75 1928 -75 1904 -141 c 4,13,14
 1892 -176 1892 -176 1872 -212 c 132,-1,15
 1852 -248 1852 -248 1828 -279 c 5,16,17
 1796 -316 1796 -316 1761 -341 c 132,-1,18
 1726 -366 1726 -366 1691 -376 c 5,19,-1
 1623 -319 l 5,20,21
 1702 -292 1702 -292 1747.5 -188 c 132,-1,22
 1793 -84 1793 -84 1802 89 c 5,23,24
 1803 128 1803 128 1804 265 c 5,25,26
 1804 494 1804 494 1732 631 c 5,27,28
 1640 794 1640 794 1436 794 c 5,29,30
 1251 793 1251 793 1152.5 662.5 c 132,-1,31
 1054 532 1054 532 1054 188 c 6,32,-1
 1054 89 l 5,33,-1
 1376 89 l 5,34,-1
 1377 708 l 5,35,-1
 1511 706 l 5,36,-1
 1512 8 l 6,37,38
 1512 -164 1512 -164 1486 -230 c 4,39,40
 1438 -356 1438 -356 1255 -356 c 4,41,42
 1088 -356 1088 -356 1000 -230 c 5,43,44
 938 -136 938 -136 919 2 c 5,45,-1
 497 2 l 5,46,-1
 476 69 l 5,47,-1
 493 80 l 5,48,49
 606 138 606 138 603 286 c 5,50,51
 603 375 603 375 561.5 428.5 c 132,-1,52
 520 482 520 482 441 485 c 5,53,54
 358 485 358 485 315.5 431 c 132,-1,55
 273 377 273 377 273 291 c 4,56,57
 273 130 273 130 380 80 c 5,58,-1
 405 70 l 5,59,-1
 372 -6 l 5,60,-1
 335 6 l 5,61,62
 240 39 240 39 187.5 104.5 c 132,-1,63
 135 170 135 170 135 296 c 4,64,65
 135 420 135 420 222.5 496 c 132,-1,66
 310 572 310 572 442 572 c 132,-1,67
 574 572 574 572 658.5 496 c 132,-1,68
 743 420 743 420 743 296 c 260,69,70
 743 172 743 172 662 88 c 5,71,-1
 908 88 l 5,72,-1
 908 89 l 5,73,74
 907 154 907 154 906 205 c 5,75,76
 906 493 906 493 1019 670 c 4,77,78
 1158 886 1158 886 1433 886 c 260,79,80
 1708 886 1708 886 1839 695 c 4,81,82
 1949 536 1949 536 1949 266 c 5,83,84
 1948 89 1948 89 1938 9 c 4,11,12
EndSplineSet
Validated: 33
EndChar

StartChar: mE
Encoding: 3343 3343 110
Width: 1940
GlyphClass: 2
Flags: W
LayerCount: 2
Fore
SplineSet
1346 2 m 5,0,-1
 1061 2 l 5,1,2
 1070 -102 1070 -102 1103 -171 c 4,3,4
 1153 -273 1153 -273 1252 -273 c 4,5,6
 1349 -273 1349 -273 1349 -106 c 4,7,8
 1349 -76 1349 -76 1348 -48 c 4,9,10
 1346 -6 1346 -6 1346 2 c 5,0,-1
1902 507 m 5,11,12
 1902 449 1902 449 1880 398.5 c 132,-1,13
 1858 348 1858 348 1816 302 c 5,14,15
 1786 274 1786 274 1779 270 c 5,16,17
 1935 191 1935 191 1935 -45 c 4,18,19
 1935 -179 1935 -179 1858 -268 c 5,20,21
 1783 -358 1783 -358 1638 -361 c 5,22,23
 1589 -358 1589 -358 1552 -341 c 5,24,-1
 1552 -255 l 5,25,26
 1600 -266 1600 -266 1637 -267 c 4,27,28
 1708 -269 1708 -269 1751 -201 c 5,29,30
 1793 -124 1793 -124 1793 -45 c 4,31,32
 1793 159 1793 159 1659 206 c 4,33,34
 1651 208 1651 208 1641 209 c 132,-1,35
 1631 210 1631 210 1620 210 c 4,36,37
 1596 210 1596 210 1566 206 c 4,38,39
 1562 205 1562 205 1558 204.5 c 132,-1,40
 1554 204 1554 204 1550 202 c 5,41,-1
 1550 330 l 5,42,43
 1556 328 1556 328 1561.5 326.5 c 132,-1,44
 1567 325 1567 325 1573 324 c 4,45,46
 1598 317 1598 317 1620 317 c 260,47,48
 1642 317 1642 317 1660 324 c 4,49,50
 1761 369 1761 369 1761 509 c 4,51,52
 1761 570 1761 570 1732 630 c 5,53,54
 1640 792 1640 792 1436 792 c 4,55,56
 1251 792 1251 792 1152.5 661 c 132,-1,57
 1054 530 1054 530 1054 186 c 6,58,-1
 1054 88 l 5,59,-1
 1346 88 l 5,60,-1
 1347 707 l 5,61,-1
 1481 705 l 5,62,-1
 1482 6 l 6,63,64
 1482 -165 1482 -165 1456 -232 c 4,65,66
 1408 -358 1408 -358 1240 -358 c 4,67,68
 1088 -358 1088 -358 1000 -231 c 5,69,70
 938 -137 938 -137 919 1 c 5,71,-1
 497 1 l 5,72,-1
 476 68 l 5,73,-1
 493 78 l 5,74,75
 606 137 606 137 603 284 c 5,76,77
 603 374 603 374 561.5 427 c 132,-1,78
 520 480 520 480 441 484 c 5,79,80
 358 484 358 484 315.5 430 c 132,-1,81
 273 376 273 376 273 290 c 4,82,83
 273 128 273 128 380 78 c 5,84,-1
 405 69 l 5,85,-1
 372 -7 l 5,86,-1
 335 5 l 5,87,88
 240 38 240 38 187.5 103 c 132,-1,89
 135 168 135 168 135 294 c 4,90,91
 135 419 135 419 222.5 494.5 c 132,-1,92
 310 570 310 570 442 570 c 132,-1,93
 574 570 574 570 658.5 494.5 c 132,-1,94
 743 419 743 419 743 295 c 4,95,96
 743 170 743 170 662 86 c 5,97,-1
 908 86 l 5,98,-1
 908 88 l 5,99,100
 907 153 907 153 906 204 c 5,101,102
 906 492 906 492 1019 668 c 4,103,104
 1158 885 1158 885 1433 885 c 4,105,106
 1702 885 1702 885 1844 699 c 5,107,108
 1898 632 1898 632 1902 507 c 5,11,12
EndSplineSet
EndChar

StartChar: mo
Encoding: 3346 3346 112
Width: 1138
GlyphClass: 2
Flags: W
LayerCount: 2
Fore
SplineSet
598 259 m 4,0,1
 598 329 598 329 566 384 c 5,2,3
 533 438 533 438 458 444 c 132,-1,4
 383 450 383 450 330 409 c 4,5,6
 276 368 276 368 271 320 c 5,7,8
 273 244 273 244 303 190 c 4,9,10
 363 85 363 85 459 85 c 4,11,12
 598 85 598 85 598 259 c 4,0,1
274 479 m 5,13,14
 350 538 350 538 460.5 538 c 132,-1,15
 571 538 571 538 651 465 c 4,16,17
 730 392 730 392 730 262 c 4,18,19
 730 139 730 139 661 64 c 5,20,21
 583 -12 583 -12 463 -12 c 4,22,23
 378 -12 378 -12 312.5 28 c 132,-1,24
 247 68 247 68 202 146 c 5,25,26
 172 201 172 201 155 266.5 c 132,-1,27
 138 332 138 332 136 396 c 6,28,-1
 135 420 l 5,29,30
 135 464 135 464 140 504 c 5,31,32
 153 576 153 576 185.5 637 c 132,-1,33
 218 698 218 698 265 746 c 5,34,35
 335 812 335 812 430.5 848.5 c 132,-1,36
 526 885 526 885 641 885 c 4,37,38
 666 885 666 885 690.5 884.5 c 132,-1,39
 715 884 715 884 741 881 c 132,-1,40
 767 878 767 878 795.5 872 c 132,-1,41
 824 866 824 866 857 857 c 4,42,43
 920 838 920 838 983 797 c 5,44,45
 1111 711 1111 711 1111 575 c 4,46,47
 1111 546 1111 546 1103.5 521.5 c 132,-1,48
 1096 497 1096 497 1081 474 c 4,49,50
 1051 431 1051 431 1027 418 c 5,51,52
 1133 355 1133 355 1133 228 c 4,53,54
 1133 170 1133 170 1102.5 122.5 c 132,-1,55
 1072 75 1072 75 1015 42 c 5,56,57
 966 15 966 15 913 1 c 132,-1,58
 860 -13 860 -13 802 -13 c 5,59,60
 794 9 794 9 784 31 c 6,61,-1
 766 74 l 5,62,63
 871 74 871 74 938 119 c 5,64,65
 1001 168 1001 168 1001 236 c 4,66,67
 1001 311 1001 311 964 344 c 4,68,69
 937 367 937 367 875 367 c 4,70,71
 867 367 867 367 851 366.5 c 132,-1,72
 835 366 835 366 811 364 c 5,73,-1
 811 467 l 5,74,75
 818 467 818 467 827 466.5 c 132,-1,76
 836 466 836 466 842 466 c 4,77,78
 854 465 854 465 862 465 c 6,79,-1
 876 465 l 6,80,81
 885 465 885 465 894.5 466.5 c 132,-1,82
 904 468 904 468 914 471 c 4,83,84
 935 476 935 476 956 505 c 132,-1,85
 977 534 977 534 977 584 c 4,86,87
 977 642 977 642 917 705 c 5,88,89
 814 800 814 800 639 800 c 5,90,91
 547 798 547 798 474 766 c 132,-1,92
 401 734 401 734 351 678 c 5,93,94
 311 631 311 631 290 580.5 c 132,-1,95
 269 530 269 530 270 480 c 5,96,-1
 274 479 l 5,13,14
EndSplineSet
EndChar

StartChar: mk
Encoding: 3349 3349 115
Width: 1490
GlyphClass: 2
Flags: W
LayerCount: 2
Fore
SplineSet
487 126 m 1,0,1
 524 157 524 157 538 188 c 1,2,3
 507 256 507 256 489.5 314 c 128,-1,4
 472 372 472 372 470 421 c 1,5,-1
 413 421 l 2,6,7
 350 421 350 421 305 367 c 1,8,9
 268 316 268 316 268 257 c 0,10,11
 268 95 268 95 404 95 c 0,12,13
 447 95 447 95 487 126 c 1,0,1
610 421 m 1,14,15
 614 290 614 290 666 191 c 1,16,17
 694 148 694 148 730 119.5 c 128,-1,18
 766 91 766 91 808 91 c 0,19,20
 894 91 894 91 950 191 c 1,21,22
 1004 291 1004 291 1008 421 c 1,23,-1
 610 421 l 1,14,15
466 512 m 1,24,25
 474 649 474 649 536 739 c 1,26,27
 630 879 630 879 811 886 c 1,28,29
 984 877 984 877 1072 746 c 0,30,31
 1138 647 1138 647 1146 512 c 1,32,-1
 1187 512 l 2,33,34
 1238 512 1238 512 1294 498 c 256,35,36
 1350 484 1350 484 1384 455 c 1,37,38
 1427 424 1427 424 1456 374.5 c 128,-1,39
 1485 325 1485 325 1485 259 c 0,40,41
 1485 196 1485 196 1455 145 c 128,-1,42
 1425 94 1425 94 1371 58 c 1,43,44
 1329 34 1329 34 1283.5 21 c 128,-1,45
 1238 8 1238 8 1193 8 c 0,46,47
 1174 8 1174 8 1156 11 c 128,-1,48
 1138 14 1138 14 1120 21 c 1,49,50
 1114 43 1114 43 1110 66 c 128,-1,51
 1106 89 1106 89 1100 112 c 1,52,53
 1124 106 1124 106 1145 103 c 128,-1,54
 1166 100 1166 100 1184 100 c 256,55,56
 1202 100 1202 100 1214 103 c 0,57,58
 1236 109 1236 109 1253 117 c 128,-1,59
 1270 125 1270 125 1286 135 c 1,60,61
 1345 181 1345 181 1345 253 c 256,62,63
 1345 325 1345 325 1304 376 c 1,64,65
 1249 421 1249 421 1187 421 c 2,66,-1
 1148 421 l 1,67,68
 1146 342 1146 342 1120 268 c 128,-1,69
 1094 194 1094 194 1048 131 c 1,70,71
 996 67 996 67 937 34 c 128,-1,72
 878 1 878 1 813 1 c 0,73,74
 682 1 682 1 583 122 c 1,75,-1
 579 122 l 1,76,77
 562 94 562 94 540.5 73 c 128,-1,78
 519 52 519 52 495 35 c 1,79,80
 469 20 469 20 445.5 12 c 128,-1,81
 422 4 422 4 404 4 c 0,82,83
 353 4 353 4 306.5 20.5 c 128,-1,84
 260 37 260 37 218 70 c 1,85,86
 178 104 178 104 156.5 148.5 c 128,-1,87
 135 193 135 193 135 246 c 0,88,89
 135 355 135 355 212 429 c 0,90,91
 297 512 297 512 418 512 c 2,92,-1
 466 512 l 1,24,25
607 510 m 1,93,-1
 1009 510 l 1,94,95
 1004 604 1004 604 987 662 c 1,96,97
 968 723 968 723 922 758 c 128,-1,98
 876 793 876 793 818 793 c 0,99,100
 608 792 608 792 607 510 c 1,93,-1
EndSplineSet
Validated: 1
EndChar

StartChar: mK
Encoding: 3350 3350 116
Width: 1493
GlyphClass: 2
Flags: W
LayerCount: 2
Fore
SplineSet
453 492 m 132,-1,1
 374 492 374 492 329 433 c 4,2,3
 284 375 284 375 284 292 c 4,4,5
 284 208 284 208 328 144 c 4,6,7
 373 79 373 79 452 79 c 4,8,9
 532 79 532 79 577 139 c 5,10,11
 620 198 620 198 620 286 c 4,12,13
 620 377 620 377 577 434 c 4,14,0
 532 492 532 492 453 492 c 132,-1,1
940 746 m 5,15,16
 1074 608 1074 608 1074 406 c 4,17,18
 1074 364 1074 364 1063 319 c 132,-1,19
 1052 274 1052 274 1032 227 c 5,20,21
 1012 184 1012 184 988 148.5 c 132,-1,22
 964 113 964 113 941 92 c 5,23,-1
 1348 92 l 5,24,-1
 1348 885 l 5,25,-1
 1488 885 l 5,26,-1
 1488 1 l 5,27,-1
 816 1 l 5,28,29
 804 16 804 16 793 30 c 132,-1,30
 782 44 782 44 770 58 c 5,31,32
 850 131 850 131 892 218.5 c 132,-1,33
 934 306 934 306 934 406 c 4,34,35
 934 554 934 554 853 670 c 5,36,37
 762 788 762 788 607 796 c 5,38,39
 441 795 441 795 354 705 c 5,40,41
 266 611 266 611 267 486 c 5,42,43
 296 518 296 518 322 533 c 5,44,45
 355 555 355 555 392 566 c 132,-1,46
 429 577 429 577 470 577 c 4,47,48
 586 577 586 577 667 496 c 4,49,50
 748 416 748 416 748 290 c 4,51,52
 748 226 748 226 729 174.5 c 132,-1,53
 710 123 710 123 672 80 c 4,54,55
 596 -6 596 -6 462 -6 c 4,56,57
 293 -6 293 -6 206 132 c 5,58,59
 135 241 135 241 135 401 c 6,60,-1
 135 424 l 6,61,62
 135 635 135 635 263 760 c 5,63,64
 385 886 385 886 613 888 c 5,65,66
 814 883 814 883 940 746 c 5,15,16
EndSplineSet
EndChar

StartChar: mg
Encoding: 3351 3351 117
Width: 1388
GlyphClass: 2
Flags: W
LayerCount: 2
Fore
SplineSet
271 414 m 5,0,1
 264 293 264 293 330 178 c 5,2,3
 386 78 386 78 496 78 c 4,4,5
 690 78 690 78 690 415 c 4,6,7
 690 883 690 883 1022 883 c 4,8,9
 1103 883 1103 883 1172.5 845.5 c 132,-1,10
 1242 808 1242 808 1296 740 c 5,11,12
 1334 686 1334 686 1356 623 c 132,-1,13
 1378 560 1378 560 1384 495 c 5,14,-1
 1384 460 l 6,15,16
 1384 128 1384 128 1112 -17 c 5,17,-1
 1084 -29 l 5,18,-1
 1032 67 l 5,19,-1
 1063 79 l 5,20,21
 1237 164 1237 164 1247 413 c 5,22,23
 1262 598 1262 598 1198 682 c 5,24,25
 1136 791 1136 791 1021 791 c 4,26,27
 966 791 966 791 926 762.5 c 132,-1,28
 886 734 886 734 865 684 c 5,29,30
 848 640 848 640 839 572.5 c 132,-1,31
 830 505 830 505 830 415 c 4,32,33
 830 241 830 241 752 122 c 5,34,-1
 752 122 l 5,35,36
 656 -14 656 -14 495 -14 c 260,37,38
 334 -14 334 -14 234 117 c 5,39,40
 140 232 140 232 135 402 c 5,41,-1
 136 402 l 5,42,-1
 136 403 l 5,43,44
 135 734 135 734 407 879 c 5,45,-1
 435 892 l 5,46,-1
 488 796 l 5,47,-1
 457 784 l 5,48,49
 283 698 283 698 271 414 c 5,0,1
EndSplineSet
EndChar

StartChar: mG
Encoding: 3352 3352 118
Width: 2150
GlyphClass: 2
Flags: W
LayerCount: 2
Fore
SplineSet
1497 375 m 5,0,-1
 1497 522 l 5,1,2
 1496 573 1496 573 1495 603.5 c 132,-1,3
 1494 634 1494 634 1493 642 c 4,4,5
 1490 669 1490 669 1479 693 c 132,-1,6
 1468 717 1468 717 1449 735 c 4,7,8
 1420 763 1420 763 1381 779 c 132,-1,9
 1342 795 1342 795 1296 795 c 4,10,11
 1199 795 1199 795 1149 738 c 5,12,13
 1100 680 1100 680 1100 546 c 6,14,-1
 1100 375 l 5,15,-1
 1497 375 l 5,0,-1
962 376 m 5,16,-1
 962 536 l 6,17,18
 962 705 962 705 1022 777 c 4,19,20
 1116 890 1116 890 1291 889 c 4,21,22
 1379 888 1379 888 1446.5 859.5 c 132,-1,23
 1514 831 1514 831 1562 777 c 5,24,25
 1593 737 1593 737 1608.5 673 c 132,-1,26
 1624 609 1624 609 1624 522 c 6,27,-1
 1624 286 l 5,28,-1
 1100 286 l 5,29,-1
 1100 91 l 5,30,-1
 2008 91 l 5,31,-1
 2006 885 l 5,32,-1
 2145 885 l 5,33,-1
 2146 1 l 5,34,-1
 958 1 l 5,35,-1
 958 291 l 5,36,-1
 497 291 l 5,37,-1
 476 357 l 5,38,-1
 493 368 l 5,39,40
 606 427 606 427 603 575 c 5,41,42
 603 663 603 663 561.5 716.5 c 132,-1,43
 520 770 520 770 441 774 c 5,44,45
 358 774 358 774 315.5 720 c 132,-1,46
 273 666 273 666 273 579 c 4,47,48
 273 418 273 418 380 368 c 5,49,-1
 405 359 l 5,50,-1
 372 282 l 5,51,-1
 335 294 l 5,52,53
 240 327 240 327 187.5 393 c 132,-1,54
 135 459 135 459 135 584 c 4,55,56
 135 708 135 708 222.5 784 c 132,-1,57
 310 860 310 860 442 860 c 132,-1,58
 574 860 574 860 658.5 784 c 132,-1,59
 743 708 743 708 743 584.5 c 132,-1,60
 743 461 743 461 662 376 c 5,61,-1
 962 376 l 5,16,-1
EndSplineSet
EndChar

StartChar: mH
Encoding: 3353 3353 119
Width: 1616
GlyphClass: 2
Flags: W
LayerCount: 2
Fore
SplineSet
454 492 m 4,0,1
 374 492 374 492 329 433 c 5,2,3
 284 376 284 376 284 285 c 4,4,5
 284 243 284 243 294.5 207 c 132,-1,6
 305 171 305 171 328 138 c 4,7,8
 373 73 373 73 453 73 c 132,-1,9
 533 73 533 73 577 133 c 4,10,11
 620 192 620 192 620 279 c 4,12,13
 620 377 620 377 577 433 c 4,14,15
 533 492 533 492 454 492 c 4,0,1
599 885 m 5,16,17
 650 884 650 884 693 874.5 c 132,-1,18
 736 865 736 865 774.5 847 c 132,-1,19
 813 829 813 829 846.5 801 c 132,-1,20
 880 773 880 773 911 735 c 5,21,22
 941 779 941 779 982.5 809 c 132,-1,23
 1024 839 1024 839 1080 857 c 4,24,25
 1163 884 1163 884 1250 884 c 4,26,27
 1332 884 1332 884 1396.5 866.5 c 132,-1,28
 1461 849 1461 849 1509 813 c 5,29,30
 1605 746 1605 746 1605 622 c 4,31,32
 1605 499 1605 499 1506 429 c 5,33,34
 1553 405 1553 405 1582.5 359.5 c 132,-1,35
 1612 314 1612 314 1612 244 c 4,36,37
 1612 110 1612 110 1497 40 c 4,38,39
 1412 -11 1412 -11 1300 -11 c 4,40,41
 1196 -11 1196 -11 1090 50 c 5,42,-1
 1160 123 l 5,43,44
 1188 97 1188 97 1217 88 c 132,-1,45
 1246 79 1246 79 1292 79 c 4,46,47
 1382 79 1382 79 1432 132 c 4,48,49
 1477 180 1477 180 1477 231 c 4,50,51
 1477 255 1477 255 1465.5 281 c 132,-1,52
 1454 307 1454 307 1432 331 c 4,53,54
 1409 355 1409 355 1378.5 368 c 132,-1,55
 1348 381 1348 381 1311 381 c 6,56,-1
 1189 381 l 5,57,-1
 1189 483 l 5,58,-1
 1311 483 l 6,59,60
 1346 483 1346 483 1373 494.5 c 132,-1,61
 1400 506 1400 506 1422 529 c 4,62,63
 1465 575 1465 575 1465 631 c 4,64,65
 1465 686 1465 686 1424 733 c 5,66,67
 1396 762 1396 762 1354 778 c 132,-1,68
 1312 794 1312 794 1256 794 c 4,69,70
 1143 794 1143 794 1063 739 c 4,71,72
 1024 713 1024 713 1003.5 679.5 c 132,-1,73
 983 646 983 646 983 609 c 4,74,75
 983 457 983 457 982.5 305.5 c 132,-1,76
 982 154 982 154 982 2 c 5,77,-1
 842 2 l 5,78,-1
 842 603 l 6,79,80
 842 642 842 642 824 676 c 132,-1,81
 806 710 806 710 775 737 c 5,82,83
 710 789 710 789 586 795 c 5,84,85
 443 790 443 790 355 703 c 5,86,87
 266 611 266 611 268 490 c 5,88,89
 280 507 280 507 322 533 c 4,90,91
 356 554 356 554 392.5 565 c 132,-1,92
 429 576 429 576 471 576 c 4,93,94
 586 576 586 576 667 496 c 4,95,96
 748 415 748 415 748 283 c 4,97,98
 748 219 748 219 729 168 c 132,-1,99
 710 117 710 117 672 73 c 5,100,101
 596 -11 596 -11 463 -11 c 4,102,103
 294 -11 294 -11 206 127 c 5,104,105
 135 235 135 235 135 401 c 6,106,-1
 135 424 l 6,107,108
 135 634 135 634 259 755 c 5,109,110
 384 875 384 875 599 885 c 5,16,17
EndSplineSet
EndChar

StartChar: mc
Encoding: 3354 3354 120
Width: 1418
GlyphClass: 2
Flags: W
LayerCount: 2
Fore
SplineSet
1414 2 m 1,0,-1
 135 2 l 1,1,-1
 135 91 l 1,2,-1
 603 91 l 1,3,4
 725 135 725 135 725 302 c 0,5,6
 725 373 725 373 686 428 c 1,7,8
 665 455 665 455 634.5 469.5 c 128,-1,9
 604 484 604 484 565 484 c 0,10,11
 484 484 484 484 447 434 c 0,12,13
 410 385 410 385 410 315 c 0,14,15
 410 247 410 247 455 189 c 1,16,17
 435 179 435 179 416.5 169 c 128,-1,18
 398 159 398 159 377 148 c 1,19,20
 331 176 331 176 306 219 c 128,-1,21
 281 262 281 262 281 319 c 0,22,23
 281 380 281 380 306.5 429.5 c 128,-1,24
 332 479 332 479 380 515 c 1,25,26
 422 543 422 543 469.5 558.5 c 128,-1,27
 517 574 517 574 563 574 c 0,28,29
 687 574 687 574 774 501 c 1,30,-1
 774 502 l 1,31,32
 865 422 865 422 865 299.5 c 128,-1,33
 865 177 865 177 758 91 c 1,34,-1
 1275 91 l 1,35,-1
 1275 885 l 5,36,-1
 1414 885 l 5,37,-1
 1414 2 l 1,0,-1
EndSplineSet
EndChar

StartChar: mC
Encoding: 3355 3355 121
Width: 2050
GlyphClass: 2
Flags: W
LayerCount: 2
Fore
SplineSet
1559 287 m 4,0,1
 1559 199 1559 199 1602 139 c 4,2,3
 1624 109 1624 109 1655 94 c 132,-1,4
 1686 79 1686 79 1726 79 c 4,5,6
 1807 79 1807 79 1852 144 c 4,7,8
 1896 208 1896 208 1896 293 c 4,9,10
 1896 376 1896 376 1851 433 c 5,11,12
 1806 492 1806 492 1726 492 c 4,13,14
 1648 492 1648 492 1602 434 c 5,15,16
 1559 377 1559 377 1559 287 c 4,0,1
1597 795 m 4,17,18
 1404 797 1404 797 1304 666 c 5,19,20
 1264 608 1264 608 1244 543.5 c 132,-1,21
 1224 479 1224 479 1224 405 c 4,22,23
 1224 305 1224 305 1266 218 c 132,-1,24
 1308 131 1308 131 1384 68 c 5,25,-1
 1342 1 l 5,26,-1
 135 1 l 5,27,-1
 135 90 l 5,28,-1
 603 90 l 5,29,30
 725 134 725 134 725 300 c 4,31,32
 725 370 725 370 686 425 c 4,33,34
 666 453 666 453 635 467.5 c 132,-1,35
 604 482 604 482 565 482 c 4,36,37
 486 482 486 482 448 431 c 4,38,39
 410 381 410 381 410 313 c 4,40,41
 410 279 410 279 421 248.5 c 132,-1,42
 432 218 432 218 456 189 c 5,43,44
 436 178 436 178 417 168 c 132,-1,45
 398 158 398 158 377 147 c 5,46,47
 331 175 331 175 306 218 c 132,-1,48
 281 261 281 261 281 317 c 4,49,50
 281 377 281 377 306.5 427 c 132,-1,51
 332 477 332 477 380 513 c 5,52,53
 422 539 422 539 469.5 555 c 132,-1,54
 517 571 517 571 563 571 c 4,55,56
 688 571 688 571 774 498 c 5,57,-1
 774 499 l 5,58,59
 866 419 866 419 866 298 c 260,60,61
 866 177 866 177 758 90 c 5,62,-1
 825 90 l 5,63,-1
 1216 91 l 5,64,65
 1193 112 1193 112 1170 146.5 c 132,-1,66
 1147 181 1147 181 1125 227 c 5,67,68
 1084 320 1084 320 1084 405 c 4,69,70
 1084 507 1084 507 1117 590.5 c 132,-1,71
 1150 674 1150 674 1218 743 c 4,72,73
 1355 880 1355 880 1580 884 c 5,74,75
 1683 879 1683 879 1769.5 846.5 c 132,-1,76
 1856 814 1856 814 1916 757 c 4,77,78
 2045 632 2045 632 2045 423 c 6,79,-1
 2045 399 l 6,80,81
 2045 320 2045 320 2027.5 253.5 c 132,-1,82
 2010 187 2010 187 1974 131 c 4,83,84
 1886 -6 1886 -6 1717 -6 c 4,85,86
 1583 -6 1583 -6 1508 79 c 4,87,88
 1470 123 1470 123 1451 174 c 132,-1,89
 1432 225 1432 225 1432 288 c 4,90,91
 1432 413 1432 413 1512 495 c 5,92,93
 1592 574 1592 574 1709 574 c 5,94,95
 1797 576 1797 576 1858 543 c 4,96,97
 1899 521 1899 521 1916 507 c 5,98,99
 1913 609 1913 609 1826 701 c 5,100,101
 1780 748 1780 748 1723 771.5 c 132,-1,102
 1666 795 1666 795 1597 795 c 4,17,18
EndSplineSet
EndChar

StartChar: mj
Encoding: 3356 3356 122
Width: 1465
GlyphClass: 2
Flags: W
LayerCount: 2
Fore
SplineSet
806 245 m 5,0,-1
 417 245 l 6,1,2
 350 245 350 245 314 215 c 132,-1,3
 278 185 278 185 278 138 c 4,4,5
 278 31 278 31 413 31 c 4,6,7
 567 31 567 31 729 100 c 5,8,9
 834 153 834 153 1037 248 c 5,10,11
 944 244 944 244 806 245 c 5,0,-1
374 438 m 4,12,13
 469 438 469 438 469 548 c 4,14,15
 469 596 469 596 445.5 620.5 c 132,-1,16
 422 645 422 645 377 645 c 4,17,18
 329 645 329 645 306.5 619 c 132,-1,19
 284 593 284 593 284 551 c 4,20,21
 284 496 284 496 305 467 c 132,-1,22
 326 438 326 438 374 438 c 4,12,13
1332 125 m 4,23,24
 1332 210 1332 210 1237 210 c 4,25,26
 1155 210 1155 210 1028 135 c 5,27,28
 1064 26 1064 26 1199 26 c 4,29,30
 1332 26 1332 26 1332 125 c 4,23,24
797 771 m 5,31,32
 913 884 913 884 1084 884 c 5,33,34
 1239 886 1239 886 1349.5 799.5 c 132,-1,35
 1460 713 1460 713 1460 578 c 4,36,37
 1460 375 1460 375 1277 299 c 5,38,39
 1349 291 1349 291 1394 250 c 4,40,41
 1448 200 1448 200 1448 112 c 132,-1,42
 1448 24 1448 24 1377.5 -27.5 c 132,-1,43
 1307 -79 1307 -79 1202 -79 c 260,44,45
 1097 -79 1097 -79 1017.5 -33 c 132,-1,46
 938 13 938 13 905 87 c 5,47,48
 745 6 745 6 683 -13 c 5,49,50
 548 -66 548 -66 405 -66 c 4,51,52
 281 -66 281 -66 210 -17.5 c 132,-1,53
 139 31 139 31 139 125 c 260,54,55
 139 219 139 219 217 273 c 4,56,57
 254 299 254 299 296 311 c 5,58,59
 356 326 356 326 434 326 c 6,60,-1
 826 326 l 6,61,62
 1058 326 1058 326 1155 362 c 5,63,64
 1304 415 1304 415 1304 574 c 4,65,66
 1304 675 1304 675 1247 733 c 132,-1,67
 1190 791 1190 791 1082 792 c 5,68,69
 983 791 983 791 923.5 737.5 c 132,-1,70
 864 684 864 684 864 596 c 6,71,-1
 864 374 l 5,72,-1
 731 374 l 5,73,-1
 731 551 l 6,74,75
 731 643 731 643 711 680 c 5,76,77
 659 790 659 790 494 792 c 5,78,79
 423 797 423 797 376 783 c 5,80,81
 299 755 299 755 265 684 c 5,82,-1
 266 686 l 5,83,84
 315 718 315 718 396 718 c 4,85,86
 434 718 434 718 469.5 707 c 132,-1,87
 505 696 505 696 530 676 c 5,88,89
 585 628 585 628 590 560 c 5,90,91
 592 465 592 465 533 414 c 5,92,93
 476 359 476 359 367 359 c 5,94,95
 260 361 260 361 197 430 c 260,96,97
 134 499 134 499 135 600 c 5,98,99
 135 733 135 733 227 807 c 5,100,101
 270 845 270 845 333 864 c 132,-1,102
 396 883 396 883 486 883 c 4,103,104
 519 883 519 883 550 878 c 5,105,106
 711 859 711 859 797 771 c 5,31,32
EndSplineSet
EndChar

StartChar: mJ
Encoding: 3357 3357 123
Width: 2487
GlyphClass: 2
Flags: W
LayerCount: 2
Fore
SplineSet
778 91 m 132,-1,1
 857 91 857 91 899 172 c 4,2,3
 941 251 941 251 941 367 c 4,4,5
 941 612 941 612 785 731 c 5,6,7
 743 701 743 701 710.5 659.5 c 132,-1,8
 678 618 678 618 656 566 c 5,9,10
 616 466 616 466 616 359 c 4,11,12
 616 250 616 250 655 174 c 5,13,0
 699 91 699 91 778 91 c 132,-1,1
2123 -1 m 5,14,15
 1952 4 1952 4 1856 140 c 5,16,17
 1730 -1 1730 -1 1579 -1 c 4,18,19
 1478 -1 1478 -1 1406.5 32.5 c 132,-1,20
 1335 66 1335 66 1292 130 c 5,21,22
 1264 180 1264 180 1248.5 251 c 132,-1,23
 1233 322 1233 322 1233 411 c 4,24,25
 1233 427 1233 427 1233.5 443.5 c 132,-1,26
 1234 460 1234 460 1235 474 c 5,27,-1
 1235 516 l 6,28,29
 1235 796 1235 796 1016 796 c 4,30,31
 953 796 953 796 881 770 c 5,32,33
 899 758 899 758 917 741 c 132,-1,34
 935 724 935 724 955 700 c 5,35,36
 972 676 972 676 990 648 c 132,-1,37
 1008 620 1008 620 1023 592 c 5,38,39
 1049 538 1049 538 1063 479.5 c 132,-1,40
 1077 421 1077 421 1077 360 c 4,41,42
 1077 354 1077 354 1076.5 348 c 132,-1,43
 1076 342 1076 342 1076 336 c 4,44,45
 1071 199 1071 199 982 100 c 5,46,47
 890 2 890 2 773 2 c 4,48,49
 655 2 655 2 565 109 c 4,50,51
 476 216 476 216 476 349 c 4,52,53
 476 414 476 414 493.5 479.5 c 132,-1,54
 511 545 511 545 544 605 c 5,55,56
 561 633 561 633 579 658 c 132,-1,57
 597 683 597 683 617 706 c 4,58,59
 656 749 656 749 688 772 c 5,60,61
 639 796 639 796 572 796 c 4,62,63
 509 796 509 796 455 768.5 c 132,-1,64
 401 741 401 741 359 692 c 4,65,66
 319 645 319 645 297 585.5 c 132,-1,67
 275 526 275 526 272 454 c 5,68,69
 281 172 281 172 455 88 c 5,70,-1
 485 76 l 5,71,-1
 433 -19 l 5,72,-1
 405 -6 l 5,73,74
 133 137 133 137 135 485 c 5,75,76
 140 565 140 565 176.5 641.5 c 132,-1,77
 213 718 213 718 272 770 c 4,78,79
 336 826 336 826 410.5 856 c 132,-1,80
 485 886 485 886 566 886 c 4,81,82
 620 886 620 886 673 872 c 132,-1,83
 726 858 726 858 779 831 c 5,84,85
 844 857 844 857 902.5 870.5 c 132,-1,86
 961 884 961 884 1014 884 c 4,87,88
 1376 884 1376 884 1376 520 c 4,89,90
 1376 514 1376 514 1376 504.5 c 132,-1,91
 1376 495 1376 495 1376 489 c 4,92,93
 1375 468 1375 468 1374.5 437 c 132,-1,94
 1374 406 1374 406 1374 363 c 4,95,96
 1374 276 1374 276 1390 219 c 260,97,98
 1406 162 1406 162 1455 125.5 c 132,-1,99
 1504 89 1504 89 1577 89 c 4,100,101
 1614 89 1614 89 1649 106.5 c 132,-1,102
 1684 124 1684 124 1716 157 c 5,103,104
 1746 190 1746 190 1764.5 221 c 132,-1,105
 1783 252 1783 252 1783 277 c 6,106,-1
 1783 886 l 5,107,-1
 1924 886 l 5,108,-1
 1924 276 l 6,109,110
 1924 260 1924 260 1937 234.5 c 132,-1,111
 1950 209 1950 209 1974 176 c 4,112,113
 2006 133 2006 133 2046 112 c 5,114,115
 2081 91 2081 91 2121 90 c 5,116,117
 2232 90 2232 90 2294 192 c 5,118,119
 2354 302 2354 302 2347 421 c 5,120,121
 2335 702 2335 702 2161 786 c 5,122,-1
 2130 798 l 5,123,-1
 2183 893 l 5,124,-1
 2210 880 l 5,125,126
 2483 737 2483 737 2482 410 c 5,127,-1
 2482 409 l 5,128,-1
 2483 409 l 5,129,130
 2478 241 2478 241 2384 127 c 5,131,132
 2288 4 2288 4 2123 -1 c 5,14,15
EndSplineSet
EndChar

StartChar: mw
Encoding: 3358 3358 124
Width: 2215
GlyphClass: 2
Flags: W
LayerCount: 2
Fore
SplineSet
284 288 m 4,0,1
 284 182 284 182 328 118 c 4,2,3
 373 53 373 53 452 53 c 4,4,5
 532 53 532 53 577 113 c 4,6,7
 620 171 620 171 620 267 c 4,8,9
 620 373 620 373 577 429 c 4,10,11
 532 487 532 487 453 487 c 132,-1,12
 374 487 374 487 329 428 c 5,13,14
 284 371 284 371 284 288 c 4,0,1
1488 69 m 132,-1,16
 1556 69 1556 69 1603 153 c 4,17,18
 1651 239 1651 239 1654 341 c 5,19,20
 1654 442 1654 442 1612 542 c 5,21,22
 1572 641 1572 641 1490 705 c 5,23,-1
 1486 705 l 5,24,25
 1401 633 1401 633 1364 542 c 5,26,27
 1322 442 1322 442 1322 341 c 5,28,29
 1325 239 1325 239 1373 153 c 4,30,15
 1420 69 1420 69 1488 69 c 132,-1,16
1210 788 m 5,31,32
 1136 776 1136 776 1078 735 c 5,33,34
 1002 678 1002 678 1002 607 c 6,35,-1
 1002 2 l 5,36,-1
 861 2 l 5,37,-1
 862 609 l 6,38,39
 862 680 862 680 783 738 c 4,40,41
 707 795 707 795 598 791 c 5,42,43
 442 790 442 790 354 699 c 5,44,45
 267 607 267 607 272 484 c 5,46,47
 302 516 302 516 322 529 c 4,48,49
 355 549 355 549 392 560 c 132,-1,50
 429 571 429 571 471 571 c 4,51,52
 586 571 586 571 668 491 c 5,53,54
 748 411 748 411 748 285 c 4,55,56
 748 139 748 139 673 53 c 5,57,58
 597 -31 597 -31 463 -31 c 4,59,60
 295 -31 295 -31 206 106 c 4,61,62
 135 215 135 215 135 397 c 6,63,-1
 135 419 l 6,64,65
 135 629 135 629 261 752 c 4,66,67
 388 876 388 876 602 879 c 4,68,69
 665 879 665 879 706.5 870 c 132,-1,70
 748 861 748 861 784 847 c 5,71,72
 838 822 838 822 876 792.5 c 132,-1,73
 914 763 914 763 937 729 c 5,74,75
 1046 882 1046 882 1251 877 c 5,76,77
 1396 865 1396 865 1490 811 c 5,78,79
 1606 873 1606 873 1759 873 c 4,80,81
 1816 873 1816 873 1876 854.5 c 132,-1,82
 1936 836 1936 836 1996 801 c 4,83,84
 2014 791 2014 791 2032 778 c 132,-1,85
 2050 765 2050 765 2066 752 c 5,86,-1
 2066 753 l 5,87,88
 2128 695 2128 695 2163.5 625.5 c 132,-1,89
 2199 556 2199 556 2208 475 c 4,90,91
 2209 466 2209 466 2210 447 c 5,92,93
 2204 117 2204 117 1939 -23 c 5,94,-1
 1911 -35 l 5,95,-1
 1858 61 l 5,96,-1
 1889 73 l 5,97,98
 2059 156 2059 156 2073 394 c 5,99,100
 2072 421 2072 421 2068 463 c 4,101,102
 2057 583 2057 583 1981 675 c 5,103,104
 1889 783 1889 783 1759 783 c 4,105,106
 1651 783 1651 783 1591 752 c 5,107,108
 1793 577 1793 577 1793 348 c 5,109,110
 1778 187 1778 187 1697 87 c 5,111,112
 1603 -21 1603 -21 1485 -21 c 4,113,114
 1373 -21 1373 -21 1279 87 c 5,115,116
 1198 187 1198 187 1183 348 c 5,117,118
 1183 573 1183 573 1386 752 c 5,119,120
 1311 791 1311 791 1210 788 c 5,31,32
EndSplineSet
EndChar

StartChar: mt
Encoding: 3359 3359 125
Width: 887
GlyphClass: 2
Flags: W
LayerCount: 2
Fore
SplineSet
882 249 m 4,0,1
 882 179 882 179 849 125.5 c 132,-1,2
 816 72 816 72 755 39 c 5,3,4
 706 16 706 16 646 2.5 c 132,-1,5
 586 -11 586 -11 518 -11 c 4,6,7
 474 -11 474 -11 431 -4 c 132,-1,8
 388 3 388 3 347 15 c 4,9,10
 308 27 308 27 275 40.5 c 132,-1,11
 242 54 242 54 220.5 67.5 c 132,-1,12
 199 81 199 81 176.5 101 c 132,-1,13
 154 121 154 121 135 144 c 5,14,15
 155 165 155 165 175.5 186 c 132,-1,16
 196 207 196 207 217 229 c 5,17,18
 260 162 260 162 351 117 c 5,19,20
 394 99 394 99 435 89.5 c 132,-1,21
 476 80 476 80 518 80 c 4,22,23
 760 80 760 80 760 249 c 4,24,25
 760 300 760 300 707 340 c 5,26,27
 641 387 641 387 526 387 c 4,28,29
 160 387 160 387 160 609 c 4,30,31
 160 681 160 681 192 737.5 c 132,-1,32
 224 794 224 794 286 833 c 5,33,34
 326 855 326 855 382.5 868.5 c 132,-1,35
 439 882 439 882 507 884 c 5,36,37
 618 879 618 879 709.5 838.5 c 132,-1,38
 801 798 801 798 866 722 c 5,39,40
 842 704 842 704 818 685.5 c 132,-1,41
 794 667 794 667 771 648 c 5,42,43
 674 781 674 781 508 781 c 4,44,45
 404 781 404 781 341 729 c 5,46,47
 280 682 280 682 280 609 c 4,48,49
 280 477 280 477 526 477 c 4,50,51
 882 477 882 477 882 249 c 4,0,1
EndSplineSet
EndChar

StartChar: mT
Encoding: 3360 3360 126
Width: 1047
GlyphClass: 2
Flags: W
LayerCount: 2
Fore
SplineSet
912 754 m 4,0,1
 1042 622 1042 622 1042 429 c 4,2,3
 1042 332 1042 332 1008 253 c 132,-1,4
 974 174 974 174 903 113 c 4,5,6
 834 53 834 53 755.5 23 c 132,-1,7
 677 -7 677 -7 590 -7 c 4,8,9
 412 -7 412 -7 274 116 c 4,10,11
 135 239 135 239 135 429 c 4,12,13
 135 618 135 618 272 753 c 5,14,15
 410 885 410 885 596 885 c 260,16,17
 782 885 782 885 912 754 c 4,0,1
598 795 m 4,18,19
 440 795 440 795 351 680 c 5,20,21
 274 568 274 568 274 431 c 260,22,23
 274 294 274 294 360 190 c 5,24,25
 452 84 452 84 592 84 c 4,26,27
 728 84 728 84 819 189 c 5,28,29
 904 290 904 290 904 430 c 132,-1,30
 904 570 904 570 820 683 c 4,31,32
 737 795 737 795 598 795 c 4,18,19
EndSplineSet
EndChar

StartChar: md
Encoding: 3361 3361 127
Width: 1974
GlyphClass: 2
Flags: W
LayerCount: 2
Fore
SplineSet
1946 275 m 5,0,1
 1926 202 1926 202 1876 137 c 5,2,3
 1822 72 1822 72 1752 39 c 132,-1,4
 1682 6 1682 6 1595 6 c 4,5,6
 1448 6 1448 6 1354 160 c 5,7,8
 1259 7 1259 7 1087 7 c 4,9,10
 739 7 739 7 739 458 c 4,11,12
 739 623 739 623 692 713 c 5,13,14
 637 804 637 804 514 804 c 5,15,16
 392 791 392 791 338 698 c 5,17,18
 277 602 277 602 277 443 c 5,19,20
 273 171 273 171 503 66 c 5,21,-1
 452 -24 l 5,22,-1
 427 -13 l 5,23,24
 289 45 289 45 212 169 c 4,25,26
 135 292 135 292 135 443 c 4,27,28
 135 651 135 651 245 770 c 4,29,30
 358 891 358 891 549 891 c 5,31,32
 879 877 879 877 879 458 c 4,33,34
 879 279 879 279 912 200 c 5,35,36
 958 99 958 99 1089 99 c 4,37,38
 1168 99 1168 99 1226 155 c 4,39,40
 1282 209 1282 209 1282 266 c 6,41,-1
 1282 885 l 5,42,-1
 1424 885 l 5,43,-1
 1424 274 l 5,44,45
 1430 211 1430 211 1468 171 c 5,46,47
 1510 99 1510 99 1594 99 c 4,48,49
 1718 99 1718 99 1774 197 c 4,50,51
 1858 344 1858 344 1821 540 c 4,52,53
 1785 729 1785 729 1603 811 c 5,54,-1
 1654 902 l 5,55,-1
 1679 891 l 5,56,57
 1825 830 1825 830 1894 709 c 4,58,59
 2012 502 2012 502 1946 275 c 5,0,1
EndSplineSet
EndChar

StartChar: mD
Encoding: 3362 3362 128
Width: 2145
GlyphClass: 2
Flags: W
LayerCount: 2
Fore
SplineSet
1990 602 m 4,0,1
 1990 642 1990 642 1978.5 680 c 132,-1,2
 1967 718 1967 718 1946 749 c 4,3,4
 1924 780 1924 780 1892.5 797 c 132,-1,5
 1861 814 1861 814 1820 814 c 4,6,7
 1740 814 1740 814 1696 754 c 4,8,9
 1653 694 1653 694 1653 606 c 4,10,11
 1653 521 1653 521 1696 462 c 4,12,13
 1738 405 1738 405 1819 405 c 132,-1,14
 1900 405 1900 405 1945 462 c 4,15,16
 1990 520 1990 520 1990 602 c 4,0,1
1691 90 m 5,17,18
 1834 96 1834 96 1922 188 c 4,19,20
 2009 278 2009 278 2012 395 c 5,21,22
 1916 316 1916 316 1809 316 c 6,23,-1
 1805 316 l 6,24,25
 1691 316 1691 316 1608 396 c 5,26,27
 1528 476 1528 476 1528 601 c 260,28,29
 1528 726 1528 726 1603 811 c 5,30,31
 1678 898 1678 898 1814 898 c 4,32,33
 1895 898 1895 898 1960.5 860.5 c 132,-1,34
 2026 823 2026 823 2071 760 c 5,35,36
 2104 705 2104 705 2122 636.5 c 132,-1,37
 2140 568 2140 568 2140 490 c 6,38,-1
 2140 468 l 6,39,40
 2140 256 2140 256 2011 130 c 4,41,42
 1882 3 1882 3 1662 3 c 5,43,44
 1448 6 1448 6 1354 160 c 5,45,46
 1259 7 1259 7 1087 7 c 4,47,48
 739 7 739 7 739 458 c 4,49,50
 739 623 739 623 692 714 c 5,51,52
 637 804 637 804 514 804 c 5,53,54
 392 791 392 791 338 698 c 5,55,56
 277 602 277 602 277 444 c 6,57,-1
 277 435 l 6,58,59
 277 169 277 169 503 66 c 5,60,-1
 452 -24 l 5,61,-1
 427 -13 l 5,62,63
 289 45 289 45 212 169 c 4,64,65
 135 292 135 292 135 444 c 4,66,67
 135 652 135 652 245 770 c 4,68,69
 358 891 358 891 547 891 c 6,70,-1
 549 891 l 5,71,72
 879 877 879 877 879 458 c 4,73,74
 879 280 879 280 912 200 c 5,75,76
 958 100 958 100 1089 100 c 4,77,78
 1168 100 1168 100 1226 155 c 4,79,80
 1282 209 1282 209 1282 266 c 6,81,-1
 1282 885 l 5,82,-1
 1424 885 l 5,83,-1
 1424 274 l 6,84,85
 1424 214 1424 214 1478 156 c 5,86,87
 1558 90 1558 90 1682 90 c 6,88,-1
 1691 90 l 5,17,18
EndSplineSet
EndChar

StartChar: mN
Encoding: 3363 3363 129
Width: 2177
GlyphClass: 2
Flags: W
LayerCount: 2
Fore
SplineSet
284 281 m 0,0,1
 284 198 284 198 328.5 133 c 128,-1,2
 373 68 373 68 453 68 c 128,-1,3
 533 68 533 68 578 128 c 1,4,5
 621 187 621 187 621 276 c 0,6,7
 621 380 621 380 578 435 c 0,8,9
 533 493 533 493 454 493 c 0,10,11
 376 493 376 493 329 434 c 0,12,13
 284 378 284 378 284 281 c 0,0,1
1993 684 m 1,14,15
 1966 735 1966 735 1921 765.5 c 128,-1,16
 1876 796 1876 796 1791 796 c 0,17,18
 1684 796 1684 796 1627 728 c 256,19,20
 1570 660 1570 660 1570 566 c 2,21,-1
 1570 2 l 5,22,-1
 1429 2 l 5,23,-1
 1429 566 l 2,24,25
 1429 660 1429 660 1384 724 c 1,26,27
 1340 794 1340 794 1240 796 c 0,28,29
 1147 798 1147 798 1091 746 c 1,30,31
 1018 685 1018 685 1018 603 c 2,32,-1
 1018 2 l 5,33,-1
 878 2 l 5,34,-1
 878 627 l 2,35,36
 878 677 878 677 812 732 c 1,37,38
 748 787 748 787 627 798 c 1,39,40
 442 796 442 796 355 704 c 1,41,42
 266 612 266 612 276 495 c 1,43,44
 292 516 292 516 322 535 c 0,45,46
 389 577 389 577 472 577 c 0,47,48
 586 577 586 577 668 498 c 1,49,50
 748 417 748 417 748 278 c 0,51,52
 748 155 748 155 673 68 c 1,53,54
 597 -16 597 -16 464 -16 c 0,55,56
 296 -16 296 -16 206 122 c 0,57,58
 135 230 135 230 135 402 c 2,59,-1
 135 426 l 2,60,61
 135 636 135 636 264 759 c 0,62,63
 330 822 330 822 421 853.5 c 128,-1,64
 512 885 512 885 620 887 c 1,65,66
 730 882 730 882 806.5 847 c 128,-1,67
 883 812 883 812 946 738 c 1,68,69
 1059 886 1059 886 1232 884 c 1,70,71
 1410 883 1410 883 1499 745 c 1,72,73
 1597 884 1597 884 1798 884 c 0,74,75
 2007.66 884 2007.66 884 2105 730 c 0,76,77
 2172 624 2172 624 2172 443 c 0,78,79
 2172 292 2172 292 2096 170 c 1,80,81
 2018 47 2018 47 1855 -21 c 1,82,-1
 1804 68 l 1,83,84
 2034 171 2034 171 2038 455 c 1,85,86
 2032 596 2032 596 1993 684 c 1,14,15
EndSplineSet
EndChar

StartChar: mx
Encoding: 3364 3364 130
Width: 1582
GlyphClass: 2
Flags: W
LayerCount: 2
Fore
SplineSet
855 80 m 128,-1,1
 923 80 923 80 970 164 c 0,2,3
 1018 250 1018 250 1021 352 c 1,4,5
 1021 453 1021 453 980 553 c 0,6,7
 939 652 939 652 856 716 c 1,8,-1
 854 716 l 1,9,10
 768 644 768 644 730 553 c 0,11,12
 689 453 689 453 689 352 c 1,13,14
 692 250 692 250 740 164 c 0,15,0
 787 80 787 80 855 80 c 128,-1,1
852 -10 m 0,16,17
 740 -10 740 -10 646 97 c 1,18,19
 565 198 565 198 550 359 c 1,20,21
 550 584 550 584 753 763 c 1,22,23
 684 793 684 793 580 794 c 1,24,25
 443 778 443 778 364 685 c 1,26,27
 288 591 288 591 277 471 c 0,28,29
 274 437 274 437 272 409 c 1,30,31
 286 168 286 168 456 84 c 1,32,-1
 487 72 l 1,33,-1
 434 -25 l 1,34,-1
 406 -12 l 1,35,36
 142 130 142 130 135 456 c 1,37,38
 136 474 136 474 137 483 c 0,39,40
 146 565 146 565 181.5 635.5 c 128,-1,41
 217 706 217 706 280 764 c 1,42,-1
 280 763 l 1,43,44
 295 777 295 777 313.5 789.5 c 128,-1,45
 332 802 332 802 349 813 c 0,46,47
 410 849 410 849 470 867.5 c 128,-1,48
 530 886 530 886 586 886 c 0,49,50
 751 884 751 884 856 822 c 1,51,52
 974 885 974 885 1126 885 c 0,53,54
 1183 885 1183 885 1243 866 c 128,-1,55
 1303 847 1303 847 1364 813 c 1,56,57
 1381 802 1381 802 1399.5 789 c 128,-1,58
 1418 776 1418 776 1432 763 c 1,59,-1
 1432 764 l 1,60,61
 1496 706 1496 706 1531 636.5 c 128,-1,62
 1566 567 1566 567 1575 486 c 0,63,64
 1576 477 1576 477 1577 459 c 1,65,66
 1570 129 1570 129 1306 -12 c 1,67,-1
 1278 -24 l 1,68,-1
 1226 72 l 1,69,-1
 1256 84 l 1,70,71
 1426 167 1426 167 1440 405 c 1,72,73
 1438 432 1438 432 1436 474 c 1,74,75
 1424 594 1424 594 1348 686 c 1,76,77
 1256 794 1256 794 1126 794 c 0,78,79
 1018 794 1018 794 958 763 c 1,80,81
 1160 588 1160 588 1160 359 c 1,82,83
 1145 198 1145 198 1064 97 c 1,84,85
 970 -10 970 -10 852 -10 c 0,16,17
EndSplineSet
Validated: 1
EndChar

StartChar: mX
Encoding: 3365 3365 131
Width: 1392
GlyphClass: 2
Flags: W
LayerCount: 2
Fore
SplineSet
1252 105 m 5,0,-1
 1252 560 l 6,1,2
 1252 658 1252 658 1199.5 724 c 132,-1,3
 1147 790 1147 790 1025 790 c 4,4,5
 904 790 904 790 844 724 c 5,6,7
 784 656 784 656 784 560 c 6,8,-1
 784 105 l 5,9,-1
 1252 105 l 5,0,-1
135 1 m 5,10,-1
 135 886 l 5,11,-1
 277 886 l 5,12,-1
 277 93 l 5,13,-1
 642 92 l 5,14,-1
 642 560 l 6,15,16
 642 710 642 710 746 801 c 260,17,18
 850 892 850 892 1016 892 c 4,19,20
 1123 892 1123 892 1200 852 c 132,-1,21
 1277 812 1277 812 1322 741 c 5,22,23
 1353 683 1353 683 1370.5 618.5 c 132,-1,24
 1388 554 1388 554 1388 489 c 4,25,26
 1387 366 1387 366 1386 246 c 132,-1,27
 1385 126 1385 126 1384 3 c 5,28,-1
 135 1 l 5,10,-1
EndSplineSet
EndChar

StartChar: mf
Encoding: 3366 3366 132
Width: 1079
GlyphClass: 2
Flags: W
LayerCount: 2
Fore
SplineSet
606 887 m 5,0,1
 813 887 813 887 914 825 c 5,2,3
 1053 746 1053 746 1053 618 c 6,4,-1
 1053 614 l 6,5,6
 1053 492 1053 492 963 441 c 5,7,8
 984 427 984 427 1003 409 c 132,-1,9
 1022 391 1022 391 1040 366 c 4,10,11
 1074 317 1074 317 1074 245 c 4,12,13
 1074 108 1074 108 968 46 c 5,14,15
 885 -5 885 -5 753 -5 c 4,16,17
 688 -5 688 -5 637 3 c 4,18,19
 622 5 622 5 604 8 c 5,20,-1
 602 127 l 5,21,22
 630 107 630 107 673 93.5 c 132,-1,23
 716 80 716 80 738 80 c 4,24,25
 782 80 782 80 818 88.5 c 132,-1,26
 854 97 854 97 882 117 c 5,27,28
 939 153 939 153 939 237 c 4,29,30
 939 313 939 313 887 349 c 5,31,32
 861 365 861 365 815 374.5 c 132,-1,33
 769 384 769 384 705 384 c 6,34,-1
 622 384 l 5,35,-1
 622 497 l 5,36,-1
 712 497 l 6,37,38
 768 497 768 497 807 504 c 132,-1,39
 846 511 846 511 870.5 525 c 132,-1,40
 895 539 895 539 905.5 560.5 c 132,-1,41
 916 582 916 582 916 613 c 4,42,43
 916 709 916 709 838 758 c 5,44,45
 782 797 782 797 606 799 c 5,46,47
 458 797 458 797 368 691 c 5,48,49
 274 583 274 583 271 433 c 5,50,-1
 271 427 l 6,51,52
 271 199 271 199 362 48 c 5,53,-1
 257 -29 l 5,54,55
 135 157 135 157 135 436 c 4,56,57
 135 631 135 631 266 757 c 4,58,59
 395 881 395 881 606 887 c 5,0,1
EndSplineSet
EndChar

StartChar: mF
Encoding: 3367 3367 133
Width: 1583
GlyphClass: 2
Flags: W
LayerCount: 2
Fore
SplineSet
923 247 m 6,0,1
 922.6 246.2 922.6 246.2 924 242 c 4,2,3
 928 209 928 209 934 191 c 5,4,5
 1002 70 1002 70 1134 70 c 5,6,7
 1282 77 1282 77 1358 180 c 5,8,9
 1430.74 271.42 1430.74 271.42 1442 399 c 4,10,11
 1445 433 1445 433 1447 460 c 5,12,13
 1433 699 1433 699 1270 782 c 5,14,-1
 1232 801 l 5,15,-1
 1283 893 l 5,16,-1
 1318 876 l 5,17,18
 1572 736 1572 736 1579 414 c 5,19,20
 1577 395 1577 395 1576 387 c 4,21,22
 1568 298 1568 298 1534 228.5 c 132,-1,23
 1500 159 1500 159 1439 102 c 5,24,-1
 1439 103 l 5,25,26
 1425 89 1425 89 1407.5 77 c 132,-1,27
 1390 65 1390 65 1373 53 c 5,28,29
 1315 18 1315 18 1257 -0.5 c 132,-1,30
 1199 -19 1199 -19 1142 -19 c 4,31,32
 975 -19 975 -19 857 93 c 5,33,34
 739 -15 739 -15 572 -15 c 4,35,36
 514 -15 514 -15 456.5 3.5 c 132,-1,37
 399 22 399 22 340 57 c 5,38,39
 324 69 324 69 306.5 81 c 132,-1,40
 289 93 289 93 274 107 c 5,41,-1
 274 106 l 5,42,43
 214 163 214 163 180 232.5 c 132,-1,44
 146 302 146 302 137 383 c 4,45,46
 136 392 136 392 135 418 c 5,47,48
 142 740 142 740 396 880 c 5,49,-1
 440 897 l 5,50,-1
 483 805 l 5,51,-1
 444 785 l 6,52,53
 279.938 700.865 279.938 700.865 267 464 c 5,54,55
 268 437 268 437 272 395 c 4,56,57
 282 276 282 276 356 184 c 4,58,59
 431 92 431 92 566 74 c 5,60,61
 729 85 729 85 779 195 c 5,62,63
 786 213 786 213 790 246 c 132,-1,64
 794 279 794 279 794 327 c 6,65,-1
 794 871 l 5,66,-1
 918 871 l 5,67,-1
 919 327 l 6,68,69
 919.09 277.992 919.09 277.992 922 245 c 5,70,-1
 923 247 l 6,0,1
EndSplineSet
EndChar

StartChar: mn
Encoding: 3368 3368 134
Width: 1583
GlyphClass: 2
Flags: W
LayerCount: 2
Fore
SplineSet
922 622 m 5,0,1
 919 589 919 589 919 542 c 6,2,-1
 918 2 l 5,3,-1
 794 2 l 5,4,-1
 794 542 l 6,5,6
 794 590 794 590 790 622.5 c 132,-1,7
 786 655 786 655 779 673 c 5,8,9
 729 783 729 783 566 794 c 5,10,11
 431 776 431 776 356 684 c 4,12,13
 282 592 282 592 272 472 c 4,14,15
 268 431 268 431 267 404 c 5,16,17
 280 166 280 166 444 82 c 5,18,-1
 483 63 l 5,19,-1
 440 -28 l 5,20,-1
 396 -12 l 5,21,22
 142 128 142 128 135 450 c 5,23,24
 136 476 136 476 137 485 c 4,25,26
 146 566 146 566 180 635.5 c 132,-1,27
 214 705 214 705 274 762 c 5,28,-1
 274 761 l 5,29,30
 289 775 289 775 306.5 787.5 c 132,-1,31
 324 800 324 800 340 811 c 5,32,33
 399 846 399 846 456.5 864.5 c 132,-1,34
 514 883 514 883 572 883 c 4,35,36
 739 883 739 883 857 776 c 5,37,38
 975 886 975 886 1142 886 c 4,39,40
 1199 886 1199 886 1257 868 c 132,-1,41
 1315 850 1315 850 1373 814 c 4,42,43
 1390 803 1390 803 1407.5 790.5 c 132,-1,44
 1425 778 1425 778 1439 765 c 5,45,-1
 1439 766 l 5,46,47
 1500 709 1500 709 1534 639.5 c 132,-1,48
 1568 570 1568 570 1576 482 c 4,49,50
 1577 472 1577 472 1579 454 c 5,51,52
 1572 132 1572 132 1318 -8 c 5,53,-1
 1283 -25 l 5,54,-1
 1232 67 l 5,55,-1
 1270 86 l 5,56,57
 1433 170 1433 170 1447 408 c 5,58,59
 1445 435 1445 435 1442 469 c 4,60,61
 1432 596 1432 596 1358 688 c 5,62,63
 1282 790 1282 790 1134 798 c 5,64,65
 1002 798 1002 798 934 676 c 5,66,67
 928 658 928 658 924 626 c 4,68,69
 923 623 923 623 923 621 c 5,70,-1
 922 622 l 5,0,1
EndSplineSet
EndChar

StartChar: mW
Encoding: 3369 3369 135
Width: 1721
GlyphClass: 2
Flags: W
LayerCount: 2
Fore
SplineSet
284 293 m 0,0,1
 284 187 284 187 328 125 c 0,2,3
 373 60 373 60 452 60 c 0,4,5
 532 60 532 60 577 119 c 0,6,7
 620 177 620 177 620 272 c 0,8,9
 620 377 620 377 577 432 c 0,10,11
 532 489 532 489 453 489 c 128,-1,12
 374 489 374 489 329 431 c 1,13,14
 284 375 284 375 284 293 c 0,0,1
1256 794 m 1,15,16
 1152 791 1152 791 1078 738 c 1,17,18
 1002 680 1002 680 1002 609 c 2,19,-1
 1002 1 l 5,20,-1
 861 1 l 5,21,-1
 862 611 l 2,22,23
 862.118 682.931 862.118 682.931 783 740 c 1,24,25
 707 797 707 797 598 793 c 1,26,27
 442 793 442 793 354 701 c 0,28,29
 267 610 267 610 272 487 c 1,30,31
 302 518 302 518 322 531 c 0,32,33
 355 552 355 552 392 563 c 128,-1,34
 429 574 429 574 471 574 c 0,35,36
 586 574 586 574 668 493 c 0,37,38
 748 413 748 413 748 287 c 0,39,40
 748 142 748 142 673 55 c 1,41,42
 597 -29 597 -29 463 -29 c 0,43,44
 295 -29 295 -29 206 109 c 1,45,46
 135 217 135 217 135 399 c 2,47,-1
 135 421 l 2,48,49
 135 631 135 631 261 755 c 1,50,51
 388 878 388 878 602 882 c 1,52,53
 665 881 665 881 706.5 872 c 128,-1,54
 748 863 748 863 784 850 c 1,55,56
 838 824 838 824 876 794.5 c 128,-1,57
 914 765 914 765 937 732 c 1,58,59
 1046 884 1046 884 1255 884 c 1,60,61
 1322 883 1322 883 1382 864.5 c 128,-1,62
 1442 846 1442 846 1503 811 c 1,63,64
 1520 799 1520 799 1538.5 787 c 128,-1,65
 1557 775 1557 775 1572 762 c 1,66,-1
 1572 763 l 1,67,68
 1635 706 1635 706 1670.5 636 c 128,-1,69
 1706 566 1706 566 1714 479 c 0,70,71
 1715 469 1715 469 1717 436 c 1,72,73
 1710 115 1710 115 1445 -25 c 1,74,-1
 1418 -38 l 1,75,-1
 1365 58 l 1,76,-1
 1396 69 l 1,77,78
 1565 152 1565 152 1580 390 c 1,79,80
 1578 418 1578 418 1575 466 c 1,81,82
 1564 592 1564 592 1487 685 c 1,83,84
 1408 786 1408 786 1256 794 c 1,15,16
EndSplineSet
EndChar

StartChar: mp
Encoding: 3370 3370 136
Width: 1466
GlyphClass: 2
Flags: W
LayerCount: 2
Fore
SplineSet
666 92 m 1,0,-1
 1321 92 l 1,1,-1
 1321 886 l 5,2,-1
 1461 886 l 5,3,-1
 1461 1 l 1,4,-1
 497 2 l 1,5,-1
 476 68 l 1,6,-1
 493 79 l 1,7,8
 606 137 606 137 603 285 c 1,9,10
 603 374 603 374 561.5 427.5 c 128,-1,11
 520 481 520 481 441 485 c 1,12,13
 358 485 358 485 315.5 431 c 128,-1,14
 273 377 273 377 273 290 c 0,15,16
 273 128 273 128 380 79 c 1,17,-1
 405 70 l 1,18,-1
 372 -7 l 1,19,-1
 335 5 l 1,20,21
 240 38 240 38 187.5 103.5 c 128,-1,22
 135 169 135 169 135 295 c 0,23,24
 135 419 135 419 222.5 495 c 128,-1,25
 310 571 310 571 442 571 c 128,-1,26
 574 571 574 571 658.5 495 c 128,-1,27
 743 419 743 419 743 296 c 0,28,29
 743 175 743 175 666 92 c 1,0,-1
EndSplineSet
EndChar

StartChar: mP
Encoding: 3371 3371 137
Width: 1900
GlyphClass: 2
Flags: W
LayerCount: 2
Fore
SplineSet
1757 105 m 1,0,-1
 1757 561 l 2,1,2
 1757 608 1757 608 1741.5 650 c 128,-1,3
 1726 692 1726 692 1700 725 c 1,4,5
 1672 756 1672 756 1625.5 773.5 c 128,-1,6
 1579 791 1579 791 1515 791 c 0,7,8
 1388 791 1388 791 1322 724 c 1,9,10
 1291 690 1291 690 1274.5 649.5 c 128,-1,11
 1258 609 1258 609 1258 561 c 2,12,-1
 1258 105 l 1,13,-1
 1757 105 l 1,0,-1
1116 91 m 1,14,-1
 1116 559 l 2,15,16
 1116 709 1116 709 1225 799 c 1,17,18
 1334 891 1334 891 1508 891 c 0,19,20
 1619 891 1619 891 1699 852 c 128,-1,21
 1779 813 1779 813 1826 740 c 1,22,23
 1860 681 1860 681 1877.5 617.5 c 128,-1,24
 1895 554 1895 554 1895 488 c 0,25,26
 1894 365 1894 365 1893 245 c 128,-1,27
 1892 125 1892 125 1892 2 c 1,28,-1
 497 0 l 1,29,-1
 476 67 l 1,30,-1
 493 77 l 1,31,32
 606 136 606 136 603 284 c 1,33,34
 603 373 603 373 561.5 426 c 128,-1,35
 520 479 520 479 441 483 c 1,36,37
 358 483 358 483 315.5 429 c 128,-1,38
 273 375 273 375 273 289 c 0,39,40
 273 127 273 127 380 77 c 1,41,-1
 405 68 l 1,42,-1
 372 -8 l 1,43,-1
 335 4 l 1,44,45
 240 37 240 37 187.5 102 c 128,-1,46
 135 167 135 167 135 293 c 0,47,48
 135 418 135 418 222.5 493.5 c 128,-1,49
 310 569 310 569 442 569 c 128,-1,50
 574 569 574 569 658.5 493.5 c 128,-1,51
 743 418 743 418 743 294 c 0,52,53
 743 173 743 173 666 90 c 1,54,-1
 1116 91 l 1,14,-1
EndSplineSet
EndChar

StartChar: mb
Encoding: 3372 3372 138
Width: 2024
GlyphClass: 2
Flags: W
LayerCount: 2
Fore
SplineSet
453.5 491 m 128,-1,1
 375 491 375 491 328 433 c 1,2,3
 284 376 284 376 284 292 c 256,4,5
 284 208 284 208 328 144 c 0,6,7
 372 79 372 79 453 79 c 0,8,9
 532 79 532 79 577 139 c 1,10,11
 620 198 620 198 620 286 c 0,12,13
 620 377 620 377 577 433 c 0,14,0
 532 491 532 491 453.5 491 c 128,-1,1
912 736 m 1,15,16
 1044 886 1044 886 1196 886 c 256,17,18
 1348 886 1348 886 1453 772 c 1,19,20
 1553 655 1553 655 1553 456 c 0,21,22
 1553 338 1553 338 1510.5 246.5 c 128,-1,23
 1468 155 1468 155 1380 91 c 1,24,-1
 1877 91 l 1,25,-1
 1877 886 l 1,26,-1
 2019 886 l 1,27,-1
 2019 1 l 1,28,-1
 1240 1 l 1,29,30
 1234 23 1234 23 1229 45 c 128,-1,31
 1224 67 1224 67 1218 90 c 1,32,33
 1411 198 1411 198 1411 456 c 0,34,35
 1411 698 1411 698 1289 772 c 0,36,37
 1250 795 1250 795 1186 795 c 0,38,39
 1156 795 1156 795 1122 778 c 128,-1,40
 1088 761 1088 761 1052 729 c 0,41,42
 1016 696 1016 696 997.5 656.5 c 128,-1,43
 979 617 979 617 979 572 c 0,44,45
 979 430 979 430 979.5 287 c 128,-1,46
 980 144 980 144 980 1 c 1,47,-1
 838 1 l 1,48,-1
 839 571 l 2,49,50
 839 615 839 615 819.5 655.5 c 128,-1,51
 800 696 800 696 764 729 c 1,52,53
 688 795 688 795 582 799 c 1,54,55
 437 791 437 791 352 702 c 1,56,57
 266 610 266 610 273 499 c 1,58,59
 309 529 309 529 335 545 c 1,60,61
 362 559 362 559 396 567.5 c 128,-1,62
 430 576 430 576 471 576 c 0,63,64
 586 576 586 576 667 496 c 1,65,66
 747 415 747 415 747 289 c 0,67,68
 747 165 747 165 673 80 c 1,69,70
 597 -5 597 -5 463 -5 c 0,71,72
 295 -5 295 -5 206 133 c 1,73,74
 135 241 135 241 135 401 c 2,75,-1
 135 424 l 2,76,77
 135 634 135 634 262 758 c 0,78,79
 389 883 389 883 588 886 c 0,80,81
 632 886 632 886 675 876 c 128,-1,82
 718 866 718 866 764 847 c 1,83,84
 852 805 852 805 909 736 c 1,85,-1
 912 736 l 1,15,16
EndSplineSet
Validated: 33
EndChar

StartChar: mB
Encoding: 3373 3373 139
Width: 1095
GlyphClass: 2
Flags: W
LayerCount: 2
Fore
SplineSet
644 887 m 5,0,-1
 648 887 l 6,1,2
 812 887 812 887 928 828 c 4,3,4
 1070 757 1070 757 1070 639 c 6,5,-1
 1070 627 l 5,6,7
 1067 551 1067 551 1021 520 c 5,8,9
 974 487 974 487 919 487 c 6,10,-1
 908 487 l 6,11,12
 872 487 872 487 824 498 c 260,13,14
 776 509 776 509 738 509 c 132,-1,15
 700 509 700 509 680 494 c 4,16,17
 657 476 657 476 656 411 c 5,18,19
 658 385 658 385 672 369 c 132,-1,20
 686 353 686 353 720 353 c 260,21,22
 754 353 754 353 803 370 c 4,23,24
 828 378 828 378 852.5 381.5 c 132,-1,25
 877 385 877 385 899 385 c 4,26,27
 977 385 977 385 1034 337 c 5,28,29
 1090 288 1090 288 1090 202 c 4,30,31
 1090 -25 1090 -25 766 -25 c 4,32,33
 688 -25 688 -25 578 -5 c 5,34,-1
 608 124 l 5,35,36
 688 72 688 72 790 66 c 5,37,-1
 796 66 l 6,38,39
 857 66 857 66 910 97 c 5,40,41
 962 132 962 132 962 191 c 4,42,43
 962 225 962 225 933 256 c 4,44,45
 904 286 904 286 867 286 c 4,46,47
 848 286 848 286 827 281 c 132,-1,48
 806 276 806 276 783 267 c 4,49,50
 736 247 736 247 694 247 c 5,51,52
 617 250 617 250 575 289.5 c 132,-1,53
 533 329 533 329 533 407 c 6,54,-1
 533 419 l 6,55,56
 533 533 533 533 578 571 c 4,57,58
 626 611 626 611 683 611 c 6,59,-1
 686 611 l 5,60,61
 746 609 746 609 789 597 c 4,62,63
 813 590 813 590 831.5 586.5 c 132,-1,64
 850 583 850 583 867 583 c 4,65,66
 898 583 898 583 919 601 c 260,67,68
 940 619 940 619 940 646 c 4,69,70
 940 677 940 677 918 703 c 132,-1,71
 896 729 896 729 853 753 c 5,72,73
 764 795 764 795 652 795 c 4,74,75
 633 795 633 795 612 794 c 4,76,77
 464 786 464 786 368 685 c 5,78,79
 274 577 274 577 271 427 c 5,80,-1
 271 421 l 6,81,82
 271 181 271 181 378 41 c 5,83,-1
 286 -35 l 5,84,85
 135 151 135 151 135 430 c 4,86,87
 135 625 135 625 266 751 c 4,88,89
 395 875 395 875 644 887 c 5,0,-1
EndSplineSet
EndChar

StartChar: mm
Encoding: 3374 3374 140
Width: 979
GlyphClass: 2
Flags: W
LayerCount: 2
Fore
SplineSet
974 0 m 1,0,-1
 135 0 l 1,1,2
 135 51 135 51 135.5 243 c 128,-1,3
 136 435 136 435 136 486 c 1,4,5
 142 571 142 571 176 647 c 128,-1,6
 210 723 210 723 264 777 c 1,7,8
 322 825 322 825 401.5 854.5 c 128,-1,9
 481 884 481 884 572 884 c 0,10,11
 668 884 668 884 743 855 c 128,-1,12
 818 826 818 826 874 770 c 0,13,14
 937 708 937 708 957 634 c 0,15,16
 976 563 976 563 974 477 c 1,17,-1
 974 0 l 1,0,-1
858 99 m 1,18,-1
 858 245 l 2,19,20
 858 291 858 291 857.5 342 c 128,-1,21
 857 393 857 393 856 451 c 1,22,-1
 856 477 l 2,23,24
 856 608 856 608 812 671 c 1,25,26
 766 735 766 735 702.5 765.5 c 128,-1,27
 639 796 639 796 553 796 c 1,28,29
 452 789 452 789 385 745 c 128,-1,30
 318 701 318 701 295 637 c 1,31,32
 370 695 370 695 464 695 c 0,33,34
 576 695 576 695 646 623 c 0,35,36
 680 589 680 589 697 541 c 128,-1,37
 714 493 714 493 716 438 c 1,38,39
 707 347 707 347 655 262 c 128,-1,40
 603 177 603 177 506 99 c 1,41,-1
 858 99 l 1,18,-1
336 99 m 1,42,43
 424 159 424 159 506 253 c 1,44,45
 546 302 546 302 566 346 c 128,-1,46
 586 390 586 390 586 435 c 0,47,48
 586 611 586 611 457 615 c 1,49,-1
 451 615 l 2,50,51
 385 615 385 615 329 559 c 0,52,53
 272 501 272 501 262 439 c 1,54,-1
 262 99 l 1,55,-1
 336 99 l 1,42,43
EndSplineSet
EndChar

StartChar: mY
Encoding: 3375 3375 141
Width: 1656
GlyphClass: 2
Flags: W
LayerCount: 2
Fore
SplineSet
1079 280 m 1,0,1
 1143 375 1143 375 1143 504 c 0,2,3
 1143 631 1143 631 1077 725 c 1,4,5
 1023 799 1023 799 932 799 c 0,6,7
 842 799 842 799 781 712 c 0,8,9
 719 624 719 624 719 498 c 0,10,11
 719 434 719 434 730.5 379 c 128,-1,12
 742 324 742 324 764 277 c 0,13,14
 810 183 810 183 899 134 c 1,15,16
 960 162 960 162 1005 198 c 128,-1,17
 1050 234 1050 234 1079 280 c 1,0,1
579 509 m 0,18,19
 579 566 579 566 592 624 c 1,20,21
 547 788 547 788 427 795 c 1,22,23
 370 800 370 800 330 746 c 0,24,25
 276 673 276 673 276 520 c 0,26,27
 276 368 276 368 374 238 c 1,28,29
 493 93 493 93 688 93 c 0,30,31
 755 93 755 93 784 104 c 1,32,33
 769 114 769 114 752.5 128.5 c 128,-1,34
 736 143 736 143 716 164 c 0,35,36
 698 183 698 183 681 207 c 128,-1,37
 664 231 664 231 648 258 c 0,38,39
 614 318 614 318 596.5 381 c 128,-1,40
 579 444 579 444 579 509 c 0,18,19
1090 -3 m 1,41,42
 986 3 986 3 897 39 c 1,43,44
 794 3 794 3 680 3 c 0,45,46
 565 3 565 3 464 46 c 128,-1,47
 363 89 363 89 283 168 c 1,48,49
 250 204 250 204 223 246 c 128,-1,50
 196 288 196 288 176.5 333 c 128,-1,51
 157 378 157 378 146 426.5 c 128,-1,52
 135 475 135 475 135 523 c 0,53,54
 135 723 135 723 244 821 c 1,55,-1
 244 820 l 1,56,57
 326 890 326 890 431 890 c 0,58,59
 487 890 487 890 548 846 c 1,60,61
 608 807 608 807 645 746 c 1,62,63
 670 774 670 774 705 802.5 c 128,-1,64
 740 831 740 831 778 850 c 0,65,66
 817 870 817 870 857 880 c 128,-1,67
 897 890 897 890 937 890 c 0,68,69
 1004 890 1004 890 1062 865 c 128,-1,70
 1120 840 1120 840 1171 792 c 0,71,72
 1283 687 1283 687 1283 496 c 0,73,74
 1283 366 1283 366 1190 245 c 1,75,76
 1154 196 1154 196 1106 156 c 0,77,78
 1085 138 1085 138 1065.5 123 c 128,-1,79
 1046 108 1046 108 1030 99 c 1,80,81
 1094 78 1094 78 1166 77 c 0,82,83
 1182 77 1182 77 1208 79 c 0,84,85
 1360 94 1360 94 1435 200 c 128,-1,86
 1510 306 1510 306 1510 466 c 0,87,88
 1510 560 1510 560 1467.5 650.5 c 128,-1,89
 1425 741 1425 741 1356 790 c 1,90,91
 1338 801 1338 801 1325 808 c 1,92,-1
 1388 902 l 1,93,-1
 1418 882 l 2,94,95
 1651 726 1651 726 1652 462 c 0,96,97
 1652 260 1652 260 1535.5 130 c 128,-1,98
 1419 0 1419 0 1208 -5 c 1,99,100
 1154 -5 1154 -5 1090 -3 c 1,41,42
EndSplineSet
Validated: 33
EndChar

StartChar: mr
Encoding: 3376 3376 142
Width: 1149
GlyphClass: 2
Flags: W
LayerCount: 2
Fore
SplineSet
998 341 m 4,0,1
 998 560 998 560 837 560 c 6,2,-1
 833 560 l 5,3,4
 751 556 751 556 710 493 c 4,5,6
 690 461 690 461 679.5 420.5 c 132,-1,7
 669 380 669 380 668 313 c 5,8,9
 668 214 668 214 707 146 c 4,10,11
 747 77 747 77 835 77 c 5,12,13
 878 79 878 79 910 101 c 132,-1,14
 942 123 942 123 963 164 c 4,15,16
 980 195 980 195 989 236.5 c 132,-1,17
 998 278 998 278 998 341 c 4,0,1
365.5 686 m 132,-1,19
 269 580 269 580 269 416 c 4,20,21
 269 206 269 206 404 83 c 5,22,-1
 424 64 l 5,23,-1
 369 -25 l 5,24,-1
 340 -4 l 5,25,26
 135 164 135 164 135 422 c 4,27,28
 135 622 135 622 268 754 c 4,29,30
 400 884 400 884 637 890 c 5,31,32
 830 890 830 890 955 808 c 5,33,34
 1079 728 1079 728 1121 587 c 4,35,36
 1144 512 1144 512 1144 378 c 4,37,38
 1144 229 1144 229 1064 108 c 5,39,40
 980 -6 980 -6 835 -6 c 4,41,42
 764 -6 764 -6 707 18 c 132,-1,43
 650 42 650 42 608 89 c 5,44,45
 570 134 570 134 548.5 192 c 132,-1,46
 527 250 527 250 527 317 c 4,47,48
 527 467 527 467 608 557 c 4,49,50
 690 648 690 648 802 648 c 260,51,52
 914 648 914 648 981 609 c 5,53,54
 948 694 948 694 874 741 c 5,55,56
 790 797 790 797 647 797 c 5,57,18
 462 792 462 792 365.5 686 c 132,-1,19
EndSplineSet
Validated: 1
EndChar

StartChar: mR
Encoding: 3377 3377 143
Width: 1063
GlyphClass: 2
Flags: W
LayerCount: 2
Fore
SplineSet
1058 457 m 5,0,1
 1053 265 1053 265 962.5 144.5 c 132,-1,2
 872 24 872 24 746 -19 c 5,3,-1
 716 -31 l 5,4,-1
 682 64 l 5,5,-1
 712 74 l 5,6,7
 806 109 806 109 859 206 c 132,-1,8
 912 303 912 303 912 445 c 5,9,-1
 911 449 l 5,10,11
 911 598 911 598 831.5 698.5 c 132,-1,12
 752 799 752 799 594 800 c 4,13,14
 443 800 443 800 356 689 c 5,15,16
 281 591 281 591 281 457 c 4,17,18
 281 310 281 310 334 209.5 c 132,-1,19
 387 109 387 109 484 74 c 5,20,-1
 514 64 l 5,21,-1
 476 -31 l 5,22,-1
 449 -19 l 5,23,24
 314 37 314 37 224.5 156 c 132,-1,25
 135 275 135 275 135 429 c 6,26,-1
 135 435 l 5,27,28
 140 651 140 651 275 770 c 132,-1,29
 410 889 410 889 601 889 c 4,30,31
 789 889 789 889 923.5 766.5 c 132,-1,32
 1058 644 1058 644 1058 457 c 5,0,1
EndSplineSet
Validated: 1
EndChar

StartChar: ml
Encoding: 3378 3378 144
Width: 1299
GlyphClass: 2
Flags: W
LayerCount: 2
Fore
SplineSet
672 368 m 1,0,-1
 672 517 l 1,1,2
 670 573 670 573 669.5 603.5 c 128,-1,3
 669 634 669 634 668 639 c 0,4,5
 660 695 660 695 623 733 c 0,6,7
 567 791 567 791 471 791 c 0,8,9
 374 791 374 791 326 734 c 0,10,11
 277 677 277 677 277 541 c 2,12,-1
 277 368 l 1,13,-1
 672 368 l 1,0,-1
1155 89 m 1,14,15
 1155 289 1155 289 1154.5 487.5 c 128,-1,16
 1154 686 1154 686 1154 885 c 1,17,-1
 1294 885 l 1,18,-1
 1294 2 l 1,19,-1
 135 2 l 1,20,-1
 137 533 l 2,21,22
 137.317 617.249 137.317 617.249 152.5 677 c 0,23,24
 168 738 168 738 196 774 c 1,25,26
 243 829 243 829 311.5 858 c 128,-1,27
 380 887 380 887 467 887 c 0,28,29
 554 886 554 886 622.5 857 c 128,-1,30
 691 828 691 828 738 774 c 1,31,32
 769 734 769 734 785.5 673.5 c 128,-1,33
 802 613 802 613 804 535 c 1,34,-1
 800 284 l 1,35,-1
 277 284 l 1,36,-1
 277 89 l 1,37,-1
 1155 89 l 1,14,15
EndSplineSet
EndChar

StartChar: mL
Encoding: 3379 3379 145
Width: 1114
GlyphClass: 2
Flags: W
LayerCount: 2
Fore
SplineSet
553 405 m 4,0,1
 553 564 553 564 422 564 c 4,2,3
 358 564 358 564 316 530 c 260,4,5
 274 496 274 496 274 447 c 4,6,7
 274 407 274 407 285 373.5 c 132,-1,8
 296 340 296 340 315 314 c 4,9,10
 350 265 350 265 415 265 c 4,11,12
 482 265 482 265 517 314 c 5,13,14
 553 362 553 362 553 405 c 4,0,1
611 134 m 5,15,-1
 624 134 l 6,16,17
 957 134 957 134 969 288 c 5,18,19
 969 325 969 325 948 356 c 5,20,21
 909 406 909 406 859 406 c 4,22,23
 832 406 832 406 804 405.5 c 132,-1,24
 776 405 776 405 748 405 c 5,25,26
 748 428 748 428 747.5 450.5 c 132,-1,27
 747 473 747 473 747 497 c 5,28,29
 804 497 804 497 832 497 c 6,30,-1
 864 497 l 5,31,32
 950 521 950 521 950 611 c 4,33,34
 950 674 950 674 873 729 c 5,35,36
 770 794 770 794 626 797 c 4,37,38
 620 797 620 797 615 797.5 c 132,-1,39
 610 798 610 798 604 798 c 4,40,41
 572 798 572 798 539 794.5 c 132,-1,42
 506 791 506 791 472 782 c 4,43,44
 448 776 448 776 427 765.5 c 132,-1,45
 406 755 406 755 384 740 c 5,46,47
 312 684 312 684 306 630 c 5,48,49
 356 653 356 653 422 653 c 4,50,51
 549 653 549 653 622 586 c 5,52,53
 693 518 693 518 693 414 c 4,54,55
 693 364 693 364 672.5 320.5 c 132,-1,56
 652 277 652 277 614 243 c 5,57,58
 572 210 572 210 522 192.5 c 132,-1,59
 472 175 472 175 415 175 c 4,60,61
 299 175 299 175 217 245 c 4,62,63
 135 314 135 314 135 458 c 6,64,-1
 135 473 l 6,65,66
 135 638 135 638 244 759 c 4,67,68
 358 884 358 884 614 884 c 6,69,-1
 618 884 l 6,70,71
 826 884 826 884 949 816 c 5,72,73
 1082 747 1082 747 1082 601 c 4,74,75
 1082 556 1082 556 1057 515 c 5,76,77
 1031 476 1031 476 1003 458 c 5,78,79
 1109 392 1109 392 1109 278 c 5,80,81
 1108 191 1108 191 1037 117 c 4,82,83
 961 38 961 38 754 34 c 5,84,-1
 422 34 l 5,85,86
 265 30 265 30 265 -53 c 5,87,88
 268 -155 268 -155 422 -155 c 6,89,-1
 1084 -155 l 5,90,-1
 1084 -265 l 5,91,-1
 450 -265 l 6,92,93
 143 -265 143 -265 142 -70 c 5,94,95
 143 88 143 88 290 119 c 4,96,97
 354 133 354 133 488 133 c 5,98,-1
 611 134 l 5,15,-1
EndSplineSet
EndChar

StartChar: mz
Encoding: 3380 3380 146
Width: 1144
GlyphClass: 2
Flags: W
LayerCount: 2
Fore
SplineSet
424 823 m 5,0,1
 266 755 266 755 255 594 c 5,2,3
 256 527 256 527 287.5 470 c 132,-1,4
 319 413 319 413 375 378 c 5,5,6
 418 347 418 347 478 331.5 c 132,-1,7
 538 316 538 316 613 315 c 4,8,9
 628 315 628 315 645.5 315.5 c 132,-1,10
 663 316 663 316 680 317 c 5,11,12
 557 464 557 464 559 601 c 5,13,14
 559 881 559 881 854 881 c 4,15,16
 1139 881 1139 881 1139 568 c 5,17,18
 1135 493 1135 493 1106 431 c 5,19,20
 1067 361 1067 361 995 317 c 5,21,22
 962 301 962 301 930 290 c 132,-1,23
 898 279 898 279 868 275 c 5,24,25
 926 175 926 175 926 123 c 4,26,27
 926 -1 926 -1 834 -50 c 5,28,29
 754 -107 754 -107 587 -117 c 5,30,31
 486 -110 486 -110 439 -97 c 132,-1,32
 392 -84 392 -84 350 -59 c 5,33,34
 313 -40 313 -40 289.5 -15 c 132,-1,35
 266 10 266 10 249 35 c 5,36,-1
 362 73 l 5,37,38
 389 27 389 27 438.5 1.5 c 132,-1,39
 488 -24 488 -24 585 -25 c 5,40,41
 698 -23 698 -23 741.5 16 c 132,-1,42
 785 55 785 55 785 130 c 4,43,44
 785 176 785 176 737 239 c 5,45,-1
 713 239 l 5,46,47
 685 238 685 238 664.5 237.5 c 132,-1,48
 644 237 644 237 633 238 c 5,49,50
 530 238 530 238 443 258 c 132,-1,51
 356 278 356 278 289 315 c 5,52,53
 215 361 215 361 175 429 c 132,-1,54
 135 497 135 497 135 575 c 4,55,56
 135 624 135 624 139 656 c 132,-1,57
 143 688 143 688 175 751 c 5,58,59
 208 801 208 801 255 835.5 c 132,-1,60
 302 870 302 870 360 891 c 5,61,-1
 424 823 l 5,0,1
845 790 m 5,62,63
 683 790 683 790 685 600 c 5,64,65
 685 446 685 446 803 341 c 5,66,67
 1002 372 1002 372 1015 581 c 5,68,69
 1007 783 1007 783 845 790 c 5,62,63
EndSplineSet
EndChar

StartChar: mV
Encoding: 3381 3381 147
Width: 1505
GlyphClass: 2
Flags: W
LayerCount: 2
Fore
SplineSet
776 98 m 1,0,1
 824 136 824 136 859 199 c 0,2,3
 912 296 912 296 912 438 c 0,4,5
 911 592 911 592 830 694.5 c 128,-1,6
 749 797 749 797 592 798 c 0,7,8
 441 798 441 798 356 683 c 1,9,10
 280 582 280 582 280 448 c 0,11,12
 280 447 280 447 280 446 c 2,13,-1
 281 445 l 1,14,15
 281 303 281 303 334 202.5 c 128,-1,16
 387 102 387 102 484 67 c 1,17,-1
 514 57 l 1,18,-1
 476 -38 l 1,19,-1
 449 -26 l 1,20,21
 298 27 298 27 216.5 147.5 c 128,-1,22
 135 268 135 268 135 423 c 2,23,-1
 135 429 l 1,24,25
 140 645 140 645 275 764 c 128,-1,26
 410 883 410 883 601 883 c 0,27,28
 789 883 789 883 923.5 760.5 c 128,-1,29
 1058 638 1058 638 1058 451 c 1,30,31
 1053 258 1053 258 963 138 c 1,32,33
 935 104 935 104 924 91 c 1,34,-1
 1360 91 l 1,35,-1
 1360 885 l 5,36,-1
 1501 885 l 5,37,-1
 1501 1 l 1,38,-1
 792 1 l 1,39,-1
 748 80 l 1,40,41
 763 89 763 89 776 98 c 1,0,1
EndSplineSet
EndChar

StartChar: mS
Encoding: 3382 3382 148
Width: 1560
GlyphClass: 2
Flags: W
LayerCount: 2
Fore
SplineSet
1236 76 m 256,0,1
 1316 76 1316 76 1361 141 c 0,2,3
 1406 205 1406 205 1406 288 c 0,4,5
 1406 372 1406 372 1361 429 c 1,6,7
 1317 489 1317 489 1235 489 c 0,8,9
 1156 489 1156 489 1113 430 c 1,10,11
 1070 374 1070 374 1070 283 c 0,12,13
 1070 195 1070 195 1113 135 c 0,14,15
 1156 76 1156 76 1236 76 c 256,0,1
494 90 m 1,16,17
 593 92 593 92 632 182 c 1,18,19
 666 264 666 264 666 433 c 0,20,21
 666 522 666 522 695 602.5 c 128,-1,22
 724 683 724 683 775 748 c 1,23,24
 839 815 839 815 921.5 851 c 128,-1,25
 1004 887 1004 887 1102 885 c 0,26,27
 1202 883 1202 883 1283 851 c 128,-1,28
 1364 819 1364 819 1428 756 c 0,29,30
 1556 631 1556 631 1556 421 c 2,31,-1
 1556 399 l 2,32,33
 1556 318 1556 318 1538 251 c 128,-1,34
 1520 184 1520 184 1484 129 c 0,35,36
 1396 -9 1396 -9 1227 -9 c 0,37,38
 1093 -9 1093 -9 1017 76 c 1,39,40
 980 120 980 120 961 171.5 c 128,-1,41
 942 223 942 223 942 286 c 0,42,43
 942 412 942 412 1022 493 c 0,44,45
 1102 573 1102 573 1220 573 c 0,46,47
 1302 573 1302 573 1354 543 c 0,48,49
 1408 511 1408 511 1434 479 c 1,50,51
 1424 608 1424 608 1336 699 c 0,52,53
 1250 789 1250 789 1098 798 c 1,54,55
 946 795 946 795 874 690 c 1,56,57
 840 637 840 637 823 569 c 128,-1,58
 806 501 806 501 806 417 c 0,59,60
 806 337 806 337 788 266 c 128,-1,61
 770 195 770 195 739 139 c 1,62,63
 698 72 698 72 635 36 c 0,64,65
 579 4 579 4 495 0 c 1,66,67
 334 0 334 0 234 129 c 1,68,69
 140 243 140 243 135 411 c 1,70,-1
 136 411 l 1,71,-1
 136 411 l 1,72,73
 135 738 135 738 407 881 c 1,74,-1
 435 894 l 1,75,-1
 488 799 l 1,76,-1
 457 788 l 1,77,78
 283 703 283 703 271 422 c 1,79,80
 264 303 264 303 330 189 c 1,81,82
 385 92 385 92 494 90 c 1,16,17
EndSplineSet
Validated: 37
EndChar

StartChar: mZ
Encoding: 3383 3383 149
Width: 1851
GlyphClass: 2
Flags: W
LayerCount: 2
Fore
SplineSet
1705 89 m 1,0,-1
 1705 577 l 1,1,2
 1658 522 1658 522 1608 479 c 128,-1,3
 1558 436 1558 436 1507 405 c 128,-1,4
 1456 374 1456 374 1404.5 354 c 128,-1,5
 1353 334 1353 334 1303 326 c 1,6,-1
 1294 89 l 1,7,-1
 1705 89 l 1,0,-1
1172 670 m 1,8,9
 1172 792 1172 792 1090 792 c 0,10,11
 958 792 958 792 958 646 c 0,12,13
 958 561 958 561 1012 488 c 1,14,15
 1069 423 1069 423 1163 411 c 1,16,-1
 1172 670 l 1,8,9
664 88 m 1,17,-1
 1153 89 l 1,18,-1
 1162 322 l 1,19,20
 1030 334 1030 334 925 410 c 1,21,-1
 925 410 l 1,22,23
 818 502 818 502 818 646 c 0,24,25
 818 754 818 754 894 819 c 1,26,27
 972 882 972 882 1090 882 c 0,28,29
 1136 882 1136 882 1174 867.5 c 128,-1,30
 1212 853 1212 853 1246 824 c 0,31,32
 1278 796 1278 796 1294.5 757 c 128,-1,33
 1311 718 1311 718 1312 673 c 1,34,-1
 1303 415 l 1,35,36
 1388 428 1388 428 1510 520 c 0,37,38
 1534 537 1534 537 1564.5 567 c 128,-1,39
 1595 597 1595 597 1634 640 c 0,40,41
 1670 680 1670 680 1688 720.5 c 128,-1,42
 1706 761 1706 761 1705 797 c 1,43,-1
 1705 884 l 1,44,-1
 1846 884 l 1,45,-1
 1846 -1 l 1,46,-1
 497 -1 l 1,47,-1
 476 68 l 1,48,-1
 493 78 l 1,49,50
 606 136 606 136 603 284 c 1,51,52
 603 374 603 374 561.5 427 c 128,-1,53
 520 480 520 480 441 484 c 1,54,55
 358 484 358 484 315.5 430 c 128,-1,56
 273 376 273 376 273 290 c 0,57,58
 273 128 273 128 380 78 c 1,59,-1
 405 69 l 1,60,-1
 372 -8 l 1,61,-1
 335 4 l 1,62,63
 240 38 240 38 187.5 103 c 128,-1,64
 135 168 135 168 135 294 c 0,65,66
 135 418 135 418 222.5 493.5 c 128,-1,67
 310 569 310 569 442 569 c 128,-1,68
 574 569 574 569 658.5 493.5 c 128,-1,69
 743 418 743 418 743 295 c 256,70,71
 743 172 743 172 664 88 c 1,17,-1
EndSplineSet
EndChar

StartChar: ms
Encoding: 3384 3384 150
Width: 1982
GlyphClass: 2
Flags: W
LayerCount: 2
Fore
SplineSet
1838 429 m 1,0,1
 1834 683 1834 683 1652 785 c 1,2,-1
 1622 796 l 1,3,-1
 1674 891 l 1,4,-1
 1702 878 l 1,5,6
 1975 726 1975 726 1978 429 c 1,7,8
 1978 259 1978 259 1859 126 c 0,9,10
 1738 -9 1738 -9 1568 -9 c 0,11,12
 1427 -9 1427 -9 1330 74 c 1,13,14
 1234 158 1234 158 1234 329 c 1,15,-1
 1256 557 l 1,16,17
 1256 615 1256 615 1234 669 c 1,18,19
 1186 780 1186 780 1061 795 c 1,20,21
 995 795 995 795 932 740 c 1,22,-1
 932 741 l 1,23,24
 849 670 849 670 849 555 c 2,25,-1
 849 1 l 1,26,-1
 709 1 l 1,27,-1
 709 555 l 2,28,29
 709 796 709 796 522 796 c 1,30,31
 424 801 424 801 341 696 c 1,32,33
 309 643 309 643 290.5 571.5 c 128,-1,34
 272 500 272 500 272 434 c 1,35,36
 290 170 290 170 458 89 c 1,37,-1
 488 77 l 1,38,-1
 436 -18 l 1,39,-1
 408 -5 l 1,40,41
 149 131 149 131 135 434 c 1,42,43
 134 628 134 628 249 754 c 1,44,45
 364 886 364 886 522 886 c 0,46,47
 707 886 707 886 783 750 c 1,48,-1
 787 750 l 1,49,50
 894 885 894 885 1061 885 c 0,51,52
 1193 885 1193 885 1294.5 788 c 128,-1,53
 1396 691 1396 691 1396 560 c 1,54,-1
 1373 333 l 1,55,56
 1373 81 1373 81 1568 81 c 0,57,58
 1685 81 1685 81 1765 195 c 0,59,60
 1802 246 1802 246 1819.5 304.5 c 128,-1,61
 1837 363 1837 363 1837 429 c 1,62,-1
 1838 429 l 1,0,1
EndSplineSet
Validated: 33
EndChar

StartChar: mh
Encoding: 3385 3385 151
Width: 1925
GlyphClass: 2
Flags: W
LayerCount: 2
Fore
SplineSet
1137 90 m 1,0,1
 1110 118 1110 118 1087 149 c 0,2,3
 998 267 998 267 998 422 c 2,4,-1
 998 428 l 1,5,6
 1002 644 1002 644 1137 763.5 c 128,-1,7
 1272 883 1272 883 1463 883 c 0,8,9
 1652 883 1652 883 1786 760.5 c 128,-1,10
 1920 638 1920 638 1920 451 c 1,11,12
 1916 272 1916 272 1824 148 c 128,-1,13
 1732 24 1732 24 1578 -24 c 1,14,-1
 1545 71 l 1,15,-1
 1575 82 l 2,16,17
 1668 116 1668 116 1721 213.5 c 128,-1,18
 1774 311 1774 311 1774 438 c 2,19,-1
 1774 443 l 2,20,21
 1774 591 1774 591 1693 694 c 128,-1,22
 1612 797 1612 797 1454 797 c 0,23,24
 1304 797 1304 797 1218 683 c 0,25,26
 1142 582 1142 582 1142 447 c 0,27,28
 1142 446 1142 446 1143 446 c 2,29,-1
 1144 445 l 1,30,31
 1144 302 1144 302 1197 202 c 0,32,33
 1235 129 1235 129 1298 90 c 1,34,-1
 1258 -1 l 1,35,-1
 497 0 l 1,36,-1
 476 67 l 1,37,-1
 493 77 l 1,38,39
 606 136 606 136 603 284 c 1,40,41
 603 373 603 373 561.5 426 c 128,-1,42
 520 479 520 479 441 483 c 1,43,44
 358 483 358 483 315.5 429 c 128,-1,45
 273 375 273 375 273 289 c 0,46,47
 273 127 273 127 380 77 c 1,48,-1
 405 68 l 1,49,-1
 370 -12 l 1,50,-1
 334 0 l 1,51,52
 240 37 240 37 187.5 102 c 128,-1,53
 135 167 135 167 135 293 c 0,54,55
 135 418 135 418 222.5 493.5 c 128,-1,56
 310 569 310 569 442 569 c 128,-1,57
 574 569 574 569 658.5 493.5 c 128,-1,58
 743 418 743 418 743 294 c 0,59,60
 743 173 743 173 666 90 c 1,61,-1
 1137 90 l 1,0,1
EndSplineSet
Validated: 33
EndChar

StartChar: M_t
Encoding: 3386 3386 152
Width: 1068
GlyphClass: 2
Flags: W
LayerCount: 2
Fore
SplineSet
596 0 m 1,0,-1
 135 -1 l 1,1,-1
 414 885 l 1,2,-1
 519 885 l 1,3,-1
 275 89 l 1,4,-1
 1063 89 l 1,5,-1
 1063 0 l 1,6,-1
 708 0 l 1,7,-1
 708 -410 l 1,8,-1
 596 -410 l 1,9,-1
 596 0 l 1,0,-1
EndSplineSet
EndChar

StartChar: M_p
Encoding: 3389 3389 153
Width: 665
GlyphClass: 2
Flags: W
LayerCount: 2
Fore
SplineSet
194 197 m 5,0,-1
 194 287 l 5,1,-1
 352 327 l 5,2,-1
 398 696 l 6,3,4
 411 804 411 804 454 847 c 4,5,6
 494 888 494 888 549 888 c 6,7,-1
 558 888 l 5,8,9
 613 878 613 878 661 852 c 5,10,-1
 631 753 l 5,11,12
 613 768 613 768 586 775 c 5,13,-1
 581 775 l 6,14,15
 533 775 533 775 517 715 c 5,16,-1
 473 358 l 5,17,-1
 610 393 l 5,18,-1
 640 393 l 5,19,-1
 640 303 l 5,20,-1
 461 257 l 5,21,-1
 394 -283 l 6,22,23
 382 -375 382 -375 340 -418 c 4,24,25
 301 -459 301 -459 246 -459 c 6,26,-1
 237 -459 l 5,27,28
 171 -451 171 -451 135 -419 c 5,29,-1
 164 -322 l 5,30,31
 181 -338 181 -338 208 -346 c 5,32,33
 220 -348 220 -348 226 -348 c 4,34,35
 268 -348 268 -348 279 -269 c 5,36,-1
 340 226 l 5,37,-1
 224 197 l 5,38,-1
 194 197 l 5,0,-1
EndSplineSet
EndChar

StartChar: MA
Encoding: 3390 3390 154
Width: 869
GlyphClass: 2
Flags: W
LayerCount: 2
Fore
SplineSet
272 224 m 0,0,1
 290 188 290 188 316 163 c 0,2,3
 350 130 350 130 392.5 112.5 c 128,-1,4
 435 95 435 95 486 95 c 0,5,6
 709 95 709 95 709 447 c 0,7,8
 709 798 709 798 489 798 c 0,9,10
 371 798 371 798 308 710 c 1,11,12
 278 666 278 666 260 611 c 0,13,14
 256 598 256 598 252 585 c 1,15,-1
 140 634 l 1,16,17
 148 658 148 658 158 683 c 0,18,19
 188 752 188 752 238 795 c 1,20,21
 344 889 344 889 489 889 c 0,22,23
 673 889 673 889 776 746 c 1,24,25
 864 627 864 627 864 448 c 0,26,27
 864 272 864 272 782 155 c 1,28,29
 679 5 679 5 486 5 c 0,30,31
 328 5 328 5 223 99 c 1,32,33
 160 153 160 153 135 220 c 1,34,-1
 252 275 l 1,35,36
 259 248 259 248 272 224 c 0,0,1
EndSplineSet
Validated: 1
EndChar

StartChar: Mi
Encoding: 3391 3391 155
Width: 282
GlyphClass: 2
Flags: W
LayerCount: 2
Fore
SplineSet
143 1035 m 5,0,1
 137 1170 137 1170 13 1170 c 4,2,3
 -52 1170 -52 1170 -78 1130 c 5,4,-1
 -77 1130 l 5,5,6
 -90 1112 -90 1112 -97 1085.5 c 132,-1,7
 -104 1059 -104 1059 -105 1034 c 4,8,9
 -106 1025 -106 1025 -105 1010 c 132,-1,10
 -104 995 -104 995 -100 975 c 5,11,12
 -134 975 -134 975 -165 975.5 c 132,-1,13
 -196 976 -196 976 -230 976 c 5,14,15
 -230 1052 -230 1052 -211.5 1109 c 132,-1,16
 -193 1166 -193 1166 -159 1203 c 4,17,18
 -125 1239 -125 1239 -81 1259 c 132,-1,19
 -37 1279 -37 1279 13 1279 c 5,20,21
 65 1281 65 1281 121 1265 c 5,22,23
 177 1247 177 1247 213 1202 c 4,24,25
 276 1121 276 1121 276 991 c 6,26,-1
 276 982 l 5,27,-1
 277 0 l 5,28,-1
 143 1 l 5,29,-1
 143 1035 l 5,0,1
EndSplineSet
EndChar

StartChar: MI
Encoding: 3392 3392 156
Width: 282
GlyphClass: 2
Flags: W
LayerCount: 2
Fore
SplineSet
16 1095 m 4,0,1
 15 1143 15 1143 1 1165 c 5,2,3
 -22 1171 -22 1171 -42 1171 c 4,4,5
 -78 1171 -78 1171 -105 1151 c 5,6,7
 -138 1123 -138 1123 -138 1084 c 4,8,9
 -137 1045 -137 1045 -122 1026 c 260,10,11
 -107 1007 -107 1007 -69 1006 c 4,12,13
 -48 1006 -48 1006 -34 1011 c 5,14,15
 -20 1018 -20 1018 -7 1033 c 4,16,17
 16 1059 16 1059 16 1095 c 4,0,1
144 -1 m 5,18,-1
 144 1026 l 6,19,20
 144 1105 144 1105 112 1121 c 5,21,22
 116 1017 116 1017 65 953 c 5,23,24
 37 925 37 925 4.5 913 c 132,-1,25
 -28 901 -28 901 -67 899 c 5,26,27
 -140 899 -140 899 -190 948 c 5,28,29
 -239 998 -239 998 -239 1091 c 132,-1,30
 -239 1184 -239 1184 -165 1232 c 5,31,32
 -90 1283 -90 1283 8 1283 c 4,33,34
 241 1283 241 1283 272 1049 c 5,35,36
 277 1021 277 1021 277 825 c 6,37,-1
 277 1 l 5,38,-1
 144 -1 l 5,18,-1
EndSplineSet
EndChar

StartChar: Mu
Encoding: 3393 3393 157
Width: 525
GlyphClass: 2
Flags: W
LayerCount: 2
Fore
SplineSet
100 753 m 5,0,1
 158 805 158 805 232 805 c 4,2,3
 288 805 288 805 329 787.5 c 132,-1,4
 370 770 370 770 397 738.5 c 132,-1,5
 424 707 424 707 436 662 c 132,-1,6
 448 617 448 617 447 562 c 5,7,8
 442 447 442 447 417.5 336.5 c 132,-1,9
 393 226 393 226 348 114 c 5,10,11
 520 48 520 48 520 -149 c 4,12,13
 520 -283 520 -283 450 -346 c 4,14,15
 412 -380 412 -380 364 -394.5 c 132,-1,16
 316 -409 316 -409 260 -409 c 4,17,18
 145 -409 145 -409 73 -342 c 4,19,20
 5 -278 5 -278 5 -149 c 4,21,22
 5 -23 5 -23 67 46 c 5,23,24
 100 80 100 80 139.5 98 c 132,-1,25
 179 116 179 116 237 120 c 5,26,27
 265 204 265 204 285 289 c 132,-1,28
 305 374 305 374 321 470 c 5,29,30
 327 516 327 516 327 549 c 4,31,32
 327 616 327 616 303.5 658 c 132,-1,33
 280 700 280 700 232 702 c 4,34,35
 189 704 189 704 167 680 c 4,36,37
 154 666 154 666 120 630 c 5,38,-1
 73 724 l 5,39,40
 84 740 84 740 100 753 c 5,0,1
406 -146 m 4,41,42
 406 -112 406 -112 396 -79 c 132,-1,43
 386 -46 386 -46 367.5 -24.5 c 132,-1,44
 349 -3 349 -3 320.5 9.5 c 132,-1,45
 292 22 292 22 262.5 22 c 132,-1,46
 233 22 233 22 204.5 9 c 132,-1,47
 176 -4 176 -4 158.5 -26 c 132,-1,48
 141 -48 141 -48 130.5 -80.5 c 132,-1,49
 120 -113 120 -113 120 -146 c 4,50,51
 120 -177 120 -177 129 -204 c 132,-1,52
 138 -231 138 -231 158 -256 c 4,53,54
 199 -305 199 -305 264 -305 c 4,55,56
 293 -305 293 -305 321 -292.5 c 132,-1,57
 349 -280 349 -280 367.5 -258.5 c 132,-1,58
 386 -237 386 -237 396 -208 c 132,-1,59
 406 -179 406 -179 406 -146 c 4,41,42
EndSplineSet
Validated: 33
EndChar

StartChar: MU
Encoding: 3394 3394 158
Width: 605
GlyphClass: 2
Flags: W
LayerCount: 2
Fore
SplineSet
367 -57 m 0,0,1
 367 29 367 29 290 25 c 0,2,3
 212 21 212 21 212 -76 c 0,4,5
 212 -162 212 -162 294 -161 c 0,6,7
 328 -161 328 -161 347.5 -133.5 c 128,-1,8
 367 -106 367 -106 367 -57 c 0,0,1
544 37 m 128,-1,10
 600 -25 600 -25 600 -137 c 1,11,12
 597 -269 597 -269 504 -348 c 0,13,14
 468 -379 468 -379 422 -394 c 128,-1,15
 376 -409 376 -409 319 -410 c 256,16,17
 262 -411 262 -411 217 -405 c 128,-1,18
 172 -399 172 -399 138 -385 c 1,19,20
 106 -373 106 -373 73.5 -355 c 128,-1,21
 41 -337 41 -337 5 -313 c 1,22,23
 20 -292 20 -292 34.5 -270 c 128,-1,24
 49 -248 49 -248 64 -226 c 1,25,26
 109 -268 109 -268 166.5 -292 c 128,-1,27
 224 -316 224 -316 294 -322 c 1,28,29
 390 -319 390 -319 441.5 -272.5 c 128,-1,30
 493 -226 493 -226 498 -137 c 1,31,32
 497 -90 497 -90 484.5 -54 c 128,-1,33
 472 -18 472 -18 446 8 c 1,34,-1
 443 8 l 1,35,36
 467 -46 467 -46 462 -88 c 1,37,38
 462 -112 462 -112 453.5 -136.5 c 128,-1,39
 445 -161 445 -161 431 -181 c 1,40,41
 403 -212 403 -212 367.5 -229 c 128,-1,42
 332 -246 332 -246 294 -246 c 0,43,44
 214 -246 214 -246 156 -204 c 0,45,46
 128 -184 128 -184 114 -148.5 c 128,-1,47
 100 -113 100 -113 98 -70 c 1,48,49
 103 11 103 11 150 64.5 c 128,-1,50
 197 118 197 118 297 122 c 1,51,52
 324 203 324 203 345 283 c 1,53,54
 364 371 364 371 380 467 c 1,55,56
 386 513 386 513 386 546 c 0,57,58
 386 613 386 613 363 655.5 c 128,-1,59
 340 698 340 698 291 699 c 1,60,61
 248 701 248 701 226 677 c 0,62,63
 213 663 213 663 180 627 c 1,64,-1
 132 721 l 1,65,66
 144 737 144 737 159 750 c 0,67,68
 217 802 217 802 291 802 c 0,69,70
 347 802 347 802 388 784.5 c 128,-1,71
 429 767 429 767 456 735.5 c 128,-1,72
 483 704 483 704 495.5 659 c 128,-1,73
 508 614 508 614 506 560 c 0,74,75
 502 444 502 444 477 338 c 1,76,77
 452 224 452 224 407 112 c 1,78,9
 488 99 488 99 544 37 c 128,-1,10
EndSplineSet
Validated: 33
EndChar

StartChar: M_r
Encoding: 3395 3395 159
Width: 558
GlyphClass: 2
Flags: W
LayerCount: 2
Fore
SplineSet
186 -315 m 0,0,1
 264 -315 264 -315 264 -238.5 c 128,-1,2
 264 -162 264 -162 186 -162 c 0,3,4
 106 -162 106 -162 106 -238.5 c 128,-1,5
 106 -315 106 -315 186 -315 c 0,0,1
137 -398 m 1,6,7
 13 -357 13 -357 5 -249 c 1,8,9
 8 -169 8 -169 50.5 -126.5 c 128,-1,10
 93 -84 93 -84 178 -82 c 1,11,12
 246 -82 246 -82 286.5 -105.5 c 128,-1,13
 327 -129 327 -129 346 -168 c 1,14,15
 359 -197 359 -197 359 -233 c 0,16,17
 359 -259 359 -259 345 -291 c 1,18,19
 428 -260 428 -260 428 -167 c 2,20,-1
 428 -160 l 2,21,22
 428 -85 428 -85 396 47 c 1,23,24
 356 183 356 183 338.5 309 c 128,-1,25
 321 435 321 435 319 589 c 1,26,27
 324 754 324 754 379 854 c 1,28,-1
 491 804 l 1,29,30
 484 795 484 795 466 747 c 128,-1,31
 448 699 448 699 442 626 c 1,32,33
 438 454 438 454 459 328 c 0,34,35
 475 226 475 226 496 142 c 128,-1,36
 517 58 517 58 525.5 18 c 128,-1,37
 534 -22 534 -22 542 -65 c 128,-1,38
 550 -108 550 -108 553 -161 c 1,39,40
 551 -295 551 -295 446 -362 c 1,41,42
 395 -397 395 -397 304 -408 c 0,43,44
 274 -411 274 -411 245 -411 c 0,45,46
 184 -411 184 -411 137 -398 c 1,6,7
EndSplineSet
Validated: 33
EndChar

StartChar: M_l
Encoding: 3396 3396 160
Width: 731
GlyphClass: 2
Flags: W
LayerCount: 2
Fore
SplineSet
198 -312 m 1,0,1
 220 -316 220 -316 249 -316 c 1,2,-1
 249 -268 l 1,3,4
 243 -239 243 -239 214 -238 c 1,5,6
 176 -238 176 -238 174 -274 c 1,7,8
 178 -298 178 -298 198 -312 c 1,0,1
296 -314 m 1,9,10
 334 -312 334 -312 360 -305 c 1,11,12
 372 -294 372 -294 372 -277 c 0,13,14
 371 -239 371 -239 333 -238 c 0,15,16
 301 -238 301 -238 296 -265 c 1,17,-1
 296 -314 l 1,9,10
420 -234 m 1,18,19
 436 -220 436 -220 436 -199 c 2,20,-1
 436 -196 l 2,21,22
 436 -139 436 -139 268 -136 c 1,23,24
 118 -136 118 -136 112 -203 c 1,25,-1
 112 -209 l 2,26,27
 112 -228 112 -228 124 -241 c 1,28,-1
 124 -236 l 1,29,30
 132 -172 132 -172 212 -172 c 0,31,32
 257 -172 257 -172 275 -203 c 1,33,34
 294 -175 294 -175 334 -172 c 1,35,36
 393 -172 393 -172 412 -206 c 1,37,38
 420 -218 420 -218 420 -234 c 1,18,19
137 -399 m 1,39,40
 13 -358 13 -358 5 -227 c 1,41,42
 8 -147 8 -147 64.5 -104.5 c 128,-1,43
 121 -62 121 -62 264 -58 c 0,44,45
 283 -57 283 -57 300 -57 c 0,46,47
 383 -57 383 -57 436 -79 c 1,48,49
 499 -107 499 -107 519 -146 c 1,50,51
 532 -175 532 -175 532 -211 c 0,52,53
 532 -237 532 -237 517 -269 c 1,54,55
 600 -238 600 -238 600 -145 c 2,56,-1
 600 -138 l 2,57,58
 600 -63 600 -63 568 69 c 1,59,60
 528 205 528 205 510.5 331 c 128,-1,61
 493 457 493 457 492 611 c 1,62,63
 497 776 497 776 547 869 c 1,64,-1
 664 826 l 1,65,66
 656 817 656 817 638 769 c 128,-1,67
 620 721 620 721 614 648 c 1,68,69
 612 607 612 607 612 568 c 0,70,71
 612 447 612 447 628 351 c 0,72,73
 645 249 645 249 667.5 164.5 c 128,-1,74
 690 80 690 80 698 40 c 128,-1,75
 706 0 706 0 714.5 -43 c 128,-1,76
 723 -86 723 -86 726 -139 c 1,77,78
 724 -273 724 -273 618 -340 c 1,79,80
 468 -412 468 -412 293 -412 c 2,81,-1
 282 -412 l 2,82,83
 225 -412 225 -412 137 -399 c 1,39,40
EndSplineSet
Validated: 1
EndChar

StartChar: Me
Encoding: 3398 3398 161
Width: 1151
GlyphClass: 2
Flags: W
LayerCount: 2
Fore
SplineSet
290.5 231.5 m 132,-1,1
 300 190 300 190 316 159 c 4,2,3
 338 118 338 118 369.5 96 c 132,-1,4
 401 74 401 74 445 72 c 5,5,6
 532 73 532 73 572 142 c 4,7,8
 611 209 611 209 611 308 c 5,9,10
 610 330 610 330 600 370.5 c 132,-1,11
 590 411 590 411 570 443 c 4,12,13
 529 506 529 506 446 510 c 5,14,-1
 442 510 l 5,15,16
 281 511 281 511 277 337 c 5,17,0
 281 273 281 273 290.5 231.5 c 132,-1,1
1012 418 m 5,18,19
 1018 575 1018 575 921.5 681 c 132,-1,20
 825 787 825 787 655 793 c 5,21,22
 490 793 490 793 406 736 c 4,23,24
 317 675 317 675 289 562 c 5,25,26
 365 598 365 598 477 598 c 4,27,28
 590 598 590 598 671 508 c 4,29,30
 752 417 752 417 752 313 c 4,31,32
 752 245 752 245 731 187 c 132,-1,33
 710 129 710 129 671 84 c 4,34,35
 630 37 630 37 573 13 c 132,-1,36
 516 -11 516 -11 445 -11 c 4,37,38
 299 -11 299 -11 215 103 c 5,39,40
 135 224 135 224 135 418 c 5,41,42
 152 686 152 686 325 803 c 4,43,44
 449 886 449 886 665 886 c 5,45,46
 886 879 886 879 1018 749 c 4,47,48
 1137 632 1137 632 1146 443 c 5,49,50
 1140 120 1140 120 896 -17 c 5,51,-1
 833 74 l 5,52,53
 1000 169 1000 169 1012 418 c 5,18,19
EndSplineSet
EndChar

StartChar: ME
Encoding: 3399 3399 162
Width: 945
GlyphClass: 2
Flags: W
LayerCount: 2
Fore
SplineSet
940 228 m 4,0,1
 940 110 940 110 824 50 c 4,2,3
 730 1 730 1 606 1 c 4,4,5
 503 1 503 1 415.5 33.5 c 132,-1,6
 328 66 328 66 265 124 c 5,7,8
 205 183 205 183 170 266 c 132,-1,9
 135 349 135 349 135 445 c 4,10,11
 135 542 135 542 168.5 624 c 132,-1,12
 202 706 202 706 263 765 c 5,13,14
 328 822 328 822 416 854.5 c 132,-1,15
 504 887 504 887 606 887 c 4,16,17
 666 887 666 887 721.5 874 c 132,-1,18
 777 861 777 861 824 837 c 5,19,20
 881 806 881 806 910.5 761.5 c 132,-1,21
 940 717 940 717 940 658 c 4,22,23
 940 574 940 574 879 521 c 5,24,25
 821 466 821 466 742 466 c 4,26,27
 664 466 664 466 601 520 c 5,28,-1
 601 519 l 5,29,30
 540 572 540 572 540 650 c 4,31,32
 540 763 540 763 599 797 c 5,33,34
 448 797 448 797 359 692 c 5,35,36
 272 586 272 586 272 445 c 4,37,38
 272 375 272 375 293.5 313 c 132,-1,39
 315 251 315 251 359 198 c 4,40,41
 448 91 448 91 592 91 c 5,42,43
 587 96 587 96 579.5 109 c 132,-1,44
 572 122 572 122 562 139 c 4,45,46
 551 158 551 158 545.5 180 c 132,-1,47
 540 202 540 202 540 226 c 4,48,49
 540 313 540 313 601 368 c 5,50,-1
 601 368 l 5,51,52
 664 420 664 420 741.5 420 c 132,-1,53
 819 420 819 420 879 367 c 4,54,55
 940 313 940 313 940 228 c 4,0,1
751 764 m 4,56,57
 722 764 722 764 701 752.5 c 132,-1,58
 680 741 680 741 667 722 c 4,59,60
 655 703 655 703 649.5 685.5 c 132,-1,61
 644 668 644 668 644 652 c 4,62,63
 644 642 644 642 646 632.5 c 132,-1,64
 648 623 648 623 651 616 c 4,65,66
 653 609 653 609 658.5 601.5 c 132,-1,67
 664 594 664 594 670 588 c 4,68,69
 699 558 699 558 741 558 c 4,70,71
 784 558 784 558 810 590 c 132,-1,72
 836 622 836 622 836 657.5 c 132,-1,73
 836 693 836 693 807 728.5 c 132,-1,74
 778 764 778 764 751 764 c 4,56,57
751 125 m 4,75,76
 782 125 782 125 808 160 c 5,77,78
 836 194 836 194 836 229 c 4,79,80
 836 261 836 261 810 297 c 4,81,82
 784 332 784 332 742 332 c 4,83,84
 698 332 698 332 670 301 c 5,85,86
 645 270 645 270 645 235 c 4,87,88
 645 199 645 199 668 166 c 5,89,-1
 667 166 l 5,90,91
 692 125 692 125 751 125 c 4,75,76
EndSplineSet
EndChar

StartChar: Mo
Encoding: 3402 3402 164
Width: 2293
GlyphClass: 2
Flags: W
LayerCount: 2
Fore
SplineSet
386.5 231.5 m 128,-1,1
 396 190 396 190 412 159 c 0,2,3
 434 118 434 118 465.5 96 c 128,-1,4
 497 74 497 74 541 72 c 1,5,6
 628 72 628 72 668 142 c 0,7,8
 707 209 707 209 707 308 c 1,9,10
 706 330 706 330 696 370.5 c 128,-1,11
 686 411 686 411 666 443 c 0,12,13
 625 506 625 506 542 510 c 1,14,-1
 538 510 l 2,15,16
 377 510 377 510 373 337 c 1,17,0
 377 273 377 273 386.5 231.5 c 128,-1,1
1108 418 m 1,18,19
 1114 575 1114 575 1017.5 681 c 128,-1,20
 921 787 921 787 751 792 c 1,21,22
 586 792 586 792 502 736 c 1,23,24
 413 675 413 675 385 562 c 1,25,26
 461 598 461 598 573 598 c 0,27,28
 686 598 686 598 767 508 c 0,29,30
 848 417 848 417 848 312 c 0,31,32
 848 245 848 245 827 187 c 128,-1,33
 806 129 806 129 767 84 c 0,34,35
 726 37 726 37 669 13 c 128,-1,36
 612 -11 612 -11 541 -11 c 0,37,38
 395 -11 395 -11 311 103 c 1,39,40
 231 224 231 224 231 418 c 1,41,42
 248 686 248 686 421 803 c 0,43,44
 545 886 545 886 761 886 c 1,45,46
 982 879 982 879 1114 749 c 0,47,48
 1233 632 1233 632 1242 443 c 1,49,50
 1236 120 1236 120 992 -17 c 1,51,-1
 929 74 l 1,52,53
 1096 169 1096 169 1108 418 c 1,18,19
1614 222 m 0,54,55
 1632 186 1632 186 1659 161 c 0,56,57
 1692 129 1692 129 1735 111.5 c 128,-1,58
 1778 94 1778 94 1829 94 c 0,59,60
 2052 94 2052 94 2052 445 c 256,61,62
 2052 796 2052 796 1832 796 c 0,63,64
 1714 796 1714 796 1651 708 c 1,65,66
 1627.04 672.503 1627.04 672.503 1603 610 c 0,67,68
 1598 597 1598 597 1595 583 c 1,69,-1
 1482 632 l 1,70,71
 1490 657 1490 657 1501 682 c 0,72,73
 1530 750 1530 750 1580 793 c 0,74,75
 1687 887 1687 887 1832 887 c 0,76,77
 2016 887 2016 887 2118 744 c 1,78,79
 2207 625 2207 625 2207 447 c 0,80,81
 2207 270 2207 270 2124 154 c 1,82,83
 2022 4 2022 4 1829 4 c 0,84,85
 1671 4 1671 4 1566 97 c 1,86,87
 1503 151 1503 151 1478 218 c 1,88,-1
 1595 274 l 1,89,90
 1602 246 1602 246 1614 222 c 0,54,55
2227 220 m 2,91,-1
 2227 749 l 2,92,93
 2227 853 2227 853 2153 928 c 1,94,95
 2077 1001 2077 1001 2005 1001 c 2,96,-1
 412 1001 l 1,97,98
 354 1000 354 1000 280 927 c 0,99,100
 206 853 206 853 206 750 c 2,101,-1
 206 221 l 2,102,103
 206 106 206 106 280 32 c 0,104,105
 342 -31 342 -31 417 -31 c 2,106,-1
 2009 -31 l 1,107,108
 2092 -30 2092 -30 2153 29 c 1,109,110
 2227 105 2227 105 2227 220 c 2,91,-1
914 1090 m 2,111,-1
 2004 1091 l 1,112,-1
 2035 1091 l 2,113,114
 2138 1091 2138 1091 2214 1018 c 1,115,116
 2288 943 2288 943 2288 839 c 2,117,-1
 2288 130 l 2,118,119
 2288 28 2288 28 2214 -48 c 1,120,121
 2139 -121 2139 -121 2036 -121 c 2,122,-1
 2006 -121 l 1,123,-1
 1383 -120 l 1,124,-1
 417 -121 l 1,125,-1
 387 -121 l 1,126,-1
 386 -121 l 2,127,128
 283 -121 283 -121 209 -46.5 c 128,-1,129
 135 28 135 28 135 131 c 2,130,-1
 135 839 l 1,131,-1
 135 840 l 2,132,133
 135 943 135 943 209 1017 c 128,-1,134
 283 1091 283 1091 385 1091 c 2,135,-1
 415 1091 l 1,136,-1
 417 1091 l 1,137,138
 562.242 1089.68 562.242 1089.68 914 1090 c 2,111,-1
1264 417 m 1,139,-1
 1264 507 l 1,140,-1
 1441 507 l 1,141,-1
 1441 417 l 1,142,-1
 1264 417 l 1,139,-1
EndSplineSet
EndChar

StartChar: MO
Encoding: 3403 3403 165
Width: 2131
GlyphClass: 2
Flags: W
LayerCount: 2
Fore
SplineSet
1064 227 m 0,0,1
 1064 109 1064 109 948 49 c 0,2,3
 854 0 854 0 730 0 c 0,4,5
 627 0 627 0 539.5 32.5 c 128,-1,6
 452 65 452 65 388 122 c 1,7,8
 328 182 328 182 293.5 265 c 128,-1,9
 259 348 259 348 259 444 c 0,10,11
 259 541 259 541 292.5 622.5 c 128,-1,12
 326 704 326 704 387 764 c 1,13,14
 452 821 452 821 540 853.5 c 128,-1,15
 628 886 628 886 730 886 c 0,16,17
 790 886 790 886 845.5 873 c 128,-1,18
 901 860 901 860 948 836 c 1,19,20
 1005 805 1005 805 1034.5 760.5 c 128,-1,21
 1064 716 1064 716 1064 657 c 0,22,23
 1064 573 1064 573 1003 520 c 1,24,25
 945 465 945 465 866 465 c 0,26,27
 788 465 788 465 724 518 c 1,28,-1
 724 518 l 1,29,30
 664 570 664 570 664 649 c 0,31,32
 664 762 664 762 723 796 c 1,33,34
 572 796 572 796 483 690 c 1,35,36
 396 584 396 584 396 444 c 0,37,38
 396 374 396 374 417.5 312 c 128,-1,39
 439 250 439 250 483 197 c 0,40,41
 572 90 572 90 716 90 c 1,42,43
 711 95 711 95 703.5 107.5 c 128,-1,44
 696 120 696 120 686 138 c 0,45,46
 675 157 675 157 669.5 179 c 128,-1,47
 664 201 664 201 664 225 c 0,48,49
 664 312 664 312 724 367 c 1,50,-1
 724 366 l 1,51,52
 788 419 788 419 865.5 419 c 128,-1,53
 943 419 943 419 1003 366 c 0,54,55
 1064 312 1064 312 1064 227 c 0,0,1
874 762 m 256,56,57
 846 762 846 762 824.5 751 c 128,-1,58
 803 740 803 740 790 720 c 0,59,60
 778 702 778 702 773 684 c 128,-1,61
 768 666 768 666 768 651 c 0,62,63
 768 641 768 641 770 631.5 c 128,-1,64
 772 622 772 622 775 615 c 0,65,66
 777 608 777 608 782.5 600.5 c 128,-1,67
 788 593 788 593 794 587 c 0,68,69
 823 557 823 557 865 557 c 0,70,71
 908 557 908 557 934 589 c 128,-1,72
 960 621 960 621 960 656.5 c 128,-1,73
 960 692 960 692 931 727 c 128,-1,74
 902 762 902 762 874 762 c 256,56,57
874 124 m 0,75,76
 906 124 906 124 932 158 c 0,77,78
 960 193 960 193 960 228 c 0,79,80
 960 260 960 260 934 296 c 1,81,82
 908 330 908 330 866 330 c 0,83,84
 821 330 821 330 794 300 c 1,85,86
 769 269 769 269 769 234 c 0,87,88
 769 198 769 198 791 165 c 1,89,-1
 790 165 l 1,90,91
 816 124 816 124 874 124 c 0,75,76
1452 220 m 0,92,93
 1470 183 1470 183 1497 158 c 0,94,95
 1530 126 1530 126 1573 108 c 128,-1,96
 1616 90 1616 90 1667 90 c 0,97,98
 1890 90 1890 90 1890 442 c 0,99,100
 1890 793 1890 793 1670 793 c 0,101,102
 1552 793 1552 793 1489 706 c 1,103,104
 1471.76 679.815 1471.76 679.815 1441 606 c 0,105,106
 1436 594 1436 594 1433 580 c 1,107,-1
 1320 629 l 1,108,109
 1328 654 1328 654 1339 678 c 0,110,111
 1368 747 1368 747 1418 790 c 0,112,113
 1525 884 1525 884 1670 884 c 0,114,115
 1854 884 1854 884 1956 741 c 1,116,117
 2045 622 2045 622 2045 444 c 0,118,119
 2045 267 2045 267 1962 150 c 1,120,121
 1860 0 1860 0 1667 0 c 0,122,123
 1509 0 1509 0 1404 94 c 1,124,125
 1341 148 1341 148 1316 215 c 1,126,-1
 1433 270 l 1,127,128
 1440 244 1440 244 1452 220 c 0,92,93
2065 220 m 2,129,-1
 2065 749 l 2,130,131
 2065 853 2065 853 1991 928 c 1,132,133
 1915 1001 1915 1001 1843 1001 c 2,134,-1
 412 1001 l 1,135,136
 354 1000 354 1000 280 927 c 0,137,138
 206 853 206 853 206 750 c 2,139,-1
 206 221 l 2,140,141
 206 106 206 106 280 32 c 0,142,143
 342 -31 342 -31 417 -31 c 2,144,-1
 1847 -31 l 1,145,146
 1930 -30 1930 -30 1991 29 c 1,147,148
 2065 105 2065 105 2065 220 c 2,129,-1
914 1090 m 2,149,-1
 1842 1091 l 1,150,-1
 1873 1091 l 2,151,152
 1976 1091 1976 1091 2052 1018 c 1,153,154
 2126 943 2126 943 2126 839 c 2,155,-1
 2126 130 l 2,156,157
 2126 28 2126 28 2052 -48 c 1,158,159
 1977 -121 1977 -121 1874 -121 c 2,160,-1
 1844 -121 l 1,161,-1
 1383 -120 l 1,162,-1
 417 -121 l 1,163,-1
 387 -121 l 1,164,-1
 386 -121 l 2,165,166
 283 -121 283 -121 209 -46.5 c 128,-1,167
 135 28 135 28 135 131 c 2,168,-1
 135 839 l 1,169,-1
 135 840 l 2,170,171
 135 943 135 943 209 1017 c 128,-1,172
 283 1091 283 1091 385 1091 c 2,173,-1
 415 1091 l 1,174,-1
 417 1091 l 1,175,176
 567.622 1089.63 567.622 1089.63 914 1090 c 2,149,-1
1093 417 m 1,177,-1
 1093 507 l 1,178,-1
 1270 507 l 1,179,-1
 1270 417 l 1,180,-1
 1093 417 l 1,177,-1
EndSplineSet
Validated: 33
EndChar

StartChar: M_w
Encoding: 3404 3404 166
Width: 2705
GlyphClass: 2
Flags: W
LayerCount: 2
Fore
SplineSet
2000 772 m 1,0,1
 2096 888 2096 888 2228 888 c 0,2,3
 2310 888 2310 888 2379.5 855 c 128,-1,4
 2449 822 2449 822 2501 762 c 1,5,6
 2545 704 2545 704 2568.5 633.5 c 128,-1,7
 2592 563 2592 563 2592 482 c 0,8,9
 2592 266 2592 266 2462 134 c 0,10,11
 2333 2 2333 2 2149 2 c 0,12,13
 2090 2 2090 2 2033 15 c 128,-1,14
 1976 28 1976 28 1925 52 c 1,15,16
 1903 64 1903 64 1880.5 82 c 128,-1,17
 1858 100 1858 100 1838 123 c 0,18,19
 1817 146 1817 146 1801 169 c 128,-1,20
 1785 192 1785 192 1773 216 c 1,21,22
 1797 228 1797 228 1820.5 240.5 c 128,-1,23
 1844 253 1844 253 1869 266 c 1,24,25
 1914 178 1914 178 1984 134.5 c 128,-1,26
 2054 91 2054 91 2149 91 c 0,27,28
 2220 91 2220 91 2276 119 c 128,-1,29
 2332 147 2332 147 2376 204 c 0,30,31
 2461 315 2461 315 2461 482 c 0,32,33
 2461 616 2461 616 2409 704 c 1,34,35
 2347 797 2347 797 2228 797 c 0,36,37
 2149 797 2149 797 2106 747 c 0,38,39
 2064 697 2064 697 2064 647 c 2,40,-1
 2064 416 l 1,41,-1
 1934 416 l 1,42,-1
 1934 638 l 2,43,44
 1934 688 1934 688 1886 744 c 1,45,46
 1860 770 1860 770 1831 783.5 c 128,-1,47
 1802 797 1802 797 1767 797 c 0,48,49
 1606 797 1606 797 1606 574 c 0,50,51
 1606 529 1606 529 1613 483.5 c 128,-1,52
 1620 438 1620 438 1634 392 c 1,53,54
 1610 383 1610 383 1587.5 374 c 128,-1,55
 1565 365 1565 365 1541 355 c 1,56,57
 1475 460 1475 460 1475 574 c 0,58,59
 1475 718 1475 718 1554 802 c 1,60,61
 1595 844 1595 844 1649 866 c 128,-1,62
 1703 888 1703 888 1771 888 c 0,63,64
 1907 888 1907 888 1998 772 c 1,65,-1
 2000 772 l 1,0,1
386.5 230.5 m 128,-1,67
 396 189 396 189 412 158 c 0,68,69
 434 117 434 117 465.5 95 c 128,-1,70
 497 73 497 73 541 71 c 1,71,72
 628 71 628 71 668 141 c 0,73,74
 707 208 707 208 707 307 c 1,75,76
 706 329 706 329 696 369.5 c 128,-1,77
 686 410 686 410 666 442 c 0,78,79
 625 505 625 505 542 509 c 1,80,-1
 538 509 l 2,81,82
 377 509 377 509 373 336 c 1,83,66
 377 272 377 272 386.5 230.5 c 128,-1,67
1108 417 m 1,84,85
 1114 574 1114 574 1017.5 680 c 128,-1,86
 921 786 921 786 751 791 c 1,87,88
 586 791 586 791 502 735 c 1,89,90
 413 674 413 674 385 561 c 1,91,92
 461 597 461 597 573 597 c 0,93,94
 686 597 686 597 767 507 c 0,95,96
 848 416 848 416 848 311 c 0,97,98
 848 244 848 244 827 186 c 128,-1,99
 806 128 806 128 767 83 c 0,100,101
 726 36 726 36 669 12 c 128,-1,102
 612 -12 612 -12 541 -12 c 0,103,104
 395 -12 395 -12 311 102 c 1,105,106
 231 223 231 223 231 417 c 1,107,108
 248 685 248 685 421 802 c 0,109,110
 545 885 545 885 761 885 c 1,111,112
 982 878 982 878 1114 748 c 0,113,114
 1233 631 1233 631 1242 442 c 1,115,116
 1236 119 1236 119 992 -18 c 1,117,-1
 929 73 l 1,118,119
 1096 168 1096 168 1108 417 c 1,84,85
2639 220 m 2,120,-1
 2639 749 l 2,121,122
 2639 853 2639 853 2564 928 c 1,123,124
 2489 1001 2489 1001 2417 1001 c 2,125,-1
 412 1001 l 1,126,127
 354 1000 354 1000 280 927 c 0,128,129
 206 853 206 853 206 750 c 2,130,-1
 206 221 l 2,131,132
 206 106 206 106 280 32 c 0,133,134
 342 -31 342 -31 417 -31 c 2,135,-1
 2420 -31 l 1,136,137
 2504 -30 2504 -30 2564 29 c 1,138,139
 2639 105 2639 105 2639 220 c 2,120,-1
914 1090 m 2,140,-1
 2416 1091 l 1,141,-1
 2447 1091 l 2,142,143
 2550 1091 2550 1091 2626 1018 c 1,144,145
 2700 943 2700 943 2700 839 c 2,146,-1
 2700 130 l 2,147,148
 2700 28 2700 28 2626 -48 c 1,149,150
 2551 -121 2551 -121 2448 -121 c 2,151,-1
 2418 -121 l 1,152,-1
 1383 -120 l 1,153,-1
 417 -121 l 1,154,-1
 387 -121 l 1,155,-1
 386 -121 l 2,156,157
 283 -121 283 -121 209 -46.5 c 128,-1,158
 135 28 135 28 135 131 c 2,159,-1
 135 839 l 1,160,-1
 135 840 l 2,161,162
 135 943 135 943 209 1017 c 128,-1,163
 283 1091 283 1091 385 1091 c 2,164,-1
 415 1091 l 1,165,-1
 417 1091 l 1,166,167
 548.646 1089.76 548.646 1089.76 914 1090 c 2,140,-1
1274 417 m 1,168,-1
 1274 507 l 1,169,-1
 1451 507 l 1,170,-1
 1451 417 l 1,171,-1
 1274 417 l 1,168,-1
EndSplineSet
EndChar

StartChar: Mv
Encoding: 3405 3405 167
Width: 158
GlyphClass: 2
Flags: W
LayerCount: 2
Fore
SplineSet
-433 1198 m 5,0,-1
 -433 1229 l 5,1,-1
 -281 1213 l 5,2,-1
 -284 1194 l 5,3,-1
 -284 1166 l 6,4,5
 -284 1087 -284 1087 -254 1046 c 132,-1,6
 -224 1005 -224 1005 -128 1005 c 5,7,8
 4 1009 4 1009 4 1166 c 6,9,-1
 4 1194 l 5,10,-1
 0 1212 l 5,11,-1
 153 1229 l 5,12,-1
 153 1198 l 5,13,14
 151 1156 151 1156 144 1119.5 c 132,-1,15
 137 1083 137 1083 117.5 1046 c 132,-1,16
 98 1009 98 1009 66 981.5 c 132,-1,17
 34 954 34 954 -18.5 937 c 132,-1,18
 -71 920 -71 920 -140 919 c 4,19,20
 -184 919 -184 919 -222.5 926.5 c 132,-1,21
 -261 934 -261 934 -300.5 953 c 132,-1,22
 -340 972 -340 972 -368 1002.5 c 132,-1,23
 -396 1033 -396 1033 -414 1082 c 132,-1,24
 -432 1131 -432 1131 -433 1198 c 5,0,-1
EndSplineSet
EndChar

StartChar: M_p
Encoding: 3406 3406 168
Width: 412
GlyphClass: 4
Flags: W
LayerCount: 2
Fore
SplineSet
271 1194 m 132,-1,1
 324 1194 324 1194 367 1155 c 5,2,3
 407 1116 407 1116 407 1058 c 4,4,5
 407 997 407 997 367 960 c 4,6,7
 326 921 326 921 271 921 c 132,-1,8
 216 921 216 921 176 960 c 5,9,10
 135 998 135 998 135 1058 c 4,11,12
 135 1116 135 1116 176 1155 c 4,13,0
 218 1194 218 1194 271 1194 c 132,-1,1
EndSplineSet
EndChar

StartChar: M_W
Encoding: 3415 3415 169
Width: 1257
GlyphClass: 2
Flags: W
LayerCount: 2
Fore
SplineSet
661 772 m 1,0,1
 757 887 757 887 888 887 c 0,2,3
 970 887 970 887 1039.5 854 c 128,-1,4
 1109 821 1109 821 1161 761 c 1,5,6
 1205 704 1205 704 1228.5 633.5 c 128,-1,7
 1252 563 1252 563 1252 482 c 0,8,9
 1252 266 1252 266 1122 134 c 0,10,11
 993 2 993 2 809 2 c 0,12,13
 750 2 750 2 693.5 15 c 128,-1,14
 637 28 637 28 585 52 c 1,15,16
 563 64 563 64 540.5 82 c 128,-1,17
 518 100 518 100 498 123 c 0,18,19
 477 146 477 146 461.5 168.5 c 128,-1,20
 446 191 446 191 434 215 c 1,21,22
 458 228 458 228 481.5 240.5 c 128,-1,23
 505 253 505 253 530 266 c 1,24,25
 574 178 574 178 644 135 c 128,-1,26
 714 92 714 92 809 92 c 0,27,28
 880 92 880 92 936 119.5 c 128,-1,29
 992 147 992 147 1036 204 c 0,30,31
 1121 316 1121 316 1121 482 c 0,32,33
 1121 616 1121 616 1070 704 c 1,34,35
 1007 797 1007 797 888 797 c 0,36,37
 809 797 809 797 766 747 c 0,38,39
 724 697 724 697 724 647 c 2,40,-1
 724 416 l 1,41,-1
 594 416 l 1,42,-1
 594 638 l 2,43,44
 594 688 594 688 546 743 c 1,45,46
 520 770 520 770 491 783.5 c 128,-1,47
 462 797 462 797 428 797 c 0,48,49
 266 797 266 797 266 574 c 0,50,51
 266 529 266 529 273 483 c 128,-1,52
 280 437 280 437 295 392 c 1,53,54
 271 383 271 383 248 374 c 128,-1,55
 225 365 225 365 201 355 c 1,56,57
 135 461 135 461 135 574 c 0,58,59
 135 719 135 719 214 802 c 0,60,61
 255 844 255 844 309 865.5 c 128,-1,62
 363 887 363 887 431 887 c 0,63,64
 567 887 567 887 658 772 c 1,65,-1
 661 772 l 1,0,1
EndSplineSet
Validated: 1
EndChar

StartChar: m_R
Encoding: 3424 3424 170
Width: 1133
GlyphClass: 2
Flags: W
LayerCount: 2
Fore
SplineSet
955 253 m 5,0,1
 1018 225 1018 225 1071 167 c 4,2,3
 1126 107 1126 107 1126 31 c 4,4,5
 1126 -121 1126 -121 944 -197 c 4,6,7
 820 -248 820 -248 642 -248 c 4,8,9
 540 -248 540 -248 462 -234 c 132,-1,10
 384 -220 384 -220 322 -195 c 5,11,12
 232 -155 232 -155 185.5 -98.5 c 132,-1,13
 139 -42 139 -42 139 31 c 4,14,15
 139 70 139 70 152.5 103.5 c 132,-1,16
 166 137 166 137 193 167 c 4,17,18
 249 228 249 228 311 256 c 5,19,20
 277 274 277 274 245.5 303.5 c 132,-1,21
 214 333 214 333 188 376 c 4,22,23
 135 461 135 461 135 584 c 4,24,25
 135 709 135 709 203.5 796.5 c 132,-1,26
 272 884 272 884 386 884 c 4,27,28
 430 884 430 884 465 871 c 132,-1,29
 500 858 500 858 528 833 c 4,30,31
 584 782 584 782 584 693 c 4,32,33
 584 605 584 605 527 550 c 4,34,35
 472 496 472 496 396 496 c 4,36,37
 321 496 321 496 278 536 c 4,38,39
 275 539 275 539 271 544 c 132,-1,40
 267 549 267 549 261 555 c 5,41,42
 294 295 294 295 640 298 c 5,43,44
 972 298 972 298 1004 563 c 5,45,46
 996 553 996 553 991 547 c 132,-1,47
 986 541 986 541 982 536 c 5,48,49
 940 504 940 504 903.5 500.5 c 132,-1,50
 867 497 867 497 866 497 c 4,51,52
 791 497 791 497 736 551 c 5,53,54
 680 603 680 603 680 692 c 4,55,56
 680 780 680 780 736 833 c 5,57,58
 793 884 793 884 878 884 c 4,59,60
 992 884 992 884 1061 797 c 5,61,62
 1129 709 1129 709 1129 584 c 4,63,64
 1129 461 1129 461 1076 376 c 4,65,66
 1024 291 1024 291 955 257 c 5,67,-1
 955 253 l 5,0,1
800 687 m 4,68,69
 800 641 800 641 821 611 c 132,-1,70
 842 581 842 581 880 581 c 4,71,72
 916 581 916 581 938 613 c 4,73,74
 949 628 949 628 954.5 647.5 c 132,-1,75
 960 667 960 667 960 689 c 4,76,77
 960 733 960 733 940 765 c 5,78,79
 920 799 920 799 882 799 c 4,80,81
 800 799 800 799 800 687 c 4,68,69
463 687 m 4,82,83
 463 799 463 799 383 799 c 4,84,85
 364 799 364 799 349.5 790 c 132,-1,86
 335 781 335 781 324.5 766 c 132,-1,87
 314 751 314 751 309 731.5 c 132,-1,88
 304 712 304 712 304 689 c 4,89,90
 304 643 304 643 325 613 c 5,91,92
 346 581 346 581 384 581 c 260,93,94
 422 581 422 581 442 611 c 4,95,96
 463 641 463 641 463 687 c 4,82,83
871 -106 m 5,97,98
 990 -49 990 -49 988 34 c 5,99,100
 988 116 988 116 879 171 c 5,101,102
 835 191 835 191 784.5 201.5 c 132,-1,103
 734 212 734 212 667 213 c 5,104,-1
 586 213 l 6,105,106
 530 213 530 213 478 201.5 c 132,-1,107
 426 190 426 190 385 171 c 5,108,109
 332 144 332 144 303.5 110.5 c 132,-1,110
 275 77 275 77 274 35 c 5,111,112
 274 -48 274 -48 395 -106 c 4,113,114
 407 -111 407 -111 420 -116 c 5,115,116
 418 -112 418 -112 417 -107 c 4,117,118
 411 -86 411 -86 411 -65 c 4,119,120
 411 -33 411 -33 422 -7.5 c 132,-1,121
 433 18 433 18 451.5 34 c 132,-1,122
 470 50 470 50 495 59.5 c 132,-1,123
 520 69 520 69 550 69 c 4,124,125
 606 69 606 69 633 41 c 5,126,127
 645 54 645 54 668 61.5 c 132,-1,128
 691 69 691 69 718 69 c 4,129,130
 811 69 811 69 842 -2 c 5,131,132
 855 -28 855 -28 855 -65 c 4,133,134
 855 -92 855 -92 846 -116 c 5,135,136
 858 -111 858 -111 871 -106 c 5,97,98
736 -146 m 5,137,138
 757 -133 757 -133 767 -119 c 4,139,140
 782 -97 782 -97 782 -61 c 260,141,142
 782 -25 782 -25 764.5 -4.5 c 132,-1,143
 747 16 747 16 716 16 c 4,144,145
 701 16 701 16 689 10 c 132,-1,146
 677 4 677 4 670 -6 c 5,147,148
 669 -15 669 -15 668 -23 c 132,-1,149
 667 -31 667 -31 667 -37 c 6,150,-1
 667 -105 l 5,151,152
 668 -129 668 -129 669 -153 c 5,153,154
 703 -151 703 -151 736 -146 c 5,137,138
598 -152 m 5,155,-1
 598 -151 l 6,156,157
 598 -141 598 -141 598.5 -128 c 132,-1,158
 599 -115 599 -115 599 -105 c 6,159,-1
 599 -41 l 6,160,161
 599 -25 599 -25 596.5 -13.5 c 132,-1,162
 594 -2 594 -2 588 4.5 c 132,-1,163
 582 11 582 11 574 13.5 c 132,-1,164
 566 16 566 16 552 16 c 4,165,166
 536 16 536 16 522.5 10.5 c 132,-1,167
 509 5 509 5 501.5 -5 c 132,-1,168
 494 -15 494 -15 489 -29.5 c 132,-1,169
 484 -44 484 -44 484 -61 c 4,170,171
 484 -77 484 -77 487 -91 c 132,-1,172
 490 -105 490 -105 497 -116.5 c 132,-1,173
 504 -128 504 -128 515 -137 c 4,174,175
 520 -141 520 -141 530 -146 c 5,176,177
 561 -150 561 -150 598 -152 c 5,155,-1
EndSplineSet
EndChar

